<svg width="16" height="15" viewBox="0 0 16 15" fill="none" xmlns="http://www.w3.org/2000/svg">
<g clip-path="url(#clip0_254_3054)">
<path d="M11.0748 14.8417C12.7196 14.8417 14.3541 14.8417 16 14.8417C16 9.97476 16 5.11241 16 0.24512C14.353 0.24512 12.7189 0.24512 11.0608 0.24512C11.0608 1.88176 11.0608 3.50736 11.0608 5.14286C10.5653 5.14286 10.0936 5.14591 9.62238 5.13905C9.56389 5.13829 9.49804 5.09376 9.44874 5.05266C9.14892 4.80107 8.84284 4.55557 8.55736 4.28724C7.92313 3.6912 7.12188 3.40079 6.3839 2.99429C6.31584 2.95661 6.2316 2.94786 6.15361 2.93264C5.40202 2.78343 4.65006 2.63538 3.89811 2.4877C3.61079 2.43137 3.34702 2.47628 3.13034 2.69437C2.54099 3.28699 1.95201 3.8796 1.36707 4.47641C1.18203 4.66519 1.09999 4.90307 1.14156 5.17103C1.19196 5.49759 1.36854 5.73091 1.67499 5.83786C1.98769 5.9471 2.26912 5.87288 2.5053 5.6369C2.95081 5.19196 3.39117 4.74131 3.83741 4.29714C3.88487 4.24994 3.96323 4.19323 4.01767 4.20236C4.39107 4.26593 4.7619 4.34547 5.14781 4.42274C5.11397 4.49506 5.08932 4.55177 5.06099 4.60696C4.64087 5.4306 4.21412 6.25083 3.8032 7.07981C3.68989 7.30855 3.59902 7.55595 3.53942 7.80526C3.40147 8.38265 3.57768 8.86793 4.01068 9.13246C4.45362 9.40307 4.9039 9.66113 5.35309 9.91995C5.90345 10.237 6.45601 10.5491 7.01114 10.865C6.98907 10.9465 6.97104 11.0131 6.95265 11.0793C6.69108 12.0228 6.42658 12.9656 6.16943 13.9107C6.03883 14.3914 6.26875 14.836 6.70249 14.9657C7.14726 15.099 7.5729 14.8459 7.70902 14.3579C8.09456 12.9767 8.47422 11.5939 8.86197 10.2134C8.89581 10.0931 8.88073 10.0357 8.77147 9.97476C8.28549 9.70528 7.80504 9.42629 7.32237 9.15073C6.91108 8.91551 6.49978 8.68029 6.08224 8.44126C6.57336 7.48021 7.05566 6.53629 7.54605 5.57752C7.93196 5.90713 8.30499 6.21543 8.66588 6.53819C8.87779 6.72774 9.11176 6.80957 9.38878 6.80843C10.413 6.80424 11.4368 6.80843 12.461 6.80919C12.5206 6.80919 12.5802 6.80919 12.6537 6.80919C12.6578 6.7285 12.6633 6.66684 12.6637 6.6048C12.6655 6.28775 12.6607 5.97032 12.671 5.65326C12.6732 5.58133 12.713 5.46829 12.7604 5.45192C12.8145 5.43327 12.8984 5.49873 12.9661 5.53337C12.9922 5.54669 13.0106 5.57638 13.0323 5.59884C13.6308 6.21772 14.2294 6.83659 14.8276 7.45585C14.8647 7.49429 14.8967 7.53768 14.9343 7.5826C14.3162 8.22203 13.7092 8.85004 13.1022 9.47767C13.0503 9.53134 13.0032 9.59452 12.9418 9.63334C12.884 9.67026 12.8038 9.70871 12.7472 9.6931C12.7093 9.68282 12.6747 9.58044 12.6729 9.5184C12.664 9.20135 12.667 8.8843 12.664 8.56686C12.6633 8.49417 12.6567 8.42185 12.653 8.3541C12.1119 8.3541 11.5942 8.3541 11.0748 8.3541C11.0748 10.5225 11.0748 12.6767 11.0748 14.8417ZM3.07626 9.36463C2.93131 9.68625 2.77239 10.0216 2.62928 10.3641C2.56858 10.5091 2.48838 10.5716 2.33203 10.5864C1.7894 10.6382 1.24861 10.7074 0.707455 10.7725C0.454351 10.803 0.257165 10.9347 0.125831 11.1585C-0.0371416 11.4363 -0.0426598 11.7275 0.115162 12.0069C0.281078 12.2999 0.540068 12.4472 0.869692 12.4118C1.75261 12.3167 2.6348 12.2116 3.51662 12.1058C3.56113 12.1005 3.62146 12.0617 3.63986 12.0213C3.90069 11.4572 4.15526 10.8898 4.4183 10.3082C4.17366 10.1643 3.93159 10.0417 3.71086 9.88645C3.49086 9.73192 3.29257 9.54466 3.07626 9.36463ZM9.44653 1.40066C9.45095 0.628398 8.85608 0.00190749 8.11663 4.42334e-06C7.37057 -0.00189865 6.76724 0.610509 6.75988 1.37783C6.75252 2.13982 7.35695 2.77468 8.09419 2.77963C8.83842 2.78458 9.44249 2.16874 9.44653 1.40066Z" fill="white"/>
<path d="M11.0748 14.8417C11.0748 12.6768 11.0748 10.5225 11.0748 8.35337C11.5939 8.35337 12.1119 8.35337 12.653 8.35337C12.6567 8.42112 12.6633 8.49343 12.6641 8.56613C12.6666 8.88318 12.6641 9.20061 12.6729 9.51767C12.6747 9.57971 12.7093 9.68247 12.7472 9.69237C12.8042 9.70759 12.8844 9.66915 12.9418 9.63261C13.0029 9.59379 13.05 9.53061 13.1022 9.47694C13.7092 8.84931 14.3162 8.22129 14.9343 7.58186C14.8967 7.53695 14.8647 7.49356 14.8276 7.45512C14.2294 6.83586 13.6309 6.21698 13.0323 5.5981C13.0106 5.57565 12.9922 5.54596 12.9661 5.53264C12.898 5.498 12.8145 5.43215 12.7604 5.45119C12.713 5.46755 12.6733 5.58097 12.671 5.65253C12.6607 5.9692 12.6655 6.28663 12.6637 6.60406C12.6633 6.66611 12.6578 6.72777 12.6538 6.80845C12.5805 6.80845 12.5206 6.80845 12.461 6.80845C11.4368 6.80769 10.413 6.80389 9.38879 6.80769C9.11177 6.80884 8.87743 6.72662 8.66589 6.53746C8.305 6.2147 7.9316 5.9064 7.54606 5.57679C7.05603 6.53555 6.57337 7.47986 6.08225 8.44053C6.49979 8.67955 6.91109 8.91515 7.32238 9.14999C7.80468 9.42594 8.2855 9.70493 8.77148 9.97402C8.88074 10.0345 8.89582 10.0924 8.86198 10.2127C8.47423 11.5932 8.0942 12.9759 7.70903 14.3572C7.57291 14.8451 7.1469 15.0982 6.7025 14.965C6.26913 14.8352 6.03884 14.3903 6.16944 13.91C6.42659 12.9649 6.69109 12.0221 6.95266 11.0786C6.97105 11.0123 6.98871 10.9457 7.01115 10.8643C6.45638 10.5484 5.90345 10.2363 5.3531 9.91921C4.90355 9.6604 4.45362 9.40234 4.01069 9.13172C3.57769 8.8672 3.40148 8.38191 3.53943 7.80452C3.59903 7.55522 3.6899 7.30782 3.80321 7.07907C4.21413 6.25047 4.64088 5.43025 5.061 4.60622C5.08896 4.55103 5.11398 4.49432 5.14782 4.422C4.76228 4.34474 4.39108 4.26481 4.01768 4.20163C3.96324 4.19249 3.88488 4.24883 3.83742 4.2964C3.39118 4.74058 2.95045 5.19123 2.50531 5.63616C2.26913 5.87214 1.9877 5.94674 1.675 5.83713C1.36855 5.73018 1.19197 5.49686 1.14157 5.17029C1.1 4.90234 1.18203 4.66484 1.36708 4.47567C1.95202 3.87887 2.54136 3.28625 3.13035 2.69364C3.34703 2.47554 3.6108 2.43063 3.89812 2.48696C4.65007 2.63464 5.40203 2.7827 6.15362 2.9319C6.23161 2.94751 6.31585 2.95626 6.38391 2.99356C7.12152 3.40006 7.92314 3.69008 8.55737 4.28651C8.84285 4.55484 9.14893 4.80033 9.44875 5.05192C9.49805 5.09303 9.56353 5.13756 9.62239 5.13832C10.0937 5.14517 10.5653 5.14213 11.0608 5.14213C11.0608 3.50663 11.0608 1.88103 11.0608 0.244385C12.7189 0.244385 14.353 0.244385 16 0.244385C16 5.11206 16 9.97402 16 14.8409C14.3541 14.8417 12.7196 14.8417 11.0748 14.8417Z" fill="white"/>
<path d="M3.07626 9.36462C3.29221 9.54465 3.4905 9.73192 3.71012 9.88645C3.93086 10.0417 4.17292 10.1643 4.41757 10.3082C4.15453 10.8897 3.89995 11.4569 3.63912 12.0213C3.62036 12.0617 3.5604 12.1005 3.51588 12.1058C2.63407 12.2116 1.75188 12.3167 0.868959 12.4118C0.539703 12.4472 0.280345 12.2999 0.11443 12.0068C-0.0433922 11.7279 -0.037874 11.4363 0.125098 11.1585C0.256433 10.9343 0.453619 10.803 0.706722 10.7725C1.24788 10.7071 1.78904 10.6382 2.3313 10.5864C2.48765 10.5716 2.56785 10.5091 2.62855 10.3641C2.77276 10.0216 2.93132 9.68624 3.07626 9.36462Z" fill="white"/>
<path d="M9.44649 1.40066C9.44245 2.16874 8.83838 2.78457 8.09452 2.77963C7.35691 2.77468 6.75248 2.13982 6.76021 1.37783C6.76756 0.610888 7.37089 -0.00151962 8.11696 2.83247e-06C8.85604 0.0019059 9.45091 0.628397 9.44649 1.40066Z" fill="white"/>
</g>
<defs>
<clipPath id="clip0_254_3054">
<rect width="16" height="15" fill="white"/>
</clipPath>
</defs>
</svg>
