<svg width="14" height="17" viewBox="0 0 14 17" fill="none" xmlns="http://www.w3.org/2000/svg">
<path d="M5.28576 1.92855C5.28576 1.75445 5.22921 1.60378 5.11611 1.47655C5.00302 1.34931 4.86909 1.2857 4.71433 1.2857C4.55957 1.2857 4.42564 1.34931 4.31254 1.47655C4.19945 1.60378 4.1429 1.75445 4.1429 1.92855C4.1429 2.10266 4.19945 2.25333 4.31254 2.38056C4.42564 2.5078 4.55957 2.57141 4.71433 2.57141C4.86909 2.57141 5.00302 2.5078 5.11611 2.38056C5.22921 2.25333 5.28576 2.10266 5.28576 1.92855ZM13.2858 1.60713V4.82141C13.2858 4.92855 13.25 5.01226 13.1786 5.07253C13.131 5.1194 13.0715 5.14284 13 5.14284C12.9762 5.14284 12.9554 5.13949 12.9375 5.13279L8.93754 4.16851C8.87207 4.15512 8.8185 4.11829 8.77683 4.05802C8.73516 3.99775 8.71433 3.93079 8.71433 3.85713H6.42861V4.88168C7.08933 5.0357 7.63546 5.40735 8.06701 5.99663C8.49856 6.58592 8.71433 7.26561 8.71433 8.0357V16.0714C8.71433 16.2455 8.65778 16.3962 8.54469 16.5234C8.43159 16.6507 8.29766 16.7143 8.1429 16.7143H3.57147C3.41671 16.7143 3.28278 16.6507 3.16969 16.5234C3.05659 16.3962 3.00004 16.2455 3.00004 16.0714V8.0357C3.00004 7.32588 3.18606 6.68804 3.55808 6.12219C3.9301 5.55634 4.41076 5.17297 5.00004 4.97208V3.85713H4.71433C4.36314 3.85713 4.02088 3.93581 3.68754 4.09317C3.35421 4.25054 3.08189 4.428 2.87058 4.62554C2.65927 4.82309 2.46284 5.04574 2.28129 5.29351C2.09975 5.54128 1.97921 5.72041 1.91969 5.8309C1.86016 5.94139 1.8185 6.02342 1.79469 6.07699C1.6935 6.31137 1.52385 6.42855 1.28576 6.42855C1.19052 6.42855 1.10421 6.40512 1.02683 6.35824C0.889924 6.27788 0.796174 6.154 0.745579 5.98659C0.694984 5.81918 0.705401 5.65512 0.776829 5.4944C0.806591 5.42744 0.849746 5.34038 0.906293 5.23324C0.962841 5.1261 1.07445 4.94697 1.24111 4.69585C1.40778 4.44474 1.58784 4.21036 1.78129 3.99273C1.97475 3.77509 2.22772 3.55076 2.54022 3.31974C2.85272 3.08871 3.17564 2.91293 3.50897 2.79239C3.36016 2.51114 3.28576 2.2232 3.28576 1.92855C3.28576 1.48659 3.42564 1.10824 3.7054 0.793509C3.98516 0.478777 4.32147 0.321411 4.71433 0.321411C5.10719 0.321411 5.4435 0.478777 5.72326 0.793509C6.00302 1.10824 6.1429 1.48659 6.1429 1.92855C6.1429 2.14954 6.10123 2.36382 6.0179 2.57141H8.71433C8.71433 2.49775 8.73516 2.43079 8.77683 2.37052C8.8185 2.31025 8.87207 2.27342 8.93754 2.26003L12.9375 1.29574C12.9554 1.28905 12.9762 1.2857 13 1.2857C13.0715 1.2857 13.131 1.30913 13.1786 1.35601C13.25 1.41628 13.2858 1.49998 13.2858 1.60713Z" fill="white"/>
</svg>
