<svg width="16" height="14" viewBox="0 0 16 14" fill="none" xmlns="http://www.w3.org/2000/svg">
<path d="M12.0986 13.3138H12.094L11.4273 12.9861C11.4217 12.9834 11.4161 12.9807 11.4104 12.9782C11.2509 12.9071 11.0765 12.8708 10.9015 12.8708H3.92294C3.75832 12.8708 3.59292 12.9028 3.43925 12.9676C3.43904 12.9677 3.43883 12.9678 3.43863 12.9678L2.721 13.269C1.4815 13.0688 0.5 11.9566 0.5 10.5813V3.23308C0.5 1.7039 1.6843 0.5 3.1028 0.5H12.0992C13.517 0.5 14.7014 1.70384 14.7014 3.23308V10.5807C14.7014 12.1099 13.5171 13.3138 12.0986 13.3138Z" stroke="#0A0D2A" stroke-miterlimit="10" stroke-linecap="round" stroke-linejoin="round"/>
<path d="M14.6014 10.5807C14.6014 12.0519 13.4684 13.2033 12.1171 13.2137L11.4714 12.8964C11.4647 12.8931 11.4579 12.8899 11.4511 12.8869C11.2785 12.8099 11.0902 12.7708 10.9015 12.7708H3.92294C3.74536 12.7708 3.5666 12.8054 3.40011 12.8756C3.39999 12.8756 3.39987 12.8757 3.39975 12.8757L2.70899 13.1656C1.53203 12.9612 0.6 11.8982 0.6 10.5813V3.23308C0.6 1.75521 1.74336 0.6 3.1028 0.6H12.0992C13.458 0.6 14.6014 1.75513 14.6014 3.23308V10.5807Z" stroke="#0A0D2A" stroke-width="1.2" stroke-miterlimit="10" stroke-linecap="round" stroke-linejoin="round"/>
<path d="M11.3895 5.48333C12.2154 5.48333 12.8849 4.81379 12.8849 3.98788C12.8849 3.16197 12.2154 2.49243 11.3895 2.49243C10.5636 2.49243 9.89404 3.16197 9.89404 3.98788C9.89404 4.81379 10.5636 5.48333 11.3895 5.48333Z" fill="#0A0D2A" stroke="#0A0D2A" stroke-miterlimit="10" stroke-linecap="round" stroke-linejoin="round"/>
<path d="M3.71141 3.88817C3.71141 4.10758 3.53355 4.28544 3.31414 4.28544C3.09473 4.28544 2.91687 4.10758 2.91687 3.88817C2.91687 3.66877 3.09473 3.49091 3.31414 3.49091C3.53355 3.49091 3.71141 3.66877 3.71141 3.88817Z" stroke="#0A0D2A"/>
<path d="M6.20372 3.88817C6.20372 4.10758 6.02585 4.28544 5.80645 4.28544C5.58704 4.28544 5.40918 4.10758 5.40918 3.88817C5.40918 3.66877 5.58704 3.49091 5.80645 3.49091C6.02586 3.49091 6.20372 3.66877 6.20372 3.88817Z" stroke="#0A0D2A"/>
</svg>
