<svg width="77" height="62" viewBox="0 0 77 62" fill="none" xmlns="http://www.w3.org/2000/svg">
<path d="M23.7069 40.6324L32.3313 26.4796C32.5128 26.1818 32.8365 26 33.1853 26H39.9713C40.7433 26 41.2242 26.8377 40.8348 27.5044L37.0489 33.9855C35.8807 35.9855 37.3232 38.4987 39.6393 38.4987H41.1792C42.0695 38.4987 42.5159 39.5747 41.8871 40.205L28.0078 54.1151C27.2337 54.891 25.9553 54.0359 26.3769 53.0241L29.1761 46.3068C29.9996 44.3307 28.5477 42.1528 26.4069 42.1528H24.5608C23.7805 42.1528 23.3008 41.2988 23.7069 40.6324Z" fill="url(#paint0_linear_401_2501)" stroke="url(#paint1_linear_401_2501)" stroke-width="2"/>
<g filter="url(#filter0_dd_401_2501)">
<mask id="path-2-inside-1_401_2501" fill="white">
<path fill-rule="evenodd" clip-rule="evenodd" d="M47.8668 41.8375C47.9035 41.8379 47.9402 41.8381 47.977 41.8381C53.211 41.8381 57.454 37.5527 57.454 32.2664C57.454 26.9801 53.211 22.6948 47.977 22.6948C47.9402 22.6948 47.9035 22.695 47.8668 22.6954V22.6948H45.4185C45.507 22.0397 45.5526 21.3709 45.5526 20.6914C45.5526 12.5776 39.0402 6 31.0066 6C22.973 6 16.4605 12.5776 16.4605 20.6914C16.4605 21.457 16.5185 22.2089 16.6303 22.9429C15.9385 22.7806 15.2177 22.6948 14.477 22.6948C9.24299 22.6948 5 26.9801 5 32.2664C5 37.5527 9.24299 41.8381 14.477 41.8381C14.5139 41.8381 14.5508 41.8379 14.5877 41.8375L14.5872 41.8381H47.8668V41.8375Z"/>
</mask>
<path fill-rule="evenodd" clip-rule="evenodd" d="M47.8668 41.8375C47.9035 41.8379 47.9402 41.8381 47.977 41.8381C53.211 41.8381 57.454 37.5527 57.454 32.2664C57.454 26.9801 53.211 22.6948 47.977 22.6948C47.9402 22.6948 47.9035 22.695 47.8668 22.6954V22.6948H45.4185C45.507 22.0397 45.5526 21.3709 45.5526 20.6914C45.5526 12.5776 39.0402 6 31.0066 6C22.973 6 16.4605 12.5776 16.4605 20.6914C16.4605 21.457 16.5185 22.2089 16.6303 22.9429C15.9385 22.7806 15.2177 22.6948 14.477 22.6948C9.24299 22.6948 5 26.9801 5 32.2664C5 37.5527 9.24299 41.8381 14.477 41.8381C14.5139 41.8381 14.5508 41.8379 14.5877 41.8375L14.5872 41.8381H47.8668V41.8375Z" fill="url(#paint2_linear_401_2501)" shape-rendering="crispEdges"/>
<path d="M47.8668 41.8375L47.8899 39.8376C47.3555 39.8314 46.8408 40.0394 46.4608 40.4151C46.0807 40.7908 45.8668 41.303 45.8668 41.8375H47.8668ZM47.8668 22.6954H45.8668C45.8668 23.2298 46.0807 23.742 46.4607 24.1177C46.8408 24.4934 47.3554 24.7014 47.8898 24.6953L47.8668 22.6954ZM47.8668 22.6948H49.8668C49.8668 21.5902 48.9714 20.6948 47.8668 20.6948V22.6948ZM45.4185 22.6948L43.4365 22.4272C43.3593 22.9991 43.5329 23.5765 43.9127 24.011C44.2925 24.4455 44.8414 24.6948 45.4185 24.6948V22.6948ZM16.6303 22.9429L16.1734 24.89C16.8199 25.0417 17.4995 24.8627 17.9873 24.4121C18.4751 23.9616 18.7075 23.2983 18.6075 22.6418L16.6303 22.9429ZM14.5877 41.8375L16.1649 43.0673C16.6374 42.4613 16.721 41.6381 16.3798 40.9495C16.0385 40.2609 15.333 39.8287 14.5645 39.8376L14.5877 41.8375ZM14.5872 41.8381L13.01 40.6083C12.54 41.211 12.4547 42.0289 12.79 42.7157C13.1254 43.4025 13.8229 43.8381 14.5872 43.8381V41.8381ZM47.8668 41.8381V43.8381C48.9714 43.8381 49.8668 42.9427 49.8668 41.8381H47.8668ZM47.8437 43.8373C47.8882 43.8378 47.9326 43.8381 47.977 43.8381V39.8381C47.9478 39.8381 47.9188 39.8379 47.8899 39.8376L47.8437 43.8373ZM47.977 43.8381C54.3343 43.8381 59.454 38.6385 59.454 32.2664H55.454C55.454 36.4669 52.0877 39.8381 47.977 39.8381V43.8381ZM59.454 32.2664C59.454 25.8944 54.3343 20.6948 47.977 20.6948V24.6948C52.0877 24.6948 55.454 28.0659 55.454 32.2664H59.454ZM47.977 20.6948C47.9325 20.6948 47.8881 20.695 47.8438 20.6955L47.8898 24.6953C47.9188 24.6949 47.9479 24.6948 47.977 24.6948V20.6948ZM45.8668 22.6948V22.6954H49.8668V22.6948H45.8668ZM45.4185 24.6948H47.8668V20.6948H45.4185V24.6948ZM47.4006 22.9623C47.5009 22.2189 47.5526 21.4607 47.5526 20.6914H43.5526C43.5526 21.2812 43.513 21.8606 43.4365 22.4272L47.4006 22.9623ZM47.5526 20.6914C47.5526 11.4918 40.1634 4 31.0066 4V8C37.9169 8 43.5526 13.6633 43.5526 20.6914H47.5526ZM31.0066 4C21.8498 4 14.4605 11.4918 14.4605 20.6914H18.4605C18.4605 13.6633 24.0963 8 31.0066 8V4ZM14.4605 20.6914C14.4605 21.5581 14.5262 22.4107 14.6531 23.244L18.6075 22.6418C18.5109 22.0072 18.4605 21.3559 18.4605 20.6914H14.4605ZM17.0872 20.9958C16.2468 20.7986 15.3727 20.6948 14.477 20.6948V24.6948C15.0627 24.6948 15.6302 24.7626 16.1734 24.89L17.0872 20.9958ZM14.477 20.6948C8.11971 20.6948 3 25.8944 3 32.2664H7C7 28.0659 10.3663 24.6948 14.477 24.6948V20.6948ZM3 32.2664C3 38.6385 8.11972 43.8381 14.477 43.8381V39.8381C10.3663 39.8381 7 36.4669 7 32.2664H3ZM14.477 43.8381C14.5216 43.8381 14.5663 43.8378 14.6109 43.8373L14.5645 39.8376C14.5354 39.8379 14.5062 39.8381 14.477 39.8381V43.8381ZM16.1644 43.0679L16.1649 43.0673L13.0105 40.6076L13.01 40.6083L16.1644 43.0679ZM47.8668 39.8381H14.5872V43.8381H47.8668V39.8381ZM45.8668 41.8375V41.8381H49.8668V41.8375H45.8668Z" fill="url(#paint3_linear_401_2501)" mask="url(#path-2-inside-1_401_2501)"/>
</g>
<g filter="url(#filter1_dd_401_2501)">
<mask id="path-4-inside-2_401_2501" fill="white">
<path fill-rule="evenodd" clip-rule="evenodd" d="M63.9211 31.8993C63.9476 31.8997 63.9742 31.8998 64.0008 31.8998C67.7833 31.8998 70.8497 28.8028 70.8497 24.9825C70.8497 21.1621 67.7833 18.0651 64.0008 18.0651C63.9742 18.0651 63.9476 18.0653 63.9211 18.0656V18.0651H62.1518C62.2157 17.5917 62.2487 17.1084 62.2487 16.6173C62.2487 10.7535 57.5422 6 51.7364 6C45.9307 6 41.2242 10.7535 41.2242 16.6173C41.2242 17.1706 41.2661 17.714 41.3469 18.2445C40.8469 18.1271 40.3259 18.0651 39.7906 18.0651C36.0081 18.0651 32.9417 21.1621 32.9417 24.9825C32.9417 28.8028 36.0081 31.8998 39.7906 31.8998C39.8174 31.8998 39.844 31.8997 39.8707 31.8993L39.8703 31.8998H63.9211V31.8993Z"/>
</mask>
<path fill-rule="evenodd" clip-rule="evenodd" d="M63.9211 31.8993C63.9476 31.8997 63.9742 31.8998 64.0008 31.8998C67.7833 31.8998 70.8497 28.8028 70.8497 24.9825C70.8497 21.1621 67.7833 18.0651 64.0008 18.0651C63.9742 18.0651 63.9476 18.0653 63.9211 18.0656V18.0651H62.1518C62.2157 17.5917 62.2487 17.1084 62.2487 16.6173C62.2487 10.7535 57.5422 6 51.7364 6C45.9307 6 41.2242 10.7535 41.2242 16.6173C41.2242 17.1706 41.2661 17.714 41.3469 18.2445C40.8469 18.1271 40.3259 18.0651 39.7906 18.0651C36.0081 18.0651 32.9417 21.1621 32.9417 24.9825C32.9417 28.8028 36.0081 31.8998 39.7906 31.8998C39.8174 31.8998 39.844 31.8997 39.8707 31.8993L39.8703 31.8998H63.9211V31.8993Z" fill="url(#paint4_linear_401_2501)" shape-rendering="crispEdges"/>
<path d="M63.9211 31.8993L63.9441 29.8995C63.4097 29.8933 62.8951 30.1013 62.515 30.477C62.135 30.8527 61.9211 31.3649 61.9211 31.8993H63.9211ZM63.9211 18.0656H61.9211C61.9211 18.6 62.135 19.1122 62.515 19.4879C62.8951 19.8636 63.4097 20.0716 63.9441 20.0654L63.9211 18.0656ZM63.9211 18.0651H65.9211C65.9211 16.9606 65.0257 16.0651 63.9211 16.0651V18.0651ZM62.1518 18.0651L60.1698 17.7976C60.0926 18.3695 60.2662 18.9468 60.6459 19.3813C61.0257 19.8158 61.5747 20.0651 62.1518 20.0651V18.0651ZM41.3469 18.2445L40.8899 20.1916C41.5364 20.3433 42.216 20.1642 42.7038 19.7137C43.1916 19.2631 43.424 18.5999 43.3241 17.9434L41.3469 18.2445ZM39.8707 31.8993L41.4461 33.1314C41.9198 32.5256 42.0043 31.7019 41.6634 31.0127C41.3224 30.3234 40.6165 29.8906 39.8476 29.8995L39.8707 31.8993ZM39.8703 31.8998L38.2948 30.6678C37.8237 31.2702 37.7374 32.0886 38.0725 32.7761C38.4076 33.4636 39.1055 33.8998 39.8703 33.8998V31.8998ZM63.9211 31.8998V33.8998C65.0257 33.8998 65.9211 33.0044 65.9211 31.8998H63.9211ZM63.8981 33.8992C63.9323 33.8996 63.9665 33.8998 64.0008 33.8998V29.8998C63.9818 29.8998 63.9629 29.8997 63.9441 29.8995L63.8981 33.8992ZM64.0008 33.8998C68.9066 33.8998 72.8497 29.8886 72.8497 24.9825H68.8497C68.8497 27.717 66.66 29.8998 64.0008 29.8998V33.8998ZM72.8497 24.9825C72.8497 20.0763 68.9066 16.0651 64.0008 16.0651V20.0651C66.66 20.0651 68.8497 22.2479 68.8497 24.9825H72.8497ZM64.0008 16.0651C63.9665 16.0651 63.9323 16.0653 63.8981 16.0657L63.9441 20.0654C63.9629 20.0652 63.9818 20.0651 64.0008 20.0651V16.0651ZM61.9211 18.0651V18.0656H65.9211V18.0651H61.9211ZM62.1518 20.0651H63.9211V16.0651H62.1518V20.0651ZM64.1338 18.3327C64.2097 17.7709 64.2487 17.1981 64.2487 16.6173H60.2487C60.2487 17.0187 60.2217 17.4126 60.1698 17.7976L64.1338 18.3327ZM64.2487 16.6173C64.2487 9.66776 58.6655 4 51.7364 4V8C56.4189 8 60.2487 11.8393 60.2487 16.6173H64.2487ZM51.7364 4C44.8074 4 39.2242 9.66776 39.2242 16.6173H43.2242C43.2242 11.8393 47.0539 8 51.7364 8V4ZM39.2242 16.6173C39.2242 17.2717 39.2737 17.9158 39.3696 18.5456L43.3241 17.9434C43.2584 17.5122 43.2242 17.0695 43.2242 16.6173H39.2242ZM41.8038 16.2974C41.1552 16.1452 40.4809 16.0651 39.7906 16.0651V20.0651C40.1709 20.0651 40.5386 20.1091 40.8899 20.1916L41.8038 16.2974ZM39.7906 16.0651C34.8848 16.0651 30.9417 20.0763 30.9417 24.9825H34.9417C34.9417 22.2479 37.1314 20.0651 39.7906 20.0651V16.0651ZM30.9417 24.9825C30.9417 29.8886 34.8848 33.8998 39.7906 33.8998V29.8998C37.1314 29.8998 34.9417 27.717 34.9417 24.9825H30.9417ZM39.7906 33.8998C39.8251 33.8998 39.8594 33.8996 39.8937 33.8992L39.8476 29.8995C39.8286 29.8997 39.8096 29.8998 39.7906 29.8998V33.8998ZM41.4458 33.1319L41.4461 33.1314L38.2952 30.6673L38.2948 30.6678L41.4458 33.1319ZM63.9211 29.8998H39.8703V33.8998H63.9211V29.8998ZM61.9211 31.8993V31.8998H65.9211V31.8993H61.9211Z" fill="url(#paint5_linear_401_2501)" mask="url(#path-4-inside-2_401_2501)"/>
</g>
<defs>
<filter id="filter0_dd_401_2501" x="0" y="0" width="61.454" height="49.8381" filterUnits="userSpaceOnUse" color-interpolation-filters="sRGB">
<feFlood flood-opacity="0" result="BackgroundImageFix"/>
<feColorMatrix in="SourceAlpha" type="matrix" values="0 0 0 0 0 0 0 0 0 0 0 0 0 0 0 0 0 0 127 0" result="hardAlpha"/>
<feOffset dx="-1" dy="-2"/>
<feGaussianBlur stdDeviation="2"/>
<feComposite in2="hardAlpha" operator="out"/>
<feColorMatrix type="matrix" values="0 0 0 0 0 0 0 0 0 0 0 0 0 0 0 0 0 0 0.05 0"/>
<feBlend mode="normal" in2="BackgroundImageFix" result="effect1_dropShadow_401_2501"/>
<feColorMatrix in="SourceAlpha" type="matrix" values="0 0 0 0 0 0 0 0 0 0 0 0 0 0 0 0 0 0 127 0" result="hardAlpha"/>
<feOffset dy="4"/>
<feGaussianBlur stdDeviation="2"/>
<feComposite in2="hardAlpha" operator="out"/>
<feColorMatrix type="matrix" values="0 0 0 0 0 0 0 0 0 0 0 0 0 0 0 0 0 0 0.25 0"/>
<feBlend mode="normal" in2="effect1_dropShadow_401_2501" result="effect2_dropShadow_401_2501"/>
<feBlend mode="normal" in="SourceGraphic" in2="effect2_dropShadow_401_2501" result="shape"/>
</filter>
<filter id="filter1_dd_401_2501" x="27.9417" y="0" width="48.9079" height="39.8998" filterUnits="userSpaceOnUse" color-interpolation-filters="sRGB">
<feFlood flood-opacity="0" result="BackgroundImageFix"/>
<feColorMatrix in="SourceAlpha" type="matrix" values="0 0 0 0 0 0 0 0 0 0 0 0 0 0 0 0 0 0 127 0" result="hardAlpha"/>
<feOffset dx="2" dy="4"/>
<feGaussianBlur stdDeviation="2"/>
<feComposite in2="hardAlpha" operator="out"/>
<feColorMatrix type="matrix" values="0 0 0 0 0 0 0 0 0 0 0 0 0 0 0 0 0 0 0.1 0"/>
<feBlend mode="normal" in2="BackgroundImageFix" result="effect1_dropShadow_401_2501"/>
<feColorMatrix in="SourceAlpha" type="matrix" values="0 0 0 0 0 0 0 0 0 0 0 0 0 0 0 0 0 0 127 0" result="hardAlpha"/>
<feOffset dx="-1" dy="-2"/>
<feGaussianBlur stdDeviation="2"/>
<feComposite in2="hardAlpha" operator="out"/>
<feColorMatrix type="matrix" values="0 0 0 0 0 0 0 0 0 0 0 0 0 0 0 0 0 0 0.05 0"/>
<feBlend mode="normal" in2="effect1_dropShadow_401_2501" result="effect2_dropShadow_401_2501"/>
<feBlend mode="normal" in="SourceGraphic" in2="effect2_dropShadow_401_2501" result="shape"/>
</filter>
<linearGradient id="paint0_linear_401_2501" x1="35.9336" y1="27.1823" x2="31.4417" y2="48.9225" gradientUnits="userSpaceOnUse">
<stop stop-color="#FF4D00"/>
<stop offset="1" stop-color="#FFB800"/>
</linearGradient>
<linearGradient id="paint1_linear_401_2501" x1="28.5221" y1="48.4102" x2="36.9106" y2="28.3649" gradientUnits="userSpaceOnUse">
<stop stop-color="white"/>
<stop offset="1" stop-color="white" stop-opacity="0"/>
</linearGradient>
<linearGradient id="paint2_linear_401_2501" x1="31.227" y1="-5.46374" x2="31.227" y2="46.8465" gradientUnits="userSpaceOnUse">
<stop stop-color="white"/>
<stop offset="1" stop-color="white" stop-opacity="0"/>
</linearGradient>
<linearGradient id="paint3_linear_401_2501" x1="31.227" y1="6" x2="31.227" y2="41.8381" gradientUnits="userSpaceOnUse">
<stop stop-color="white"/>
<stop offset="1" stop-color="white" stop-opacity="0"/>
</linearGradient>
<linearGradient id="paint4_linear_401_2501" x1="53.6588" y1="6.77909" x2="53.6588" y2="34.8263" gradientUnits="userSpaceOnUse">
<stop stop-color="white"/>
<stop offset="1" stop-color="white" stop-opacity="0"/>
</linearGradient>
<linearGradient id="paint5_linear_401_2501" x1="51.8957" y1="6" x2="51.8957" y2="31.8998" gradientUnits="userSpaceOnUse">
<stop stop-color="white"/>
<stop offset="1" stop-color="white" stop-opacity="0"/>
</linearGradient>
</defs>
</svg>
