<svg width="74" height="73" viewBox="0 0 74 73" fill="none" xmlns="http://www.w3.org/2000/svg">
<ellipse cx="41.9901" cy="18.5124" rx="13.0428" ry="12.5124" fill="#FFC701" fill-opacity="0.3"/>
<g filter="url(#filter0_d_208_3606)">
<ellipse cx="41.9901" cy="18.9226" rx="12.6151" ry="12.1022" fill="url(#paint0_linear_208_3606)"/>
<path d="M53.6053 18.9226C53.6053 25.0155 48.4445 30.0248 41.9901 30.0248C35.5357 30.0248 30.375 25.0155 30.375 18.9226C30.375 12.8298 35.5357 7.82043 41.9901 7.82043C48.4445 7.82043 53.6053 12.8298 53.6053 18.9226Z" stroke="url(#paint1_linear_208_3606)" stroke-width="2"/>
</g>
<mask id="mask0_208_3606" style="mask-type:alpha" maskUnits="userSpaceOnUse" x="29" y="13" width="26" height="19">
<path d="M54.6053 18.9226C54.6053 25.6065 48.9573 31.0248 41.9901 31.0248C35.023 31.0248 29.375 25.6065 29.375 18.9226C29.375 12.2388 34.0608 13.7946 41.028 13.7946C47.9951 13.7946 54.6053 12.2388 54.6053 18.9226Z" fill="url(#paint2_linear_208_3606)"/>
</mask>
<g mask="url(#mask0_208_3606)">
<g filter="url(#filter1_f_208_3606)">
<path fill-rule="evenodd" clip-rule="evenodd" d="M51.9326 49.8955C51.9682 49.8958 52.0038 49.896 52.0395 49.896C57.1172 49.896 61.2336 45.9471 61.2336 41.0758C61.2336 36.2045 57.1172 32.2556 52.0395 32.2556C52.0038 32.2556 51.9682 32.2558 51.9326 32.2561V32.2556H46.0713C46.1997 31.5218 46.2664 30.768 46.2664 29.9992C46.2664 22.5224 39.9484 16.4612 32.1546 16.4612C24.3609 16.4612 18.0428 22.5224 18.0428 29.9992C18.0428 30.7979 18.1149 31.5805 18.2532 32.3412C13.7844 32.9414 10.3454 36.6233 10.3454 41.0758C10.3454 45.9471 14.4617 49.896 19.5395 49.896C19.5753 49.896 19.6111 49.8958 19.6469 49.8954L19.6464 49.896H51.9326V49.8955Z" fill="#E18700"/>
</g>
</g>
<g filter="url(#filter2_dd_208_3606)">
<mask id="path-6-inside-1_208_3606" fill="white">
<path fill-rule="evenodd" clip-rule="evenodd" d="M46.5872 50.9211C46.6228 50.9215 46.6584 50.9217 46.6941 50.9217C51.7718 50.9217 55.8882 46.9727 55.8882 42.1015C55.8882 37.2302 51.7718 33.2812 46.6941 33.2812C46.6584 33.2812 46.6228 33.2814 46.5872 33.2818V33.2812H44.212C44.2978 32.6776 44.3421 32.0613 44.3421 31.4351C44.3421 23.9583 38.024 17.8971 30.2303 17.8971C22.4365 17.8971 16.1184 23.9583 16.1184 31.4351C16.1184 32.1406 16.1747 32.8335 16.2831 33.5099C15.612 33.3603 14.9127 33.2812 14.1941 33.2812C9.11633 33.2812 5 37.2302 5 42.1015C5 46.9727 9.11633 50.9217 14.1941 50.9217C14.2299 50.9217 14.2657 50.9215 14.3015 50.9211L14.301 50.9217H46.5872V50.9211Z"/>
</mask>
<path fill-rule="evenodd" clip-rule="evenodd" d="M46.5872 50.9211C46.6228 50.9215 46.6584 50.9217 46.6941 50.9217C51.7718 50.9217 55.8882 46.9727 55.8882 42.1015C55.8882 37.2302 51.7718 33.2812 46.6941 33.2812C46.6584 33.2812 46.6228 33.2814 46.5872 33.2818V33.2812H44.212C44.2978 32.6776 44.3421 32.0613 44.3421 31.4351C44.3421 23.9583 38.024 17.8971 30.2303 17.8971C22.4365 17.8971 16.1184 23.9583 16.1184 31.4351C16.1184 32.1406 16.1747 32.8335 16.2831 33.5099C15.612 33.3603 14.9127 33.2812 14.1941 33.2812C9.11633 33.2812 5 37.2302 5 42.1015C5 46.9727 9.11633 50.9217 14.1941 50.9217C14.2299 50.9217 14.2657 50.9215 14.3015 50.9211L14.301 50.9217H46.5872V50.9211Z" fill="url(#paint3_linear_208_3606)" shape-rendering="crispEdges"/>
<path d="M46.5872 50.9211L46.609 48.9212C46.0748 48.9154 45.5605 49.1235 45.1807 49.4992C44.8009 49.8749 44.5872 50.3869 44.5872 50.9211H46.5872ZM46.5872 33.2818H44.5872C44.5872 33.816 44.8009 34.3281 45.1807 34.7037C45.5605 35.0794 46.0748 35.2875 46.609 35.2817L46.5872 33.2818ZM46.5872 33.2812H48.5872C48.5872 32.1767 47.6917 31.2812 46.5872 31.2812V33.2812ZM44.212 33.2812L42.2319 32.9998C42.1504 33.5736 42.3217 34.1545 42.7016 34.5922C43.0814 35.0298 43.6325 35.2812 44.212 35.2812V33.2812ZM16.2831 33.5099L15.848 35.462C16.495 35.6062 17.1714 35.4205 17.654 34.9661C18.1367 34.5118 18.3628 33.8478 18.2579 33.1933L16.2831 33.5099ZM14.3015 50.9211L15.8445 52.1936C16.3396 51.5932 16.4415 50.7602 16.1058 50.0582C15.77 49.3562 15.0576 48.9127 14.2795 48.9212L14.3015 50.9211ZM14.301 50.9217L12.758 49.6492C12.2654 50.2465 12.1618 51.0744 12.492 51.7747C12.8222 52.4749 13.5268 52.9217 14.301 52.9217V50.9217ZM46.5872 50.9217V52.9217C47.6917 52.9217 48.5872 52.0263 48.5872 50.9217H46.5872ZM46.5653 52.921C46.6082 52.9215 46.6511 52.9217 46.6941 52.9217V48.9217C46.6657 48.9217 46.6373 48.9215 46.609 48.9212L46.5653 52.921ZM46.6941 52.9217C52.7973 52.9217 57.8882 48.1547 57.8882 42.1015H53.8882C53.8882 45.7907 50.7463 48.9217 46.6941 48.9217V52.9217ZM57.8882 42.1015C57.8882 36.0482 52.7973 31.2812 46.6941 31.2812V35.2812C50.7463 35.2812 53.8882 38.4122 53.8882 42.1015H57.8882ZM46.6941 31.2812C46.6511 31.2812 46.6082 31.2815 46.5653 31.2819L46.609 35.2817C46.6373 35.2814 46.6657 35.2812 46.6941 35.2812V31.2812ZM44.5872 33.2812V33.2818H48.5872V33.2812H44.5872ZM44.212 35.2812H46.5872V31.2812H44.212V35.2812ZM46.1921 33.5627C46.2911 32.8661 46.3421 32.1558 46.3421 31.4351H42.3421C42.3421 31.9668 42.3045 32.4891 42.2319 32.9998L46.1921 33.5627ZM46.3421 31.4351C46.3421 22.7763 39.0495 15.8971 30.2303 15.8971V19.8971C36.9985 19.8971 42.3421 25.1403 42.3421 31.4351H46.3421ZM30.2303 15.8971C21.411 15.8971 14.1184 22.7763 14.1184 31.4351H18.1184C18.1184 25.1403 23.462 19.8971 30.2303 19.8971V15.8971ZM14.1184 31.4351C14.1184 32.2471 14.1832 33.0459 14.3083 33.8265L18.2579 33.1933C18.1662 32.6212 18.1184 32.0341 18.1184 31.4351H14.1184ZM16.7182 31.5578C15.905 31.3765 15.0597 31.2812 14.1941 31.2812V35.2812C14.7656 35.2812 15.319 35.3441 15.848 35.462L16.7182 31.5578ZM14.1941 31.2812C8.09082 31.2812 3 36.0482 3 42.1015H7C7 38.4122 10.1418 35.2812 14.1941 35.2812V31.2812ZM3 42.1015C3 48.1547 8.09082 52.9217 14.1941 52.9217V48.9217C10.1418 48.9217 7 45.7907 7 42.1015H3ZM14.1941 52.9217C14.2372 52.9217 14.2803 52.9215 14.3235 52.921L14.2795 48.9212C14.2512 48.9215 14.2227 48.9217 14.1941 48.9217V52.9217ZM15.844 52.1942L15.8445 52.1936L12.7585 49.6486L12.758 49.6492L15.844 52.1942ZM46.5872 48.9217H14.301V52.9217H46.5872V48.9217ZM44.5872 50.9211V50.9217H48.5872V50.9211H44.5872Z" fill="url(#paint4_linear_208_3606)" mask="url(#path-6-inside-1_208_3606)"/>
</g>
<g filter="url(#filter3_bd_208_3606)">
<mask id="path-8-inside-2_208_3606" fill="white">
<path fill-rule="evenodd" clip-rule="evenodd" d="M63.2783 41.7632C63.304 41.7635 63.3298 41.7636 63.3555 41.7636C67.0252 41.7636 70 38.9098 70 35.3893C70 31.8689 67.0252 29.015 63.3555 29.015C63.3298 29.015 63.304 29.0152 63.2783 29.0155V29.015H61.5618C61.6238 28.5788 61.6558 28.1334 61.6558 27.6809C61.6558 22.2775 57.0898 17.8971 51.4573 17.8971C45.8249 17.8971 41.2588 22.2775 41.2588 27.6809C41.2588 28.1907 41.2995 28.6915 41.3779 29.1803C40.8928 29.0722 40.3875 29.015 39.8681 29.015C36.1985 29.015 33.2237 31.8689 33.2237 35.3893C33.2237 38.9098 36.1985 41.7636 39.8681 41.7636C39.8941 41.7636 39.9199 41.7635 39.9458 41.7632L39.9454 41.7636H63.2783V41.7632Z"/>
</mask>
<path fill-rule="evenodd" clip-rule="evenodd" d="M63.2783 41.7632C63.304 41.7635 63.3298 41.7636 63.3555 41.7636C67.0252 41.7636 70 38.9098 70 35.3893C70 31.8689 67.0252 29.015 63.3555 29.015C63.3298 29.015 63.304 29.0152 63.2783 29.0155V29.015H61.5618C61.6238 28.5788 61.6558 28.1334 61.6558 27.6809C61.6558 22.2775 57.0898 17.8971 51.4573 17.8971C45.8249 17.8971 41.2588 22.2775 41.2588 27.6809C41.2588 28.1907 41.2995 28.6915 41.3779 29.1803C40.8928 29.0722 40.3875 29.015 39.8681 29.015C36.1985 29.015 33.2237 31.8689 33.2237 35.3893C33.2237 38.9098 36.1985 41.7636 39.8681 41.7636C39.8941 41.7636 39.9199 41.7635 39.9458 41.7632L39.9454 41.7636H63.2783V41.7632Z" fill="url(#paint5_linear_208_3606)" shape-rendering="crispEdges"/>
<path d="M63.2783 41.7632L63.3001 39.7633C62.7659 39.7575 62.2516 39.9656 61.8718 40.3413C61.492 40.717 61.2783 41.229 61.2783 41.7632H63.2783ZM63.2783 29.0155H61.2783C61.2783 29.5497 61.492 30.0617 61.8718 30.4374C62.2516 30.8131 62.766 31.0212 63.3002 31.0153L63.2783 29.0155ZM63.2783 29.015H65.2783C65.2783 27.9105 64.3829 27.015 63.2783 27.015V29.015ZM61.5618 29.015L59.5817 28.7336C59.5001 29.3074 59.6715 29.8883 60.0513 30.326C60.4312 30.7637 60.9822 31.015 61.5618 31.015V29.015ZM41.3779 29.1803L40.9428 31.1324C41.5897 31.2766 42.2661 31.0909 42.7488 30.6365C43.2314 30.1822 43.4576 29.5182 43.3527 28.8637L41.3779 29.1803ZM39.9458 41.7632L41.4901 43.034C41.9843 42.4334 42.0855 41.6008 41.7496 40.8993C41.4136 40.1979 40.7015 39.7548 39.9238 39.7633L39.9458 41.7632ZM39.9454 41.7636L38.4011 40.4928C37.9094 41.0903 37.8065 41.9178 38.1369 42.6175C38.4673 43.3173 39.1716 43.7636 39.9454 43.7636V41.7636ZM63.2783 41.7636V43.7636C64.3829 43.7636 65.2783 42.8682 65.2783 41.7636H63.2783ZM63.2565 43.7631C63.2894 43.7634 63.3225 43.7636 63.3556 43.7636V39.7636C63.3371 39.7636 63.3186 39.7635 63.3001 39.7633L63.2565 43.7631ZM63.3556 43.7636C68.0507 43.7636 72 40.0918 72 35.3893H68C68 37.7277 65.9997 39.7636 63.3556 39.7636V43.7636ZM72 35.3893C72 30.6869 68.0507 27.015 63.3556 27.015V31.015C65.9997 31.015 68 33.0509 68 35.3893H72ZM63.3556 27.015C63.3225 27.015 63.2894 27.0152 63.2564 27.0156L63.3002 31.0153C63.3186 31.0151 63.3371 31.015 63.3556 31.015V27.015ZM61.2783 29.015V29.0155H65.2783V29.015H61.2783ZM61.5618 31.015H63.2783V27.015H61.5618V31.015ZM63.5419 29.2965C63.6171 28.7674 63.6558 28.2279 63.6558 27.6809H59.6558C59.6558 28.0389 59.6305 28.3903 59.5817 28.7336L63.5419 29.2965ZM63.6558 27.6809C63.6558 21.0954 58.1153 15.8971 51.4573 15.8971V19.8971C56.0643 19.8971 59.6558 23.4595 59.6558 27.6809H63.6558ZM51.4573 15.8971C44.7994 15.8971 39.2589 21.0954 39.2589 27.6809H43.2589C43.2589 23.4595 46.8504 19.8971 51.4573 19.8971V15.8971ZM39.2589 27.6809C39.2589 28.2972 39.308 28.9039 39.4031 29.4969L43.3527 28.8637C43.291 28.4791 43.2589 28.0842 43.2589 27.6809H39.2589ZM41.813 27.2282C41.1858 27.0884 40.5345 27.015 39.8682 27.015V31.015C40.2404 31.015 40.5999 31.056 40.9428 31.1324L41.813 27.2282ZM39.8682 27.015C35.173 27.015 31.2237 30.6869 31.2237 35.3893H35.2237C35.2237 33.0509 37.224 31.015 39.8682 31.015V27.015ZM31.2237 35.3893C31.2237 40.0918 35.173 43.7636 39.8682 43.7636V39.7636C37.224 39.7636 35.2237 37.7277 35.2237 35.3893H31.2237ZM39.8682 43.7636C39.9013 43.7636 39.9345 43.7634 39.9678 43.7631L39.9238 39.7633C39.9053 39.7635 39.8868 39.7636 39.8682 39.7636V43.7636ZM41.4898 43.0344L41.4901 43.034L38.4014 40.4924L38.4011 40.4928L41.4898 43.0344ZM63.2783 39.7636H39.9454V43.7636H63.2783V39.7636ZM61.2783 41.7632V41.7636H65.2783V41.7632H61.2783Z" fill="url(#paint6_linear_208_3606)" mask="url(#path-8-inside-2_208_3606)"/>
</g>
<g filter="url(#filter4_d_208_3606)">
<path d="M18.9931 49.3438L19.2436 52.709C19.3359 53.9498 18.1291 54.9154 16.9251 54.564C15.7211 54.2127 15.2792 52.766 16.0761 51.7847L18.2375 49.1233C18.481 48.8235 18.9648 48.9647 18.9931 49.3438Z" fill="url(#paint7_linear_208_3606)" stroke="url(#paint8_linear_208_3606)" stroke-width="2"/>
<path d="M31.289 49.3438L31.5395 52.709C31.6319 53.9498 30.4251 54.9154 29.2211 54.564C28.0171 54.2127 27.5752 52.766 28.3721 51.7847L30.5335 49.1233C30.7769 48.8235 31.2608 48.9647 31.289 49.3438Z" fill="url(#paint9_linear_208_3606)" stroke="url(#paint10_linear_208_3606)" stroke-width="2"/>
<path d="M43.585 49.3438L43.8355 52.709C43.9278 53.9498 42.7211 54.9154 41.517 54.564C40.313 54.2127 39.8711 52.766 40.668 51.7847L42.8294 49.1233C43.0729 48.8235 43.5568 48.9647 43.585 49.3438Z" fill="url(#paint11_linear_208_3606)" stroke="url(#paint12_linear_208_3606)" stroke-width="2"/>
<path d="M22.2374 58.6809L22.4879 62.0461C22.5802 63.287 21.3735 64.2525 20.1694 63.9012C18.9654 63.5498 18.5235 62.1032 19.3205 61.1219L21.4818 58.4605C21.7253 58.1606 22.2092 58.3018 22.2374 58.6809Z" fill="url(#paint13_linear_208_3606)" stroke="url(#paint14_linear_208_3606)" stroke-width="2"/>
<path d="M32.626 58.6809L32.8765 62.0461C32.9689 63.287 31.7621 64.2525 30.5581 63.9012C29.3541 63.5498 28.9122 62.1032 29.7091 61.1219L31.8705 58.4605C32.1139 58.1606 32.5978 58.3018 32.626 58.6809Z" fill="url(#paint15_linear_208_3606)" stroke="url(#paint16_linear_208_3606)" stroke-width="2"/>
</g>
<defs>
<filter id="filter0_d_208_3606" x="23.375" y="0.820435" width="33.2303" height="32.2043" filterUnits="userSpaceOnUse" color-interpolation-filters="sRGB">
<feFlood flood-opacity="0" result="BackgroundImageFix"/>
<feColorMatrix in="SourceAlpha" type="matrix" values="0 0 0 0 0 0 0 0 0 0 0 0 0 0 0 0 0 0 127 0" result="hardAlpha"/>
<feOffset dx="-2" dy="-2"/>
<feGaussianBlur stdDeviation="2"/>
<feComposite in2="hardAlpha" operator="out"/>
<feColorMatrix type="matrix" values="0 0 0 0 0.883333 0 0 0 0 0.696287 0 0 0 0 0.033125 0 0 0 0.1 0"/>
<feBlend mode="normal" in2="BackgroundImageFix" result="effect1_dropShadow_208_3606"/>
<feBlend mode="normal" in="SourceGraphic" in2="effect1_dropShadow_208_3606" result="shape"/>
</filter>
<filter id="filter1_f_208_3606" x="-3.6546" y="2.46118" width="78.8881" height="61.4348" filterUnits="userSpaceOnUse" color-interpolation-filters="sRGB">
<feFlood flood-opacity="0" result="BackgroundImageFix"/>
<feBlend mode="normal" in="SourceGraphic" in2="BackgroundImageFix" result="shape"/>
<feGaussianBlur stdDeviation="7" result="effect1_foregroundBlur_208_3606"/>
</filter>
<filter id="filter2_dd_208_3606" x="0" y="11.8971" width="59.8882" height="47.0247" filterUnits="userSpaceOnUse" color-interpolation-filters="sRGB">
<feFlood flood-opacity="0" result="BackgroundImageFix"/>
<feColorMatrix in="SourceAlpha" type="matrix" values="0 0 0 0 0 0 0 0 0 0 0 0 0 0 0 0 0 0 127 0" result="hardAlpha"/>
<feOffset dx="-1" dy="-2"/>
<feGaussianBlur stdDeviation="2"/>
<feComposite in2="hardAlpha" operator="out"/>
<feColorMatrix type="matrix" values="0 0 0 0 0 0 0 0 0 0 0 0 0 0 0 0 0 0 0.05 0"/>
<feBlend mode="normal" in2="BackgroundImageFix" result="effect1_dropShadow_208_3606"/>
<feColorMatrix in="SourceAlpha" type="matrix" values="0 0 0 0 0 0 0 0 0 0 0 0 0 0 0 0 0 0 127 0" result="hardAlpha"/>
<feOffset dy="4"/>
<feGaussianBlur stdDeviation="2"/>
<feComposite in2="hardAlpha" operator="out"/>
<feColorMatrix type="matrix" values="0 0 0 0 0 0 0 0 0 0 0 0 0 0 0 0 0 0 0.15 0"/>
<feBlend mode="normal" in2="effect1_dropShadow_208_3606" result="effect2_dropShadow_208_3606"/>
<feBlend mode="normal" in="SourceGraphic" in2="effect2_dropShadow_208_3606" result="shape"/>
</filter>
<filter id="filter3_bd_208_3606" x="19.2237" y="3.89709" width="64.7763" height="51.8666" filterUnits="userSpaceOnUse" color-interpolation-filters="sRGB">
<feFlood flood-opacity="0" result="BackgroundImageFix"/>
<feGaussianBlur in="BackgroundImageFix" stdDeviation="7"/>
<feComposite in2="SourceAlpha" operator="in" result="effect1_backgroundBlur_208_3606"/>
<feColorMatrix in="SourceAlpha" type="matrix" values="0 0 0 0 0 0 0 0 0 0 0 0 0 0 0 0 0 0 127 0" result="hardAlpha"/>
<feOffset dy="4"/>
<feGaussianBlur stdDeviation="2"/>
<feComposite in2="hardAlpha" operator="out"/>
<feColorMatrix type="matrix" values="0 0 0 0 0 0 0 0 0 0 0 0 0 0 0 0 0 0 0.15 0"/>
<feBlend mode="normal" in2="effect1_backgroundBlur_208_3606" result="effect2_dropShadow_208_3606"/>
<feBlend mode="normal" in="SourceGraphic" in2="effect2_dropShadow_208_3606" result="shape"/>
</filter>
<filter id="filter4_d_208_3606" x="10.6671" y="47.9666" width="38.1798" height="25.002" filterUnits="userSpaceOnUse" color-interpolation-filters="sRGB">
<feFlood flood-opacity="0" result="BackgroundImageFix"/>
<feColorMatrix in="SourceAlpha" type="matrix" values="0 0 0 0 0 0 0 0 0 0 0 0 0 0 0 0 0 0 127 0" result="hardAlpha"/>
<feOffset dy="4"/>
<feGaussianBlur stdDeviation="2"/>
<feComposite in2="hardAlpha" operator="out"/>
<feColorMatrix type="matrix" values="0 0 0 0 0 0 0 0 0 0 0 0 0 0 0 0 0 0 0.15 0"/>
<feBlend mode="normal" in2="BackgroundImageFix" result="effect1_dropShadow_208_3606"/>
<feBlend mode="normal" in="SourceGraphic" in2="effect1_dropShadow_208_3606" result="shape"/>
</filter>
<linearGradient id="paint0_linear_208_3606" x1="41.9901" y1="6.82043" x2="41.9901" y2="31.0248" gradientUnits="userSpaceOnUse">
<stop stop-color="#FFE600"/>
<stop offset="1" stop-color="#FF7A00"/>
</linearGradient>
<linearGradient id="paint1_linear_208_3606" x1="41.9901" y1="6.82043" x2="41.9901" y2="31.0248" gradientUnits="userSpaceOnUse">
<stop stop-color="white"/>
<stop offset="1" stop-color="white" stop-opacity="0"/>
</linearGradient>
<linearGradient id="paint2_linear_208_3606" x1="41.9901" y1="6.82042" x2="41.9901" y2="31.0248" gradientUnits="userSpaceOnUse">
<stop stop-color="#FFD600"/>
<stop offset="1" stop-color="#FF7A00"/>
</linearGradient>
<linearGradient id="paint3_linear_208_3606" x1="30.4441" y1="7.33332" x2="30.4441" y2="55.5369" gradientUnits="userSpaceOnUse">
<stop stop-color="white"/>
<stop offset="1" stop-color="white" stop-opacity="0"/>
</linearGradient>
<linearGradient id="paint4_linear_208_3606" x1="30.4441" y1="17.8971" x2="30.4441" y2="50.9217" gradientUnits="userSpaceOnUse">
<stop stop-color="white"/>
<stop offset="1" stop-color="white" stop-opacity="0"/>
</linearGradient>
<linearGradient id="paint5_linear_208_3606" x1="53.3224" y1="18.615" x2="53.3224" y2="44.4604" gradientUnits="userSpaceOnUse">
<stop stop-color="white"/>
<stop offset="1" stop-color="white" stop-opacity="0"/>
</linearGradient>
<linearGradient id="paint6_linear_208_3606" x1="51.6119" y1="17.8971" x2="51.6119" y2="41.7636" gradientUnits="userSpaceOnUse">
<stop stop-color="white"/>
<stop offset="1" stop-color="white" stop-opacity="0"/>
</linearGradient>
<linearGradient id="paint7_linear_208_3606" x1="19.733" y1="45.7084" x2="16.8512" y2="55.5839" gradientUnits="userSpaceOnUse">
<stop stop-color="#138EFF"/>
<stop offset="1" stop-color="#00E0FF"/>
</linearGradient>
<linearGradient id="paint8_linear_208_3606" x1="19.733" y1="45.7084" x2="16.8512" y2="55.5839" gradientUnits="userSpaceOnUse">
<stop stop-color="white"/>
<stop offset="1" stop-color="white" stop-opacity="0"/>
</linearGradient>
<linearGradient id="paint9_linear_208_3606" x1="32.029" y1="45.7084" x2="29.1472" y2="55.5839" gradientUnits="userSpaceOnUse">
<stop stop-color="#138EFF"/>
<stop offset="1" stop-color="#00E0FF"/>
</linearGradient>
<linearGradient id="paint10_linear_208_3606" x1="32.029" y1="45.7084" x2="29.1472" y2="55.5839" gradientUnits="userSpaceOnUse">
<stop stop-color="white"/>
<stop offset="1" stop-color="white" stop-opacity="0"/>
</linearGradient>
<linearGradient id="paint11_linear_208_3606" x1="44.3249" y1="45.7084" x2="41.4431" y2="55.5839" gradientUnits="userSpaceOnUse">
<stop stop-color="#138EFF"/>
<stop offset="1" stop-color="#00E0FF"/>
</linearGradient>
<linearGradient id="paint12_linear_208_3606" x1="44.3249" y1="45.7084" x2="41.4431" y2="55.5839" gradientUnits="userSpaceOnUse">
<stop stop-color="white"/>
<stop offset="1" stop-color="white" stop-opacity="0"/>
</linearGradient>
<linearGradient id="paint13_linear_208_3606" x1="22.9773" y1="55.0455" x2="20.0955" y2="64.921" gradientUnits="userSpaceOnUse">
<stop stop-color="#138EFF"/>
<stop offset="1" stop-color="#00E0FF"/>
</linearGradient>
<linearGradient id="paint14_linear_208_3606" x1="22.9773" y1="55.0455" x2="20.0955" y2="64.921" gradientUnits="userSpaceOnUse">
<stop stop-color="white"/>
<stop offset="1" stop-color="white" stop-opacity="0"/>
</linearGradient>
<linearGradient id="paint15_linear_208_3606" x1="33.366" y1="55.0455" x2="30.4842" y2="64.921" gradientUnits="userSpaceOnUse">
<stop stop-color="#138EFF"/>
<stop offset="1" stop-color="#00E0FF"/>
</linearGradient>
<linearGradient id="paint16_linear_208_3606" x1="33.366" y1="55.0455" x2="30.4842" y2="64.921" gradientUnits="userSpaceOnUse">
<stop stop-color="white"/>
<stop offset="1" stop-color="white" stop-opacity="0"/>
</linearGradient>
</defs>
</svg>
