<svg width="137" height="136" viewBox="0 0 137 136" fill="none" xmlns="http://www.w3.org/2000/svg">
<g filter="url(#filter0_bd_208_3492)">
<mask id="path-1-inside-1_208_3492" fill="white">
<path fill-rule="evenodd" clip-rule="evenodd" d="M89.9901 61.4798C90.0175 61.4801 90.0449 61.4803 90.0723 61.4803C93.9783 61.4803 97.1447 58.3139 97.1447 54.4079C97.1447 50.5019 93.9783 47.3355 90.0723 47.3355C90.0449 47.3355 90.0175 47.3357 89.9901 47.336V47.3355H88.1631C88.2291 46.8515 88.2631 46.3574 88.2631 45.8553C88.2631 39.8601 83.4031 35 77.4079 35C71.4127 35 66.5526 39.8601 66.5526 45.8553C66.5526 46.421 66.5959 46.9765 66.6793 47.5189C66.163 47.3989 65.6251 47.3355 65.0724 47.3355C61.1664 47.3355 58 50.5019 58 54.4079C58 58.3139 61.1664 61.4803 65.0724 61.4803C65.0999 61.4803 65.1275 61.4801 65.155 61.4798L65.1546 61.4803H89.9901V61.4798Z"/>
</mask>
<path fill-rule="evenodd" clip-rule="evenodd" d="M89.9901 61.4798C90.0175 61.4801 90.0449 61.4803 90.0723 61.4803C93.9783 61.4803 97.1447 58.3139 97.1447 54.4079C97.1447 50.5019 93.9783 47.3355 90.0723 47.3355C90.0449 47.3355 90.0175 47.3357 89.9901 47.336V47.3355H88.1631C88.2291 46.8515 88.2631 46.3574 88.2631 45.8553C88.2631 39.8601 83.4031 35 77.4079 35C71.4127 35 66.5526 39.8601 66.5526 45.8553C66.5526 46.421 66.5959 46.9765 66.6793 47.5189C66.163 47.3989 65.6251 47.3355 65.0724 47.3355C61.1664 47.3355 58 50.5019 58 54.4079C58 58.3139 61.1664 61.4803 65.0724 61.4803C65.0999 61.4803 65.1275 61.4801 65.155 61.4798L65.1546 61.4803H89.9901V61.4798Z" fill="url(#paint0_linear_208_3492)" shape-rendering="crispEdges"/>
<path d="M89.9901 61.4798L90.0128 59.4799C89.4785 59.4739 88.964 59.6819 88.584 60.0576C88.204 60.4333 87.9901 60.9454 87.9901 61.4798H89.9901ZM89.9901 47.336H87.9901C87.9901 47.8704 88.204 48.3825 88.584 48.7582C88.964 49.134 89.4786 49.342 90.0129 49.3359L89.9901 47.336ZM89.9901 47.3355H91.9901C91.9901 46.231 91.0947 45.3355 89.9901 45.3355V47.3355ZM88.1631 47.3355L86.1814 47.0653C86.1034 47.6376 86.2765 48.2156 86.6563 48.6507C87.0362 49.0859 87.5855 49.3355 88.1631 49.3355V47.3355ZM66.6793 47.5189L66.2267 49.467C66.8732 49.6172 67.5522 49.4369 68.039 48.9856C68.5258 48.5343 68.757 47.8709 68.6561 47.2149L66.6793 47.5189ZM65.155 61.4798L66.7264 62.717C67.2028 62.1119 67.2894 61.287 66.9492 60.5961C66.6089 59.9052 65.9022 59.4711 65.1321 59.4799L65.155 61.4798ZM65.1546 61.4803L63.5832 60.2431C63.1093 60.8449 63.0209 61.6646 63.3554 62.3537C63.6899 63.0428 64.3886 63.4803 65.1546 63.4803V61.4803ZM89.9901 61.4803V63.4803C91.0947 63.4803 91.9901 62.5848 91.9901 61.4803H89.9901ZM89.9674 63.4797C90.0023 63.4801 90.0373 63.4803 90.0723 63.4803V59.4803C90.0525 59.4803 90.0327 59.4802 90.0128 59.4799L89.9674 63.4797ZM90.0723 63.4803C95.0829 63.4803 99.1447 59.4184 99.1447 54.4079H95.1447C95.1447 57.2093 92.8737 59.4803 90.0723 59.4803V63.4803ZM99.1447 54.4079C99.1447 49.3974 95.0829 45.3355 90.0723 45.3355V49.3355C92.8737 49.3355 95.1447 51.6065 95.1447 54.4079H99.1447ZM90.0723 45.3355C90.0373 45.3355 90.0023 45.3357 89.9673 45.3361L90.0129 49.3359C90.0327 49.3356 90.0525 49.3355 90.0723 49.3355V45.3355ZM87.9901 47.3355V47.336H91.9901V47.3355H87.9901ZM88.1631 49.3355H89.9901V45.3355H88.1631V49.3355ZM90.1447 47.6057C90.2229 47.0324 90.2631 46.448 90.2631 45.8553H86.2631C86.2631 46.2667 86.2352 46.6706 86.1814 47.0653L90.1447 47.6057ZM90.2631 45.8553C90.2631 38.7555 84.5076 33 77.4079 33V37C82.2985 37 86.2631 40.9646 86.2631 45.8553H90.2631ZM77.4079 33C70.3081 33 64.5526 38.7555 64.5526 45.8553H68.5526C68.5526 40.9646 72.5173 37 77.4079 37V33ZM64.5526 45.8553C64.5526 46.5231 64.6037 47.1803 64.7025 47.8229L68.6561 47.2149C68.5881 46.7728 68.5526 46.3188 68.5526 45.8553H64.5526ZM67.1319 45.5708C66.4683 45.4166 65.7785 45.3355 65.0724 45.3355V49.3355C65.4717 49.3355 65.8578 49.3813 66.2267 49.467L67.1319 45.5708ZM65.0724 45.3355C60.0618 45.3355 56 49.3974 56 54.4079H60C60 51.6065 62.271 49.3355 65.0724 49.3355V45.3355ZM56 54.4079C56 59.4184 60.0618 63.4803 65.0724 63.4803V59.4803C62.271 59.4803 60 57.2093 60 54.4079H56ZM65.0724 63.4803C65.1076 63.4803 65.1428 63.4801 65.1779 63.4797L65.1321 59.4799C65.1122 59.4802 65.0923 59.4803 65.0724 59.4803V63.4803ZM66.726 62.7175L66.7264 62.717L63.5835 60.2426L63.5832 60.2431L66.726 62.7175ZM89.9901 59.4803H65.1546V63.4803H89.9901V59.4803ZM87.9901 61.4798V61.4803H91.9901V61.4798H87.9901Z" fill="url(#paint1_linear_208_3492)" mask="url(#path-1-inside-1_208_3492)"/>
</g>
<g filter="url(#filter1_bd_208_3492)">
<mask id="path-3-inside-2_208_3492" fill="white">
<path fill-rule="evenodd" clip-rule="evenodd" d="M102.829 54.1367C102.849 54.1369 102.869 54.137 102.889 54.137C105.712 54.137 108 51.8487 108 49.0259C108 46.2031 105.712 43.9147 102.889 43.9147C102.869 43.9147 102.849 43.9149 102.829 43.9151V43.9147H101.509C101.557 43.565 101.581 43.2079 101.581 42.845C101.581 38.5123 98.0691 35 93.7364 35C89.4037 35 85.8914 38.5123 85.8914 42.845C85.8914 43.2538 85.9227 43.6553 85.983 44.0473C85.6099 43.9606 85.2211 43.9147 84.8216 43.9147C81.9988 43.9147 79.7105 46.2031 79.7105 49.0259C79.7105 51.8487 81.9988 54.137 84.8216 54.137C84.8416 54.137 84.8615 54.1369 84.8813 54.1367L84.8811 54.137H102.829V54.1367Z"/>
</mask>
<path fill-rule="evenodd" clip-rule="evenodd" d="M102.829 54.1367C102.849 54.1369 102.869 54.137 102.889 54.137C105.712 54.137 108 51.8487 108 49.0259C108 46.2031 105.712 43.9147 102.889 43.9147C102.869 43.9147 102.849 43.9149 102.829 43.9151V43.9147H101.509C101.557 43.565 101.581 43.2079 101.581 42.845C101.581 38.5123 98.0691 35 93.7364 35C89.4037 35 85.8914 38.5123 85.8914 42.845C85.8914 43.2538 85.9227 43.6553 85.983 44.0473C85.6099 43.9606 85.2211 43.9147 84.8216 43.9147C81.9988 43.9147 79.7105 46.2031 79.7105 49.0259C79.7105 51.8487 81.9988 54.137 84.8216 54.137C84.8416 54.137 84.8615 54.1369 84.8813 54.1367L84.8811 54.137H102.829V54.1367Z" fill="url(#paint2_linear_208_3492)" shape-rendering="crispEdges"/>
<path d="M102.829 54.1367L102.852 52.1368C102.318 52.1307 101.803 52.3387 101.423 52.7144C101.043 53.0901 100.829 53.6023 100.829 54.1367H102.829ZM102.829 43.9151H100.829C100.829 44.4495 101.043 44.9616 101.423 45.3373C101.803 45.7131 102.318 45.9211 102.852 45.915L102.829 43.9151ZM102.829 43.9147H104.829C104.829 42.8102 103.934 41.9147 102.829 41.9147V43.9147ZM101.509 43.9147L99.5274 43.6445C99.4494 44.2168 99.6225 44.7949 100.002 45.23C100.382 45.6651 100.932 45.9147 101.509 45.9147V43.9147ZM85.983 44.0473L85.5303 45.9954C86.1769 46.1456 86.8559 45.9652 87.3427 45.514C87.8295 45.0627 88.0606 44.3993 87.9597 43.7432L85.983 44.0473ZM84.8813 54.1367L86.4514 55.3756C86.9287 54.7707 87.0161 53.9454 86.676 53.254C86.336 52.5626 85.6289 52.128 84.8585 52.1368L84.8813 54.1367ZM84.8811 54.137L83.311 52.8981C82.8362 53.4997 82.747 54.3197 83.0813 55.0094C83.4156 55.699 84.1147 56.137 84.8811 56.137V54.137ZM102.829 54.137V56.137C103.934 56.137 104.829 55.2416 104.829 54.137H102.829ZM102.807 56.1365C102.834 56.1368 102.861 56.137 102.889 56.137V52.137C102.877 52.137 102.864 52.1369 102.852 52.1368L102.807 56.1365ZM102.889 56.137C106.816 56.137 110 52.9532 110 49.0259H106C106 50.7441 104.607 52.137 102.889 52.137V56.137ZM110 49.0259C110 45.0985 106.816 41.9147 102.889 41.9147V45.9147C104.607 45.9147 106 47.3076 106 49.0259H110ZM102.889 41.9147C102.861 41.9147 102.834 41.9149 102.807 41.9152L102.852 45.915C102.864 45.9148 102.877 45.9147 102.889 45.9147V41.9147ZM100.829 43.9147V43.9151H104.829V43.9147H100.829ZM101.509 45.9147H102.829V41.9147H101.509V45.9147ZM103.491 44.1849C103.551 43.7459 103.581 43.2985 103.581 42.845H99.5814C99.5814 43.1172 99.5629 43.3841 99.5274 43.6445L103.491 44.1849ZM103.581 42.845C103.581 37.4077 99.1736 33 93.7364 33V37C96.9645 37 99.5814 39.6169 99.5814 42.845H103.581ZM93.7364 33C88.2992 33 83.8914 37.4077 83.8914 42.845H87.8914C87.8914 39.6169 90.5083 37 93.7364 37V33ZM83.8914 42.845C83.8914 43.3559 83.9305 43.8591 84.0062 44.3513L87.9597 43.7432C87.9149 43.4515 87.8914 43.1517 87.8914 42.845H83.8914ZM86.4356 42.0992C85.9152 41.9782 85.3746 41.9147 84.8216 41.9147V45.9147C85.0677 45.9147 85.3046 45.9429 85.5303 45.9954L86.4356 42.0992ZM84.8216 41.9147C80.8943 41.9147 77.7105 45.0985 77.7105 49.0259H81.7105C81.7105 47.3076 83.1034 45.9147 84.8216 45.9147V41.9147ZM77.7105 49.0259C77.7105 52.9532 80.8943 56.137 84.8216 56.137V52.137C83.1034 52.137 81.7105 50.7441 81.7105 49.0259H77.7105ZM84.8216 56.137C84.8492 56.137 84.8767 56.1368 84.9042 56.1365L84.8585 52.1368C84.8462 52.1369 84.8339 52.137 84.8216 52.137V56.137ZM86.4511 55.3759L86.4514 55.3756L83.3113 52.8977L83.311 52.8981L86.4511 55.3759ZM102.829 52.137H84.8811V56.137H102.829V52.137ZM100.829 54.1367V54.137H104.829V54.1367H100.829Z" fill="url(#paint3_linear_208_3492)" mask="url(#path-3-inside-2_208_3492)"/>
</g>
<g filter="url(#filter2_bdd_208_3492)">
<path d="M74.2361 57.6023C74.2639 57.5667 74.2847 57.5587 74.2968 57.5553C74.3148 57.5501 74.3427 57.5484 74.3751 57.5583C74.4076 57.5682 74.4298 57.5851 74.4419 57.5994C74.45 57.609 74.4629 57.6272 74.4661 57.6723L74.6591 60.3751C74.7175 61.1932 73.9374 61.8156 73.1527 61.5769C72.3681 61.3382 72.0667 60.3869 72.5707 59.7399L74.2361 57.6023Z" fill="url(#paint4_linear_208_3492)" stroke="url(#paint5_linear_208_3492)" stroke-width="2"/>
<path d="M83.6946 57.6023C83.7224 57.5667 83.7432 57.5587 83.7553 57.5553C83.7733 57.5501 83.8012 57.5484 83.8336 57.5583C83.8661 57.5682 83.8883 57.5851 83.9004 57.5994C83.9085 57.609 83.9214 57.6272 83.9246 57.6723L84.1176 60.3751C84.176 61.1932 83.3959 61.8156 82.6112 61.5769C81.8266 61.3382 81.5252 60.3869 82.0292 59.7399L83.6946 57.6023Z" fill="url(#paint6_linear_208_3492)" stroke="url(#paint7_linear_208_3492)" stroke-width="2"/>
<path d="M93.153 57.6023C93.1808 57.5667 93.2016 57.5587 93.2137 57.5553C93.2317 57.5501 93.2596 57.5484 93.292 57.5583C93.3245 57.5682 93.3467 57.5851 93.3588 57.5994C93.3669 57.609 93.3798 57.6272 93.383 57.6723L93.576 60.3751C93.6344 61.1932 92.8543 61.8156 92.0697 61.5769C91.285 61.3382 90.9836 60.3869 91.4877 59.7399L93.153 57.6023Z" fill="url(#paint8_linear_208_3492)" stroke="url(#paint9_linear_208_3492)" stroke-width="2"/>
</g>
<g filter="url(#filter3_bdd_208_3492)">
<path d="M76.7317 65.0892C76.7595 65.0536 76.7804 65.0456 76.7924 65.0421C76.8104 65.037 76.8383 65.0353 76.8708 65.0452C76.9032 65.055 76.9255 65.072 76.9376 65.0863C76.9456 65.0959 76.9585 65.1141 76.9617 65.1592L77.1547 67.862C77.2132 68.6801 76.433 69.3024 75.6484 69.0638C74.8637 68.8251 74.5623 67.8737 75.0664 67.2268L76.7317 65.0892Z" fill="url(#paint10_linear_208_3492)" stroke="url(#paint11_linear_208_3492)" stroke-width="2"/>
<path d="M84.7229 65.0892C84.7507 65.0536 84.7716 65.0456 84.7836 65.0421C84.8016 65.037 84.8295 65.0353 84.862 65.0452C84.8944 65.055 84.9167 65.072 84.9288 65.0863C84.9368 65.0959 84.9497 65.1141 84.953 65.1592L85.146 67.862C85.2044 68.6801 84.4243 69.3024 83.6396 69.0638C82.855 68.8251 82.5535 67.8737 83.0576 67.2268L84.7229 65.0892Z" fill="url(#paint12_linear_208_3492)" stroke="url(#paint13_linear_208_3492)" stroke-width="2"/>
</g>
<defs>
<filter id="filter0_bd_208_3492" x="33" y="21" width="79.1447" height="66.4803" filterUnits="userSpaceOnUse" color-interpolation-filters="sRGB">
<feFlood flood-opacity="0" result="BackgroundImageFix"/>
<feGaussianBlur in="BackgroundImageFix" stdDeviation="5"/>
<feComposite in2="SourceAlpha" operator="in" result="effect1_backgroundBlur_208_3492"/>
<feColorMatrix in="SourceAlpha" type="matrix" values="0 0 0 0 0 0 0 0 0 0 0 0 0 0 0 0 0 0 127 0" result="hardAlpha"/>
<feOffset dx="-5" dy="6"/>
<feGaussianBlur stdDeviation="10"/>
<feComposite in2="hardAlpha" operator="out"/>
<feColorMatrix type="matrix" values="0 0 0 0 0.113725 0 0 0 0 0.14902 0 0 0 0 0.27451 0 0 0 0.15 0"/>
<feBlend mode="normal" in2="effect1_backgroundBlur_208_3492" result="effect2_dropShadow_208_3492"/>
<feBlend mode="normal" in="SourceGraphic" in2="effect2_dropShadow_208_3492" result="shape"/>
</filter>
<filter id="filter1_bd_208_3492" x="8.71051" y="0" width="128.289" height="119.137" filterUnits="userSpaceOnUse" color-interpolation-filters="sRGB">
<feFlood flood-opacity="0" result="BackgroundImageFix"/>
<feGaussianBlur in="BackgroundImageFix" stdDeviation="5"/>
<feComposite in2="SourceAlpha" operator="in" result="effect1_backgroundBlur_208_3492"/>
<feColorMatrix in="SourceAlpha" type="matrix" values="0 0 0 0 0 0 0 0 0 0 0 0 0 0 0 0 0 0 127 0" result="hardAlpha"/>
<feOffset dx="-21" dy="15"/>
<feGaussianBlur stdDeviation="25"/>
<feComposite in2="hardAlpha" operator="out"/>
<feColorMatrix type="matrix" values="0 0 0 0 0.113438 0 0 0 0 0.148981 0 0 0 0 0.275 0 0 0 0.25 0"/>
<feBlend mode="normal" in2="effect1_backgroundBlur_208_3492" result="effect2_dropShadow_208_3492"/>
<feBlend mode="normal" in="SourceGraphic" in2="effect2_dropShadow_208_3492" result="shape"/>
</filter>
<filter id="filter2_bdd_208_3492" x="0.322632" y="8.55115" width="135.257" height="119.078" filterUnits="userSpaceOnUse" color-interpolation-filters="sRGB">
<feFlood flood-opacity="0" result="BackgroundImageFix"/>
<feGaussianBlur in="BackgroundImageFix" stdDeviation="7"/>
<feComposite in2="SourceAlpha" operator="in" result="effect1_backgroundBlur_208_3492"/>
<feColorMatrix in="SourceAlpha" type="matrix" values="0 0 0 0 0 0 0 0 0 0 0 0 0 0 0 0 0 0 127 0" result="hardAlpha"/>
<feOffset dx="-21" dy="15"/>
<feGaussianBlur stdDeviation="25"/>
<feComposite in2="hardAlpha" operator="out"/>
<feColorMatrix type="matrix" values="0 0 0 0 0.113438 0 0 0 0 0.148981 0 0 0 0 0.275 0 0 0 0.25 0"/>
<feBlend mode="normal" in2="effect1_backgroundBlur_208_3492" result="effect2_dropShadow_208_3492"/>
<feColorMatrix in="SourceAlpha" type="matrix" values="0 0 0 0 0 0 0 0 0 0 0 0 0 0 0 0 0 0 127 0" result="hardAlpha"/>
<feOffset dy="-7"/>
<feGaussianBlur stdDeviation="20.5"/>
<feComposite in2="hardAlpha" operator="out"/>
<feColorMatrix type="matrix" values="0 0 0 0 0.1375 0 0 0 0 0.74125 0 0 0 0 1 0 0 0 0.3 0"/>
<feBlend mode="normal" in2="effect2_dropShadow_208_3492" result="effect3_dropShadow_208_3492"/>
<feBlend mode="normal" in="SourceGraphic" in2="effect3_dropShadow_208_3492" result="shape"/>
</filter>
<filter id="filter3_bdd_208_3492" x="2.8183" y="16.038" width="124.331" height="119.078" filterUnits="userSpaceOnUse" color-interpolation-filters="sRGB">
<feFlood flood-opacity="0" result="BackgroundImageFix"/>
<feGaussianBlur in="BackgroundImageFix" stdDeviation="7"/>
<feComposite in2="SourceAlpha" operator="in" result="effect1_backgroundBlur_208_3492"/>
<feColorMatrix in="SourceAlpha" type="matrix" values="0 0 0 0 0 0 0 0 0 0 0 0 0 0 0 0 0 0 127 0" result="hardAlpha"/>
<feOffset dx="-21" dy="15"/>
<feGaussianBlur stdDeviation="25"/>
<feComposite in2="hardAlpha" operator="out"/>
<feColorMatrix type="matrix" values="0 0 0 0 0.113438 0 0 0 0 0.148981 0 0 0 0 0.275 0 0 0 0.25 0"/>
<feBlend mode="normal" in2="effect1_backgroundBlur_208_3492" result="effect2_dropShadow_208_3492"/>
<feColorMatrix in="SourceAlpha" type="matrix" values="0 0 0 0 0 0 0 0 0 0 0 0 0 0 0 0 0 0 127 0" result="hardAlpha"/>
<feOffset dy="-7"/>
<feGaussianBlur stdDeviation="20.5"/>
<feComposite in2="hardAlpha" operator="out"/>
<feColorMatrix type="matrix" values="0 0 0 0 0.1375 0 0 0 0 0.74125 0 0 0 0 1 0 0 0 0.3 0"/>
<feBlend mode="normal" in2="effect2_dropShadow_208_3492" result="effect3_dropShadow_208_3492"/>
<feBlend mode="normal" in="SourceGraphic" in2="effect3_dropShadow_208_3492" result="shape"/>
</filter>
<linearGradient id="paint0_linear_208_3492" x1="77.5724" y1="26.5296" x2="77.5724" y2="65.1809" gradientUnits="userSpaceOnUse">
<stop stop-color="white"/>
<stop offset="1" stop-color="white" stop-opacity="0"/>
</linearGradient>
<linearGradient id="paint1_linear_208_3492" x1="77.5724" y1="35" x2="77.5724" y2="61.4803" gradientUnits="userSpaceOnUse">
<stop stop-color="white"/>
<stop offset="1" stop-color="white" stop-opacity="0"/>
</linearGradient>
<linearGradient id="paint2_linear_208_3492" x1="95.171" y1="35.5757" x2="95.171" y2="56.2993" gradientUnits="userSpaceOnUse">
<stop stop-color="white"/>
<stop offset="1" stop-color="white" stop-opacity="0"/>
</linearGradient>
<linearGradient id="paint3_linear_208_3492" x1="93.8553" y1="35" x2="93.8553" y2="54.137" gradientUnits="userSpaceOnUse">
<stop stop-color="white"/>
<stop offset="1" stop-color="white" stop-opacity="0"/>
</linearGradient>
<linearGradient id="paint4_linear_208_3492" x1="75.2541" y1="54.6685" x2="72.8617" y2="62.5336" gradientUnits="userSpaceOnUse">
<stop stop-color="#138EFF"/>
<stop offset="1" stop-color="#00E0FF"/>
</linearGradient>
<linearGradient id="paint5_linear_208_3492" x1="75.2541" y1="54.6685" x2="72.8617" y2="62.5336" gradientUnits="userSpaceOnUse">
<stop stop-color="white"/>
<stop offset="1" stop-color="white" stop-opacity="0"/>
</linearGradient>
<linearGradient id="paint6_linear_208_3492" x1="84.7126" y1="54.6685" x2="82.3202" y2="62.5336" gradientUnits="userSpaceOnUse">
<stop stop-color="#138EFF"/>
<stop offset="1" stop-color="#00E0FF"/>
</linearGradient>
<linearGradient id="paint7_linear_208_3492" x1="84.7126" y1="54.6685" x2="82.3202" y2="62.5336" gradientUnits="userSpaceOnUse">
<stop stop-color="white"/>
<stop offset="1" stop-color="white" stop-opacity="0"/>
</linearGradient>
<linearGradient id="paint8_linear_208_3492" x1="94.1711" y1="54.6685" x2="91.7786" y2="62.5336" gradientUnits="userSpaceOnUse">
<stop stop-color="#138EFF"/>
<stop offset="1" stop-color="#00E0FF"/>
</linearGradient>
<linearGradient id="paint9_linear_208_3492" x1="94.1711" y1="54.6685" x2="91.7786" y2="62.5336" gradientUnits="userSpaceOnUse">
<stop stop-color="white"/>
<stop offset="1" stop-color="white" stop-opacity="0"/>
</linearGradient>
<linearGradient id="paint10_linear_208_3492" x1="77.7498" y1="62.1554" x2="75.3574" y2="70.0205" gradientUnits="userSpaceOnUse">
<stop stop-color="#138EFF"/>
<stop offset="1" stop-color="#00E0FF"/>
</linearGradient>
<linearGradient id="paint11_linear_208_3492" x1="77.7498" y1="62.1554" x2="75.3574" y2="70.0205" gradientUnits="userSpaceOnUse">
<stop stop-color="white"/>
<stop offset="1" stop-color="white" stop-opacity="0"/>
</linearGradient>
<linearGradient id="paint12_linear_208_3492" x1="85.741" y1="62.1554" x2="83.3486" y2="70.0205" gradientUnits="userSpaceOnUse">
<stop stop-color="#138EFF"/>
<stop offset="1" stop-color="#00E0FF"/>
</linearGradient>
<linearGradient id="paint13_linear_208_3492" x1="85.741" y1="62.1554" x2="83.3486" y2="70.0205" gradientUnits="userSpaceOnUse">
<stop stop-color="white"/>
<stop offset="1" stop-color="white" stop-opacity="0"/>
</linearGradient>
</defs>
</svg>
