<svg width="110" height="82" viewBox="0 0 110 82" fill="none" xmlns="http://www.w3.org/2000/svg">
<g filter="url(#filter0_bd_208_3645)">
<mask id="path-1-inside-1_208_3645" fill="white">
<path fill-rule="evenodd" clip-rule="evenodd" d="M60.4307 31.9115C60.4481 31.9117 60.4657 31.9118 60.4832 31.9118C62.9777 31.9118 65 29.8895 65 27.395C65 24.9004 62.9777 22.8781 60.4832 22.8781C60.4657 22.8781 60.4481 22.8782 60.4307 22.8784V22.8781H59.2638C59.306 22.569 59.3277 22.2535 59.3277 21.9328C59.3277 18.1039 56.2238 15 52.395 15C48.5661 15 45.4622 18.1039 45.4622 21.9328C45.4622 22.2941 45.4898 22.6489 45.5431 22.9952C45.2134 22.9186 44.8698 22.8781 44.5168 22.8781C42.0222 22.8781 40 24.9004 40 27.395C40 29.8895 42.0222 31.9118 44.5168 31.9118C44.5344 31.9118 44.552 31.9117 44.5696 31.9115L44.5693 31.9118H60.4307V31.9115Z"/>
</mask>
<path fill-rule="evenodd" clip-rule="evenodd" d="M60.4307 31.9115C60.4481 31.9117 60.4657 31.9118 60.4832 31.9118C62.9777 31.9118 65 29.8895 65 27.395C65 24.9004 62.9777 22.8781 60.4832 22.8781C60.4657 22.8781 60.4481 22.8782 60.4307 22.8784V22.8781H59.2638C59.306 22.569 59.3277 22.2535 59.3277 21.9328C59.3277 18.1039 56.2238 15 52.395 15C48.5661 15 45.4622 18.1039 45.4622 21.9328C45.4622 22.2941 45.4898 22.6489 45.5431 22.9952C45.2134 22.9186 44.8698 22.8781 44.5168 22.8781C42.0222 22.8781 40 24.9004 40 27.395C40 29.8895 42.0222 31.9118 44.5168 31.9118C44.5344 31.9118 44.552 31.9117 44.5696 31.9115L44.5693 31.9118H60.4307V31.9115Z" fill="url(#paint0_linear_208_3645)" shape-rendering="crispEdges"/>
<path d="M60.4307 31.9115L60.4534 29.9116C59.919 29.9055 59.4045 30.1135 59.0245 30.4892C58.6445 30.865 58.4307 31.3771 58.4307 31.9115H60.4307ZM60.4307 22.8784H58.4307C58.4307 23.4128 58.6445 23.925 59.0245 24.3007C59.4045 24.6764 59.9191 24.8844 60.4535 24.8783L60.4307 22.8784ZM60.4307 22.8781H62.4307C62.4307 21.7736 61.5352 20.8781 60.4307 20.8781V22.8781ZM59.2638 22.8781L57.2822 22.6079C57.2041 23.1802 57.3773 23.7583 57.7571 24.1934C58.1369 24.6285 58.6863 24.8781 59.2638 24.8781V22.8781ZM45.5431 22.9952L45.0905 24.9434C45.737 25.0936 46.416 24.9132 46.9028 24.462C47.3896 24.0107 47.6207 23.3473 47.5198 22.6912L45.5431 22.9952ZM44.5696 31.9115L46.1393 33.1508C46.6168 32.546 46.7044 31.7206 46.3644 31.0291C46.0244 30.3375 45.3173 29.9028 44.5467 29.9116L44.5696 31.9115ZM44.5693 31.9118L42.9996 30.6724C42.5246 31.274 42.4352 32.0941 42.7695 32.7839C43.1037 33.4737 43.8028 33.9118 44.5693 33.9118V31.9118ZM60.4307 31.9118V33.9118C61.5352 33.9118 62.4307 33.0163 62.4307 31.9118H60.4307ZM60.408 33.9113C60.4329 33.9116 60.458 33.9118 60.4832 33.9118V29.9118C60.4733 29.9118 60.4634 29.9117 60.4534 29.9116L60.408 33.9113ZM60.4832 33.9118C64.0823 33.9118 67 30.9941 67 27.395H63C63 28.7849 61.8732 29.9118 60.4832 29.9118V33.9118ZM67 27.395C67 23.7958 64.0823 20.8781 60.4832 20.8781V24.8781C61.8732 24.8781 63 26.005 63 27.395H67ZM60.4832 20.8781C60.4581 20.8781 60.433 20.8783 60.4079 20.8786L60.4535 24.8783C60.4633 24.8782 60.4732 24.8781 60.4832 24.8781V20.8781ZM58.4307 22.8781V22.8784H62.4307V22.8781H58.4307ZM59.2638 24.8781H60.4307V20.8781H59.2638V24.8781ZM61.2455 23.1483C61.2998 22.7499 61.3277 22.3441 61.3277 21.9328H57.3277C57.3277 22.1628 57.3121 22.3881 57.2822 22.6079L61.2455 23.1483ZM61.3277 21.9328C61.3277 16.9993 57.3284 13 52.395 13V17C55.1193 17 57.3277 19.2085 57.3277 21.9328H61.3277ZM52.395 13C47.4615 13 43.4622 16.9993 43.4622 21.9328H47.4622C47.4622 19.2085 49.6707 17 52.395 17V13ZM43.4622 21.9328C43.4622 22.3962 43.4976 22.8526 43.5663 23.2993L47.5198 22.6912C47.482 22.4451 47.4622 22.1919 47.4622 21.9328H43.4622ZM45.9957 21.0471C45.5187 20.9363 45.0233 20.8781 44.5168 20.8781V24.8781C44.7164 24.8781 44.9081 24.901 45.0905 24.9434L45.9957 21.0471ZM44.5168 20.8781C40.9177 20.8781 38 23.7958 38 27.395H42C42 26.005 43.1268 24.8781 44.5168 24.8781V20.8781ZM38 27.395C38 30.9941 40.9177 33.9118 44.5168 33.9118V29.9118C43.1268 29.9118 42 28.7849 42 27.395H38ZM44.5168 33.9118C44.5421 33.9118 44.5673 33.9116 44.5924 33.9113L44.5467 29.9116C44.5367 29.9117 44.5268 29.9118 44.5168 29.9118V33.9118ZM46.139 33.1511L46.1393 33.1508L42.9999 30.6721L42.9996 30.6724L46.139 33.1511ZM60.4307 29.9118H44.5693V33.9118H60.4307V29.9118ZM58.4307 31.9115V31.9118H62.4307V31.9115H58.4307Z" fill="url(#paint1_linear_208_3645)" mask="url(#path-1-inside-1_208_3645)"/>
</g>
<g filter="url(#filter1_bd_208_3645)">
<mask id="path-3-inside-2_208_3645" fill="white">
<path fill-rule="evenodd" clip-rule="evenodd" d="M74.0843 43.4879C74.1085 43.4882 74.1328 43.4884 74.157 43.4884C77.6088 43.4884 80.407 40.6901 80.407 37.2384C80.407 33.7866 77.6088 30.9883 74.157 30.9883C74.1328 30.9883 74.1085 30.9885 74.0843 30.9888V30.9883H72.4697C72.528 30.5606 72.5582 30.1239 72.5582 29.6802C72.5582 24.3821 68.2632 20.0872 62.9651 20.0872C57.6671 20.0872 53.3721 24.3821 53.3721 29.6802C53.3721 30.1801 53.4104 30.6711 53.4841 31.1504C53.0278 31.0444 52.5525 30.9883 52.064 30.9883C48.6122 30.9883 45.814 33.7866 45.814 37.2384C45.814 40.6901 48.6122 43.4884 52.064 43.4884C52.0883 43.4884 52.1127 43.4882 52.137 43.4879L52.1366 43.4884H74.0843V43.4879Z"/>
</mask>
<path fill-rule="evenodd" clip-rule="evenodd" d="M74.0843 43.4879C74.1085 43.4882 74.1328 43.4884 74.157 43.4884C77.6088 43.4884 80.407 40.6901 80.407 37.2384C80.407 33.7866 77.6088 30.9883 74.157 30.9883C74.1328 30.9883 74.1085 30.9885 74.0843 30.9888V30.9883H72.4697C72.528 30.5606 72.5582 30.1239 72.5582 29.6802C72.5582 24.3821 68.2632 20.0872 62.9651 20.0872C57.6671 20.0872 53.3721 24.3821 53.3721 29.6802C53.3721 30.1801 53.4104 30.6711 53.4841 31.1504C53.0278 31.0444 52.5525 30.9883 52.064 30.9883C48.6122 30.9883 45.814 33.7866 45.814 37.2384C45.814 40.6901 48.6122 43.4884 52.064 43.4884C52.0883 43.4884 52.1127 43.4882 52.137 43.4879L52.1366 43.4884H74.0843V43.4879Z" fill="url(#paint2_linear_208_3645)" shape-rendering="crispEdges"/>
<path d="M74.0843 43.4879L74.1072 41.4881C73.5728 41.482 73.0582 41.69 72.6782 42.0657C72.2982 42.4414 72.0843 42.9535 72.0843 43.4879H74.0843ZM74.0843 30.9888H72.0843C72.0843 31.5231 72.2982 32.0353 72.6782 32.411C73.0582 32.7867 73.5728 32.9947 74.1071 32.9886L74.0843 30.9888ZM74.0843 30.9883H76.0843C76.0843 29.8838 75.1889 28.9883 74.0843 28.9883V30.9883ZM72.4697 30.9883L70.4881 30.7181C70.41 31.2904 70.5832 31.8685 70.963 32.3036C71.3428 32.7387 71.8922 32.9883 72.4697 32.9883V30.9883ZM53.4841 31.1504L53.0314 33.0985C53.678 33.2487 54.357 33.0684 54.8438 32.6171C55.3306 32.1658 55.5617 31.5024 55.4608 30.8464L53.4841 31.1504ZM52.137 43.4879L53.7072 44.7266C54.1844 44.1217 54.2717 43.2964 53.9316 42.6051C53.5915 41.9137 52.8845 41.4792 52.1141 41.4881L52.137 43.4879ZM52.1366 43.4884L50.5664 42.2497C50.0918 42.8514 50.0027 43.6714 50.337 44.3609C50.6714 45.0505 51.3703 45.4884 52.1366 45.4884V43.4884ZM74.0843 43.4884V45.4884C75.1889 45.4884 76.0843 44.5929 76.0843 43.4884H74.0843ZM74.0615 45.4878C74.0934 45.4882 74.1252 45.4884 74.157 45.4884V41.4884C74.1403 41.4884 74.1237 41.4883 74.1072 41.4881L74.0615 45.4878ZM74.157 45.4884C78.7134 45.4884 82.407 41.7947 82.407 37.2384H78.407C78.407 39.5856 76.5042 41.4884 74.157 41.4884V45.4884ZM82.407 37.2384C82.407 32.682 78.7134 28.9883 74.157 28.9883V32.9883C76.5042 32.9883 78.407 34.8911 78.407 37.2384H82.407ZM74.157 28.9883C74.1252 28.9883 74.0933 28.9885 74.0615 28.9889L74.1071 32.9886C74.1237 32.9884 74.1404 32.9883 74.157 32.9883V28.9883ZM72.0843 30.9883V30.9888H76.0843V30.9883H72.0843ZM72.4697 32.9883H74.0843V28.9883H72.4697V32.9883ZM74.4514 31.2586C74.5219 30.7415 74.5582 30.2146 74.5582 29.6802H70.5582C70.5582 30.0333 70.5342 30.3797 70.4881 30.7181L74.4514 31.2586ZM74.5582 29.6802C74.5582 23.2775 69.3678 18.0872 62.9651 18.0872V22.0872C67.1587 22.0872 70.5582 25.4867 70.5582 29.6802H74.5582ZM62.9651 18.0872C56.5625 18.0872 51.3721 23.2775 51.3721 29.6802H55.3721C55.3721 25.4867 58.7716 22.0872 62.9651 22.0872V18.0872ZM51.3721 29.6802C51.3721 30.2822 51.4182 30.8749 51.5073 31.4544L55.4608 30.8464C55.4025 30.4673 55.3721 30.078 55.3721 29.6802H51.3721ZM53.9367 29.2023C53.3331 29.062 52.7059 28.9883 52.064 28.9883V32.9883C52.399 32.9883 52.7226 33.0267 53.0314 33.0985L53.9367 29.2023ZM52.064 28.9883C47.5076 28.9883 43.814 32.682 43.814 37.2384H47.814C47.814 34.8911 49.7168 32.9883 52.064 32.9883V28.9883ZM43.814 37.2384C43.814 41.7947 47.5076 45.4884 52.064 45.4884V41.4884C49.7168 41.4884 47.814 39.5856 47.814 37.2384H43.814ZM52.064 45.4884C52.096 45.4884 52.1279 45.4882 52.1599 45.4878L52.1141 41.4881C52.0974 41.4883 52.0807 41.4884 52.064 41.4884V45.4884ZM53.7069 44.727L53.7072 44.7266L50.5667 42.2493L50.5664 42.2497L53.7069 44.727ZM74.0843 41.4884H52.1366V45.4884H74.0843V41.4884ZM72.0843 43.4879V43.4884H76.0843V43.4879H72.0843Z" fill="url(#paint3_linear_208_3645)" mask="url(#path-3-inside-2_208_3645)"/>
</g>
<g filter="url(#filter2_bd_208_3645)">
<mask id="path-5-inside-3_208_3645" fill="white">
<path fill-rule="evenodd" clip-rule="evenodd" d="M85.4307 36.9987C85.4482 36.9989 85.4657 36.999 85.4832 36.999C87.9778 36.999 90 34.9767 90 32.4821C90 29.9876 87.9778 27.9653 85.4832 27.9653C85.4657 27.9653 85.4482 27.9654 85.4307 27.9656V27.9653H84.2638C84.306 27.6562 84.3277 27.3406 84.3277 27.0199C84.3277 23.1911 81.2238 20.0872 77.395 20.0872C73.5661 20.0872 70.4622 23.1911 70.4622 27.0199C70.4622 27.3812 70.4898 27.7361 70.5431 28.0824C70.2134 28.0058 69.8698 27.9653 69.5168 27.9653C67.0222 27.9653 65 29.9876 65 32.4821C65 34.9767 67.0222 36.999 69.5168 36.999C69.5344 36.999 69.552 36.9989 69.5696 36.9987L69.5694 36.999H85.4307V36.9987Z"/>
</mask>
<path fill-rule="evenodd" clip-rule="evenodd" d="M85.4307 36.9987C85.4482 36.9989 85.4657 36.999 85.4832 36.999C87.9778 36.999 90 34.9767 90 32.4821C90 29.9876 87.9778 27.9653 85.4832 27.9653C85.4657 27.9653 85.4482 27.9654 85.4307 27.9656V27.9653H84.2638C84.306 27.6562 84.3277 27.3406 84.3277 27.0199C84.3277 23.1911 81.2238 20.0872 77.395 20.0872C73.5661 20.0872 70.4622 23.1911 70.4622 27.0199C70.4622 27.3812 70.4898 27.7361 70.5431 28.0824C70.2134 28.0058 69.8698 27.9653 69.5168 27.9653C67.0222 27.9653 65 29.9876 65 32.4821C65 34.9767 67.0222 36.999 69.5168 36.999C69.5344 36.999 69.552 36.9989 69.5696 36.9987L69.5694 36.999H85.4307V36.9987Z" fill="url(#paint4_linear_208_3645)" shape-rendering="crispEdges"/>
<path d="M85.4307 36.9987L85.4534 34.9988C84.9191 34.9927 84.4045 35.2007 84.0245 35.5764C83.6445 35.9521 83.4307 36.4643 83.4307 36.9987H85.4307ZM85.4307 27.9656H83.4307C83.4307 28.5 83.6446 29.0122 84.0246 29.3879C84.4046 29.7636 84.9191 29.9716 85.4535 29.9655L85.4307 27.9656ZM85.4307 27.9653H87.4307C87.4307 26.8608 86.5353 25.9653 85.4307 25.9653V27.9653ZM84.2638 27.9653L82.2822 27.6951C82.2041 28.2674 82.3773 28.8454 82.7571 29.2806C83.1369 29.7157 83.6863 29.9653 84.2638 29.9653V27.9653ZM70.5431 28.0824L70.0905 30.0305C70.737 30.1808 71.416 30.0004 71.9028 29.5491C72.3896 29.0979 72.6208 28.4345 72.5199 27.7784L70.5431 28.0824ZM69.5696 36.9987L71.1381 38.2396C71.6164 37.6349 71.7047 36.8092 71.3648 36.1171C71.025 35.4251 70.3177 34.99 69.5468 34.9988L69.5696 36.9987ZM69.5694 36.999L68.0009 35.7581C67.5251 36.3595 67.435 37.18 67.7691 37.8702C68.1032 38.5605 68.8025 38.999 69.5694 38.999V36.999ZM85.4307 36.999V38.999C86.5353 38.999 87.4307 38.1035 87.4307 36.999H85.4307ZM85.408 38.9985C85.4329 38.9988 85.458 38.999 85.4832 38.999V34.999C85.4734 34.999 85.4634 34.9989 85.4534 34.9988L85.408 38.9985ZM85.4832 38.999C89.0823 38.999 92 36.0813 92 32.4821H88C88 33.8721 86.8732 34.999 85.4832 34.999V38.999ZM92 32.4821C92 28.883 89.0823 25.9653 85.4832 25.9653V29.9653C86.8732 29.9653 88 31.0922 88 32.4821H92ZM85.4832 25.9653C85.4581 25.9653 85.433 25.9655 85.4079 25.9658L85.4535 29.9655C85.4633 29.9654 85.4733 29.9653 85.4832 29.9653V25.9653ZM83.4307 27.9653V27.9656H87.4307V27.9653H83.4307ZM84.2638 29.9653H85.4307V25.9653H84.2638V29.9653ZM86.2455 28.2355C86.2998 27.8371 86.3277 27.4313 86.3277 27.0199H82.3277C82.3277 27.25 82.3121 27.4753 82.2822 27.6951L86.2455 28.2355ZM86.3277 27.0199C86.3277 22.0865 82.3284 18.0872 77.395 18.0872V22.0872C80.1193 22.0872 82.3277 24.2956 82.3277 27.0199H86.3277ZM77.395 18.0872C72.4615 18.0872 68.4622 22.0865 68.4622 27.0199H72.4622C72.4622 24.2956 74.6707 22.0872 77.395 22.0872V18.0872ZM68.4622 27.0199C68.4622 27.4834 68.4976 27.9398 68.5663 28.3865L72.5199 27.7784C72.482 27.5323 72.4622 27.2791 72.4622 27.0199H68.4622ZM70.9957 26.1343C70.5187 26.0235 70.0233 25.9653 69.5168 25.9653V29.9653C69.7164 29.9653 69.9081 29.9882 70.0905 30.0305L70.9957 26.1343ZM69.5168 25.9653C65.9177 25.9653 63 28.883 63 32.4821H67C67 31.0922 68.1268 29.9653 69.5168 29.9653V25.9653ZM63 32.4821C63 36.0813 65.9177 38.999 69.5168 38.999V34.999C68.1268 34.999 67 33.8721 67 32.4821H63ZM69.5168 38.999C69.5421 38.999 69.5673 38.9988 69.5924 38.9985L69.5468 34.9988C69.5368 34.9989 69.5268 34.999 69.5168 34.999V38.999ZM71.1378 38.2399L71.1381 38.2396L68.0011 35.7578L68.0009 35.7581L71.1378 38.2399ZM85.4307 34.999H69.5694V38.999H85.4307V34.999ZM83.4307 36.9987V36.999H87.4307V36.9987H83.4307Z" fill="url(#paint5_linear_208_3645)" mask="url(#path-5-inside-3_208_3645)"/>
</g>
<defs>
<filter id="filter0_bd_208_3645" x="0" y="0" width="85" height="76.9117" filterUnits="userSpaceOnUse" color-interpolation-filters="sRGB">
<feFlood flood-opacity="0" result="BackgroundImageFix"/>
<feGaussianBlur in="BackgroundImageFix" stdDeviation="5"/>
<feComposite in2="SourceAlpha" operator="in" result="effect1_backgroundBlur_208_3645"/>
<feColorMatrix in="SourceAlpha" type="matrix" values="0 0 0 0 0 0 0 0 0 0 0 0 0 0 0 0 0 0 127 0" result="hardAlpha"/>
<feOffset dx="-10" dy="15"/>
<feGaussianBlur stdDeviation="15"/>
<feComposite in2="hardAlpha" operator="out"/>
<feColorMatrix type="matrix" values="0 0 0 0 0.113438 0 0 0 0 0.148981 0 0 0 0 0.275 0 0 0 0.2 0"/>
<feBlend mode="normal" in2="effect1_backgroundBlur_208_3645" result="effect2_dropShadow_208_3645"/>
<feBlend mode="normal" in="SourceGraphic" in2="effect2_dropShadow_208_3645" result="shape"/>
</filter>
<filter id="filter1_bd_208_3645" x="25.814" y="10.0872" width="64.593" height="54.4012" filterUnits="userSpaceOnUse" color-interpolation-filters="sRGB">
<feFlood flood-opacity="0" result="BackgroundImageFix"/>
<feGaussianBlur in="BackgroundImageFix" stdDeviation="5"/>
<feComposite in2="SourceAlpha" operator="in" result="effect1_backgroundBlur_208_3645"/>
<feColorMatrix in="SourceAlpha" type="matrix" values="0 0 0 0 0 0 0 0 0 0 0 0 0 0 0 0 0 0 127 0" result="hardAlpha"/>
<feOffset dx="-5" dy="6"/>
<feGaussianBlur stdDeviation="7.5"/>
<feComposite in2="hardAlpha" operator="out"/>
<feColorMatrix type="matrix" values="0 0 0 0 0.113725 0 0 0 0 0.14902 0 0 0 0 0.27451 0 0 0 0.1 0"/>
<feBlend mode="normal" in2="effect1_backgroundBlur_208_3645" result="effect2_dropShadow_208_3645"/>
<feBlend mode="normal" in="SourceGraphic" in2="effect2_dropShadow_208_3645" result="shape"/>
</filter>
<filter id="filter2_bd_208_3645" x="25" y="5.08716" width="85" height="76.9117" filterUnits="userSpaceOnUse" color-interpolation-filters="sRGB">
<feFlood flood-opacity="0" result="BackgroundImageFix"/>
<feGaussianBlur in="BackgroundImageFix" stdDeviation="5"/>
<feComposite in2="SourceAlpha" operator="in" result="effect1_backgroundBlur_208_3645"/>
<feColorMatrix in="SourceAlpha" type="matrix" values="0 0 0 0 0 0 0 0 0 0 0 0 0 0 0 0 0 0 127 0" result="hardAlpha"/>
<feOffset dx="-10" dy="15"/>
<feGaussianBlur stdDeviation="15"/>
<feComposite in2="hardAlpha" operator="out"/>
<feColorMatrix type="matrix" values="0 0 0 0 0.113438 0 0 0 0 0.148981 0 0 0 0 0.275 0 0 0 0.25 0"/>
<feBlend mode="normal" in2="effect1_backgroundBlur_208_3645" result="effect2_dropShadow_208_3645"/>
<feBlend mode="normal" in="SourceGraphic" in2="effect2_dropShadow_208_3645" result="shape"/>
</filter>
<linearGradient id="paint0_linear_208_3645" x1="53.6628" y1="15.5087" x2="53.6628" y2="33.8227" gradientUnits="userSpaceOnUse">
<stop stop-color="white"/>
<stop offset="1" stop-color="white" stop-opacity="0"/>
</linearGradient>
<linearGradient id="paint1_linear_208_3645" x1="52.5" y1="15" x2="52.5" y2="31.9118" gradientUnits="userSpaceOnUse">
<stop stop-color="white"/>
<stop offset="1" stop-color="white" stop-opacity="0"/>
</linearGradient>
<linearGradient id="paint2_linear_208_3645" x1="63.1105" y1="12.6017" x2="63.1105" y2="46.7587" gradientUnits="userSpaceOnUse">
<stop stop-color="white"/>
<stop offset="1" stop-color="white" stop-opacity="0"/>
</linearGradient>
<linearGradient id="paint3_linear_208_3645" x1="63.1105" y1="20.0872" x2="63.1105" y2="43.4883" gradientUnits="userSpaceOnUse">
<stop stop-color="white"/>
<stop offset="1" stop-color="white" stop-opacity="0"/>
</linearGradient>
<linearGradient id="paint4_linear_208_3645" x1="78.6628" y1="20.5959" x2="78.6628" y2="38.9098" gradientUnits="userSpaceOnUse">
<stop stop-color="white"/>
<stop offset="1" stop-color="white" stop-opacity="0"/>
</linearGradient>
<linearGradient id="paint5_linear_208_3645" x1="77.5" y1="20.0872" x2="77.5" y2="36.9989" gradientUnits="userSpaceOnUse">
<stop stop-color="white"/>
<stop offset="1" stop-color="white" stop-opacity="0"/>
</linearGradient>
</defs>
</svg>
