<svg width="76" height="56" viewBox="0 0 76 56" fill="none" xmlns="http://www.w3.org/2000/svg">
<g filter="url(#filter0_dd_208_3645)">
<mask id="path-1-inside-1_208_3645" fill="white">
<path fill-rule="evenodd" clip-rule="evenodd" d="M31.7857 30.9323C31.8095 30.9326 31.8333 30.9328 31.8571 30.9328C35.2497 30.9328 38 27.9514 38 24.2737C38 20.596 35.2497 17.6146 31.8571 17.6146C31.8333 17.6146 31.8095 17.6148 31.7857 17.6151V17.6146H30.1988C30.2561 17.1589 30.2857 16.6937 30.2857 16.2209C30.2857 10.576 26.0644 6 20.8571 6C15.6499 6 11.4286 10.576 11.4286 16.2209C11.4286 16.7535 11.4662 17.2766 11.5386 17.7873C11.0902 17.6743 10.623 17.6146 10.1429 17.6146C6.75025 17.6146 4 20.596 4 24.2737C4 27.9514 6.75025 30.9328 10.1429 30.9328C10.1668 30.9328 10.1907 30.9326 10.2146 30.9323L10.2143 30.9328H31.7857V30.9323Z"/>
</mask>
<path fill-rule="evenodd" clip-rule="evenodd" d="M31.7857 30.9323C31.8095 30.9326 31.8333 30.9328 31.8571 30.9328C35.2497 30.9328 38 27.9514 38 24.2737C38 20.596 35.2497 17.6146 31.8571 17.6146C31.8333 17.6146 31.8095 17.6148 31.7857 17.6151V17.6146H30.1988C30.2561 17.1589 30.2857 16.6937 30.2857 16.2209C30.2857 10.576 26.0644 6 20.8571 6C15.6499 6 11.4286 10.576 11.4286 16.2209C11.4286 16.7535 11.4662 17.2766 11.5386 17.7873C11.0902 17.6743 10.623 17.6146 10.1429 17.6146C6.75025 17.6146 4 20.596 4 24.2737C4 27.9514 6.75025 30.9328 10.1429 30.9328C10.1668 30.9328 10.1907 30.9326 10.2146 30.9323L10.2143 30.9328H31.7857V30.9323Z" fill="url(#paint0_linear_208_3645)" shape-rendering="crispEdges"/>
<path d="M31.7857 30.9323L31.8104 28.9325C31.2757 28.9259 30.7607 29.1336 30.3803 29.5094C29.9998 29.8851 29.7857 30.3976 29.7857 30.9323H31.7857ZM31.7857 17.6151H29.7857C29.7857 18.1498 29.9998 18.6622 30.3803 19.038C30.7607 19.4137 31.2757 19.6215 31.8104 19.6149L31.7857 17.6151ZM31.7857 17.6146H33.7857C33.7857 16.5101 32.8903 15.6146 31.7857 15.6146V17.6146ZM30.1988 17.6146L28.2144 17.365C28.1428 17.9345 28.3193 18.5073 28.6989 18.9377C29.0786 19.3681 29.6249 19.6146 30.1988 19.6146V17.6146ZM11.5386 17.7873L11.0501 19.7267C11.6961 19.8894 12.3808 19.7198 12.8761 19.2743C13.3714 18.8288 13.6124 18.1659 13.5188 17.5063L11.5386 17.7873ZM10.2146 30.9323L11.8311 32.11C12.2768 31.4981 12.339 30.6871 11.9916 30.0145C11.6441 29.3419 10.9468 28.9231 10.1898 28.9325L10.2146 30.9323ZM10.2143 30.9328L8.59777 29.7551C8.15464 30.3633 8.09045 31.1688 8.43166 31.8396C8.77287 32.5103 9.46172 32.9328 10.2143 32.9328V30.9328ZM31.7857 30.9328V32.9328C32.8903 32.9328 33.7857 32.0373 33.7857 30.9328H31.7857ZM31.761 32.9322C31.793 32.9326 31.8251 32.9328 31.8571 32.9328V28.9328C31.8415 28.9328 31.8259 28.9327 31.8104 28.9325L31.761 32.9322ZM31.8571 32.9328C36.5032 32.9328 40 28.901 40 24.2737H36C36 27.0018 33.9963 28.9328 31.8571 28.9328V32.9328ZM40 24.2737C40 19.6464 36.5032 15.6146 31.8571 15.6146V19.6146C33.9963 19.6146 36 21.5456 36 24.2737H40ZM31.8571 15.6146C31.8251 15.6146 31.793 15.6148 31.761 15.6152L31.8104 19.6149C31.8259 19.6147 31.8415 19.6146 31.8571 19.6146V15.6146ZM29.7857 17.6146V17.6151H33.7857V17.6146H29.7857ZM30.1988 19.6146H31.7857V15.6146H30.1988V19.6146ZM32.1832 17.8642C32.2509 17.3258 32.2857 16.7772 32.2857 16.2209H28.2857C28.2857 16.6101 28.2614 16.992 28.2144 17.365L32.1832 17.8642ZM32.2857 16.2209C32.2857 9.62648 27.3179 4 20.8571 4V8C24.811 8 28.2857 11.5256 28.2857 16.2209H32.2857ZM20.8571 4C14.3964 4 9.42857 9.62648 9.42857 16.2209H13.4286C13.4286 11.5256 16.9033 8 20.8571 8V4ZM9.42857 16.2209C9.42857 16.8477 9.47281 17.4647 9.55843 18.0682L13.5188 17.5063C13.4595 17.0886 13.4286 16.6594 13.4286 16.2209H9.42857ZM12.0271 15.8478C11.4208 15.6951 10.7896 15.6146 10.1429 15.6146V19.6146C10.4564 19.6146 10.7596 19.6535 11.0501 19.7267L12.0271 15.8478ZM10.1429 15.6146C5.4968 15.6146 2 19.6464 2 24.2737H6C6 21.5456 8.0037 19.6146 10.1429 19.6146V15.6146ZM2 24.2737C2 28.901 5.4968 32.9328 10.1429 32.9328V28.9328C8.0037 28.9328 6 27.0018 6 24.2737H2ZM10.1429 32.9328C10.1751 32.9328 10.2073 32.9326 10.2394 32.9322L10.1898 28.9325C10.1742 28.9327 10.1585 28.9328 10.1429 28.9328V32.9328ZM11.8308 32.1104L11.8311 32.11L8.5981 29.7546L8.59777 29.7551L11.8308 32.1104ZM31.7857 28.9328H10.2143V32.9328H31.7857V28.9328ZM29.7857 30.9323V30.9328H33.7857V30.9323H29.7857Z" fill="url(#paint1_linear_208_3645)" mask="url(#path-1-inside-1_208_3645)"/>
</g>
<g filter="url(#filter1_bdd_208_3645)">
<mask id="path-3-inside-2_208_3645" fill="white">
<path fill-rule="evenodd" clip-rule="evenodd" d="M50.3547 47.9994C50.3876 47.9998 50.4205 48 50.4535 48C55.148 48 58.9535 43.8746 58.9535 38.7857C58.9535 33.6968 55.148 29.5715 50.4535 29.5715C50.4205 29.5715 50.3876 29.5717 50.3547 29.5721V29.5715H48.1588C48.2381 28.9409 48.2791 28.297 48.2791 27.6429C48.2791 19.832 42.438 13.5 35.2326 13.5C28.0272 13.5 22.1861 19.832 22.1861 27.6429C22.1861 28.3799 22.2381 29.1037 22.3383 29.8104C21.7179 29.6541 21.0713 29.5715 20.407 29.5715C15.7126 29.5715 11.907 33.6968 11.907 38.7857C11.907 43.8746 15.7126 48 20.407 48C20.4401 48 20.4732 47.9998 20.5063 47.9994L20.5058 48H50.3547V47.9994Z"/>
</mask>
<path fill-rule="evenodd" clip-rule="evenodd" d="M50.3547 47.9994C50.3876 47.9998 50.4205 48 50.4535 48C55.148 48 58.9535 43.8746 58.9535 38.7857C58.9535 33.6968 55.148 29.5715 50.4535 29.5715C50.4205 29.5715 50.3876 29.5717 50.3547 29.5721V29.5715H48.1588C48.2381 28.9409 48.2791 28.297 48.2791 27.6429C48.2791 19.832 42.438 13.5 35.2326 13.5C28.0272 13.5 22.1861 19.832 22.1861 27.6429C22.1861 28.3799 22.2381 29.1037 22.3383 29.8104C21.7179 29.6541 21.0713 29.5715 20.407 29.5715C15.7126 29.5715 11.907 33.6968 11.907 38.7857C11.907 43.8746 15.7126 48 20.407 48C20.4401 48 20.4732 47.9998 20.5063 47.9994L20.5058 48H50.3547V47.9994Z" fill="url(#paint2_linear_208_3645)" shape-rendering="crispEdges"/>
<path d="M50.3547 47.9994L50.3795 45.9996C49.8448 45.9929 49.3297 46.2007 48.9493 46.5765C48.5688 46.9522 48.3547 47.4647 48.3547 47.9994H50.3547ZM50.3547 29.5721H48.3547C48.3547 30.1068 48.5688 30.6192 48.9492 30.995C49.3296 31.3707 49.8447 31.5785 50.3794 31.5719L50.3547 29.5721ZM50.3547 29.5715H52.3547C52.3547 28.4669 51.4592 27.5715 50.3547 27.5715V29.5715ZM48.1588 29.5715L46.1745 29.3219C46.1028 29.8913 46.2793 30.4641 46.6589 30.8945C47.0386 31.3249 47.5849 31.5715 48.1588 31.5715V29.5715ZM22.3383 29.8104L21.8499 31.7498C22.4959 31.9125 23.1805 31.7429 23.6758 31.2974C24.1711 30.8519 24.4121 30.189 24.3185 29.5294L22.3383 29.8104ZM20.5063 47.9994L22.1218 49.1784C22.5683 48.5667 22.6309 47.7552 22.2836 47.0822C21.9363 46.4092 21.2386 45.9901 20.4813 45.9996L20.5063 47.9994ZM20.5058 48L18.8903 46.821C18.4465 47.4291 18.3818 48.2349 18.7228 48.9061C19.0639 49.5773 19.753 50 20.5058 50V48ZM50.3547 48V50C51.4592 50 52.3547 49.1046 52.3547 48H50.3547ZM50.3299 49.9993C50.3711 49.9998 50.4124 50 50.4535 50V46C50.4287 46 50.404 45.9999 50.3795 45.9996L50.3299 49.9993ZM50.4535 50C56.4014 50 60.9535 44.8242 60.9535 38.7857H56.9535C56.9535 42.9251 53.8945 46 50.4535 46V50ZM60.9535 38.7857C60.9535 32.7473 56.4014 27.5715 50.4535 27.5715V31.5715C53.8945 31.5715 56.9535 34.6464 56.9535 38.7857H60.9535ZM50.4535 27.5715C50.4123 27.5715 50.3711 27.5717 50.33 27.5722L50.3794 31.5719C50.4041 31.5716 50.4288 31.5715 50.4535 31.5715V27.5715ZM48.3547 29.5715V29.5721H52.3547V29.5715H48.3547ZM48.1588 31.5715H50.3547V27.5715H48.1588V31.5715ZM50.1432 29.8211C50.2329 29.1078 50.2791 28.3806 50.2791 27.6429H46.2791C46.2791 28.2135 46.2434 28.7739 46.1745 29.3219L50.1432 29.8211ZM50.2791 27.6429C50.2791 18.8824 43.6914 11.5 35.2326 11.5V15.5C41.1845 15.5 46.2791 20.7815 46.2791 27.6429H50.2791ZM35.2326 11.5C26.7738 11.5 20.1861 18.8824 20.1861 27.6429H24.1861C24.1861 20.7815 29.2807 15.5 35.2326 15.5V11.5ZM20.1861 27.6429C20.1861 28.474 20.2447 29.2918 20.3582 30.0913L24.3185 29.5294C24.2314 28.9157 24.1861 28.2857 24.1861 27.6429H20.1861ZM22.8268 27.8709C22.0485 27.6749 21.2379 27.5715 20.407 27.5715V31.5715C20.9047 31.5715 21.3872 31.6333 21.8499 31.7498L22.8268 27.8709ZM20.407 27.5715C14.4591 27.5715 9.90698 32.7473 9.90698 38.7857H13.907C13.907 34.6464 16.966 31.5715 20.407 31.5715V27.5715ZM9.90698 38.7857C9.90698 44.8242 14.4591 50 20.407 50V46C16.966 46 13.907 42.9251 13.907 38.7857H9.90698ZM20.407 50C20.4483 50 20.4897 49.9998 20.5312 49.9993L20.4813 45.9996C20.4568 45.9999 20.432 46 20.407 46V50ZM22.1213 49.179L22.1218 49.1784L18.8908 46.8204L18.8903 46.821L22.1213 49.179ZM50.3547 46H20.5058V50H50.3547V46ZM48.3547 47.9994V48H52.3547V47.9994H48.3547Z" fill="url(#paint3_linear_208_3645)" mask="url(#path-3-inside-2_208_3645)"/>
</g>
<g filter="url(#filter2_bdd_208_3645)">
<mask id="path-5-inside-3_208_3645" fill="white">
<path fill-rule="evenodd" clip-rule="evenodd" d="M65.7858 38.4324C65.8095 38.4327 65.8333 38.4328 65.8571 38.4328C69.2497 38.4328 72 35.4514 72 31.7737C72 28.096 69.2497 25.1147 65.8571 25.1147C65.8333 25.1147 65.8095 25.1148 65.7858 25.1151V25.1147H64.1988C64.2561 24.659 64.2857 24.1937 64.2857 23.7209C64.2857 18.076 60.0644 13.5 54.8571 13.5C49.6499 13.5 45.4286 18.076 45.4286 23.7209C45.4286 24.2535 45.4662 24.7767 45.5386 25.2873C45.0902 25.1744 44.623 25.1147 44.1429 25.1147C40.7503 25.1147 38 28.096 38 31.7737C38 35.4514 40.7503 38.4328 44.1429 38.4328C44.1668 38.4328 44.1907 38.4327 44.2146 38.4324L44.2143 38.4328H65.7858V38.4324Z"/>
</mask>
<path fill-rule="evenodd" clip-rule="evenodd" d="M65.7858 38.4324C65.8095 38.4327 65.8333 38.4328 65.8571 38.4328C69.2497 38.4328 72 35.4514 72 31.7737C72 28.096 69.2497 25.1147 65.8571 25.1147C65.8333 25.1147 65.8095 25.1148 65.7858 25.1151V25.1147H64.1988C64.2561 24.659 64.2857 24.1937 64.2857 23.7209C64.2857 18.076 60.0644 13.5 54.8571 13.5C49.6499 13.5 45.4286 18.076 45.4286 23.7209C45.4286 24.2535 45.4662 24.7767 45.5386 25.2873C45.0902 25.1744 44.623 25.1147 44.1429 25.1147C40.7503 25.1147 38 28.096 38 31.7737C38 35.4514 40.7503 38.4328 44.1429 38.4328C44.1668 38.4328 44.1907 38.4327 44.2146 38.4324L44.2143 38.4328H65.7858V38.4324Z" fill="url(#paint4_linear_208_3645)" shape-rendering="crispEdges"/>
<path d="M65.7858 38.4324L65.8105 36.4325C65.2758 36.4259 64.7607 36.6337 64.3803 37.0094C63.9999 37.3852 63.7858 37.8976 63.7858 38.4324H65.7858ZM65.7858 25.1151H63.7858C63.7858 25.6498 63.9999 26.1623 64.3803 26.538C64.7607 26.9138 65.2758 27.1216 65.8105 27.115L65.7858 25.1151ZM65.7858 25.1147H67.7858C67.7858 24.0101 66.8903 23.1147 65.7858 23.1147V25.1147ZM64.1988 25.1147L62.2144 24.8651C62.1428 25.4345 62.3193 26.0073 62.6989 26.4377C63.0786 26.8681 63.6249 27.1147 64.1988 27.1147V25.1147ZM45.5386 25.2873L45.0501 27.2268C45.6961 27.3895 46.3808 27.2198 46.8761 26.7743C47.3714 26.3288 47.6124 25.666 47.5188 25.0064L45.5386 25.2873ZM44.2146 38.4324L45.8311 39.61C46.2769 38.9982 46.339 38.1871 45.9916 37.5145C45.6442 36.8419 44.9468 36.4231 44.1899 36.4325L44.2146 38.4324ZM44.2143 38.4328L42.5978 37.2551C42.1547 37.8634 42.0905 38.6689 42.4317 39.3396C42.7729 40.0104 43.4618 40.4328 44.2143 40.4328V38.4328ZM65.7858 38.4328V40.4328C66.8903 40.4328 67.7858 39.5374 67.7858 38.4328H65.7858ZM65.761 40.4322C65.7931 40.4326 65.8251 40.4328 65.8571 40.4328V36.4328C65.8415 36.4328 65.826 36.4327 65.8105 36.4325L65.761 40.4322ZM65.8571 40.4328C70.5032 40.4328 74 36.401 74 31.7737H70C70 34.5019 67.9963 36.4328 65.8571 36.4328V40.4328ZM74 31.7737C74 27.1465 70.5032 23.1147 65.8571 23.1147V27.1147C67.9963 27.1147 70 29.0456 70 31.7737H74ZM65.8571 23.1147C65.8251 23.1147 65.7931 23.1149 65.761 23.1153L65.8105 27.115C65.826 27.1148 65.8415 27.1147 65.8571 27.1147V23.1147ZM63.7858 25.1147V25.1151H67.7858V25.1147H63.7858ZM64.1988 27.1147H65.7858V23.1147H64.1988V27.1147ZM66.1832 25.3643C66.2509 24.8259 66.2857 24.2772 66.2857 23.7209H62.2857C62.2857 24.1101 62.2613 24.492 62.2144 24.8651L66.1832 25.3643ZM66.2857 23.7209C66.2857 17.1265 61.3179 11.5 54.8571 11.5V15.5C58.811 15.5 62.2857 19.0256 62.2857 23.7209H66.2857ZM54.8571 11.5C48.3964 11.5 43.4286 17.1265 43.4286 23.7209H47.4286C47.4286 19.0256 50.9033 15.5 54.8571 15.5V11.5ZM43.4286 23.7209C43.4286 24.3477 43.4728 24.9647 43.5584 25.5683L47.5188 25.0064C47.4595 24.5886 47.4286 24.1594 47.4286 23.7209H43.4286ZM46.0271 23.3479C45.4208 23.1952 44.7896 23.1147 44.1429 23.1147V27.1147C44.4564 27.1147 44.7596 27.1536 45.0501 27.2268L46.0271 23.3479ZM44.1429 23.1147C39.4968 23.1147 36 27.1465 36 31.7737H40C40 29.0456 42.0037 27.1147 44.1429 27.1147V23.1147ZM36 31.7737C36 36.401 39.4968 40.4328 44.1429 40.4328V36.4328C42.0037 36.4328 40 34.5019 40 31.7737H36ZM44.1429 40.4328C44.1751 40.4328 44.2073 40.4326 44.2394 40.4322L44.1899 36.4325C44.1742 36.4327 44.1585 36.4328 44.1429 36.4328V40.4328ZM45.8308 39.6105L45.8311 39.61L42.5981 37.2547L42.5978 37.2551L45.8308 39.6105ZM65.7858 36.4328H44.2143V40.4328H65.7858V36.4328ZM63.7858 38.4324V38.4328H67.7858V38.4324H63.7858Z" fill="url(#paint5_linear_208_3645)" mask="url(#path-5-inside-3_208_3645)"/>
</g>
<defs>
<filter id="filter0_dd_208_3645" x="0" y="0" width="42" height="38.9327" filterUnits="userSpaceOnUse" color-interpolation-filters="sRGB">
<feFlood flood-opacity="0" result="BackgroundImageFix"/>
<feColorMatrix in="SourceAlpha" type="matrix" values="0 0 0 0 0 0 0 0 0 0 0 0 0 0 0 0 0 0 127 0" result="hardAlpha"/>
<feOffset dy="-2"/>
<feGaussianBlur stdDeviation="2"/>
<feComposite in2="hardAlpha" operator="out"/>
<feColorMatrix type="matrix" values="0 0 0 0 0 0 0 0 0 0 0 0 0 0 0 0 0 0 0.08 0"/>
<feBlend mode="normal" in2="BackgroundImageFix" result="effect1_dropShadow_208_3645"/>
<feColorMatrix in="SourceAlpha" type="matrix" values="0 0 0 0 0 0 0 0 0 0 0 0 0 0 0 0 0 0 127 0" result="hardAlpha"/>
<feOffset dy="4"/>
<feGaussianBlur stdDeviation="2"/>
<feComposite in2="hardAlpha" operator="out"/>
<feColorMatrix type="matrix" values="0 0 0 0 0 0 0 0 0 0 0 0 0 0 0 0 0 0 0.25 0"/>
<feBlend mode="normal" in2="effect1_dropShadow_208_3645" result="effect2_dropShadow_208_3645"/>
<feBlend mode="normal" in="SourceGraphic" in2="effect2_dropShadow_208_3645" result="shape"/>
</filter>
<filter id="filter1_bdd_208_3645" x="5.90698" y="7.5" width="59.0466" height="48.5" filterUnits="userSpaceOnUse" color-interpolation-filters="sRGB">
<feFlood flood-opacity="0" result="BackgroundImageFix"/>
<feGaussianBlur in="BackgroundImageFix" stdDeviation="3"/>
<feComposite in2="SourceAlpha" operator="in" result="effect1_backgroundBlur_208_3645"/>
<feColorMatrix in="SourceAlpha" type="matrix" values="0 0 0 0 0 0 0 0 0 0 0 0 0 0 0 0 0 0 127 0" result="hardAlpha"/>
<feOffset dy="-2"/>
<feGaussianBlur stdDeviation="2"/>
<feComposite in2="hardAlpha" operator="out"/>
<feColorMatrix type="matrix" values="0 0 0 0 0 0 0 0 0 0 0 0 0 0 0 0 0 0 0.1 0"/>
<feBlend mode="normal" in2="effect1_backgroundBlur_208_3645" result="effect2_dropShadow_208_3645"/>
<feColorMatrix in="SourceAlpha" type="matrix" values="0 0 0 0 0 0 0 0 0 0 0 0 0 0 0 0 0 0 127 0" result="hardAlpha"/>
<feOffset dy="4"/>
<feGaussianBlur stdDeviation="2"/>
<feComposite in2="hardAlpha" operator="out"/>
<feColorMatrix type="matrix" values="0 0 0 0 0 0 0 0 0 0 0 0 0 0 0 0 0 0 0.15 0"/>
<feBlend mode="normal" in2="effect2_dropShadow_208_3645" result="effect3_dropShadow_208_3645"/>
<feBlend mode="normal" in="SourceGraphic" in2="effect3_dropShadow_208_3645" result="shape"/>
</filter>
<filter id="filter2_bdd_208_3645" x="34" y="8.5" width="42" height="36.9329" filterUnits="userSpaceOnUse" color-interpolation-filters="sRGB">
<feFlood flood-opacity="0" result="BackgroundImageFix"/>
<feGaussianBlur in="BackgroundImageFix" stdDeviation="2"/>
<feComposite in2="SourceAlpha" operator="in" result="effect1_backgroundBlur_208_3645"/>
<feColorMatrix in="SourceAlpha" type="matrix" values="0 0 0 0 0 0 0 0 0 0 0 0 0 0 0 0 0 0 127 0" result="hardAlpha"/>
<feOffset dy="-1"/>
<feGaussianBlur stdDeviation="2"/>
<feComposite in2="hardAlpha" operator="out"/>
<feColorMatrix type="matrix" values="0 0 0 0 0 0 0 0 0 0 0 0 0 0 0 0 0 0 0.15 0"/>
<feBlend mode="normal" in2="effect1_backgroundBlur_208_3645" result="effect2_dropShadow_208_3645"/>
<feColorMatrix in="SourceAlpha" type="matrix" values="0 0 0 0 0 0 0 0 0 0 0 0 0 0 0 0 0 0 127 0" result="hardAlpha"/>
<feOffset dy="3"/>
<feGaussianBlur stdDeviation="2"/>
<feComposite in2="hardAlpha" operator="out"/>
<feColorMatrix type="matrix" values="0 0 0 0 0 0 0 0 0 0 0 0 0 0 0 0 0 0 0.15 0"/>
<feBlend mode="normal" in2="effect2_dropShadow_208_3645" result="effect3_dropShadow_208_3645"/>
<feBlend mode="normal" in="SourceGraphic" in2="effect3_dropShadow_208_3645" result="shape"/>
</filter>
<linearGradient id="paint0_linear_208_3645" x1="22.5814" y1="6.75" x2="22.5814" y2="33.75" gradientUnits="userSpaceOnUse">
<stop stop-color="white"/>
<stop offset="1" stop-color="white" stop-opacity="0"/>
</linearGradient>
<linearGradient id="paint1_linear_208_3645" x1="21" y1="6" x2="21" y2="30.9328" gradientUnits="userSpaceOnUse">
<stop stop-color="white"/>
<stop offset="1" stop-color="white" stop-opacity="0"/>
</linearGradient>
<linearGradient id="paint2_linear_208_3645" x1="35.4302" y1="2.46429" x2="35.4302" y2="52.8214" gradientUnits="userSpaceOnUse">
<stop stop-color="white"/>
<stop offset="1" stop-color="white" stop-opacity="0"/>
</linearGradient>
<linearGradient id="paint3_linear_208_3645" x1="35.4302" y1="13.5" x2="35.4302" y2="48" gradientUnits="userSpaceOnUse">
<stop stop-color="white"/>
<stop offset="1" stop-color="white" stop-opacity="0"/>
</linearGradient>
<linearGradient id="paint4_linear_208_3645" x1="56.5814" y1="14.25" x2="56.5814" y2="41.25" gradientUnits="userSpaceOnUse">
<stop stop-color="white"/>
<stop offset="1" stop-color="white" stop-opacity="0"/>
</linearGradient>
<linearGradient id="paint5_linear_208_3645" x1="55" y1="13.5" x2="55" y2="38.4328" gradientUnits="userSpaceOnUse">
<stop stop-color="white"/>
<stop offset="1" stop-color="white" stop-opacity="0"/>
</linearGradient>
</defs>
</svg>
