<svg width="172" height="151" viewBox="0 0 172 151" fill="none" xmlns="http://www.w3.org/2000/svg">
<g filter="url(#filter0_bd_208_3661)">
<mask id="path-1-inside-1_208_3661" fill="white">
<path fill-rule="evenodd" clip-rule="evenodd" d="M87.4307 60.9115C87.4481 60.9117 87.4657 60.9118 87.4832 60.9118C89.9777 60.9118 92 58.8895 92 56.395C92 53.9004 89.9777 51.8782 87.4832 51.8782C87.4657 51.8782 87.4481 51.8783 87.4307 51.8785V51.8782H86.2638C86.306 51.569 86.3277 51.2535 86.3277 50.9328C86.3277 47.1039 83.2238 44 79.395 44C75.5661 44 72.4622 47.1039 72.4622 50.9328C72.4622 51.2941 72.4898 51.6489 72.5431 51.9953C72.2134 51.9187 71.8698 51.8782 71.5168 51.8782C69.0222 51.8782 67 53.9004 67 56.395C67 58.8895 69.0222 60.9118 71.5168 60.9118C71.5344 60.9118 71.552 60.9117 71.5696 60.9115L71.5693 60.9118H87.4307V60.9115Z"/>
</mask>
<path fill-rule="evenodd" clip-rule="evenodd" d="M87.4307 60.9115C87.4481 60.9117 87.4657 60.9118 87.4832 60.9118C89.9777 60.9118 92 58.8895 92 56.395C92 53.9004 89.9777 51.8782 87.4832 51.8782C87.4657 51.8782 87.4481 51.8783 87.4307 51.8785V51.8782H86.2638C86.306 51.569 86.3277 51.2535 86.3277 50.9328C86.3277 47.1039 83.2238 44 79.395 44C75.5661 44 72.4622 47.1039 72.4622 50.9328C72.4622 51.2941 72.4898 51.6489 72.5431 51.9953C72.2134 51.9187 71.8698 51.8782 71.5168 51.8782C69.0222 51.8782 67 53.9004 67 56.395C67 58.8895 69.0222 60.9118 71.5168 60.9118C71.5344 60.9118 71.552 60.9117 71.5696 60.9115L71.5693 60.9118H87.4307V60.9115Z" fill="url(#paint0_linear_208_3661)" shape-rendering="crispEdges"/>
<path d="M87.4307 60.9115L87.4534 58.9116C86.919 58.9055 86.4045 59.1136 86.0245 59.4893C85.6445 59.865 85.4307 60.3771 85.4307 60.9115H87.4307ZM87.4307 51.8785H85.4307C85.4307 52.4128 85.6445 52.925 86.0245 53.3007C86.4045 53.6764 86.9191 53.8844 87.4535 53.8783L87.4307 51.8785ZM87.4307 51.8782H89.4307C89.4307 50.7736 88.5352 49.8782 87.4307 49.8782V51.8782ZM86.2638 51.8782L84.2822 51.608C84.2041 52.1802 84.3773 52.7583 84.7571 53.1934C85.1369 53.6285 85.6863 53.8782 86.2638 53.8782V51.8782ZM72.5431 51.9953L72.0905 53.9434C72.737 54.0936 73.416 53.9132 73.9028 53.462C74.3896 53.0107 74.6208 52.3473 74.5198 51.6912L72.5431 51.9953ZM71.5696 60.9115L73.1393 62.1508C73.6168 61.546 73.7044 60.7206 73.3644 60.0291C73.0244 59.3375 72.3173 58.9028 71.5467 58.9116L71.5696 60.9115ZM71.5693 60.9118L69.9996 59.6724C69.5246 60.274 69.4352 61.0941 69.7695 61.7839C70.1037 62.4737 70.8028 62.9118 71.5693 62.9118V60.9118ZM87.4307 60.9118V62.9118C88.5352 62.9118 89.4307 62.0163 89.4307 60.9118H87.4307ZM87.408 62.9113C87.4329 62.9116 87.458 62.9118 87.4832 62.9118V58.9118C87.4733 58.9118 87.4634 58.9117 87.4534 58.9116L87.408 62.9113ZM87.4832 62.9118C91.0823 62.9118 94 59.9941 94 56.395H90C90 57.785 88.8732 58.9118 87.4832 58.9118V62.9118ZM94 56.395C94 52.7958 91.0823 49.8782 87.4832 49.8782V53.8782C88.8732 53.8782 90 55.005 90 56.395H94ZM87.4832 49.8782C87.4581 49.8782 87.433 49.8783 87.4079 49.8786L87.4535 53.8783C87.4633 53.8782 87.4732 53.8782 87.4832 53.8782V49.8782ZM85.4307 51.8782V51.8785H89.4307V51.8782H85.4307ZM86.2638 53.8782H87.4307V49.8782H86.2638V53.8782ZM88.2455 52.1484C88.2998 51.7499 88.3277 51.3441 88.3277 50.9328H84.3277C84.3277 51.1628 84.3121 51.3881 84.2822 51.608L88.2455 52.1484ZM88.3277 50.9328C88.3277 45.9993 84.3284 42 79.395 42V46C82.1193 46 84.3277 48.2085 84.3277 50.9328H88.3277ZM79.395 42C74.4615 42 70.4622 45.9993 70.4622 50.9328H74.4622C74.4622 48.2085 76.6707 46 79.395 46V42ZM70.4622 50.9328C70.4622 51.3962 70.4976 51.8527 70.5663 52.2993L74.5198 51.6912C74.482 51.4451 74.4622 51.1919 74.4622 50.9328H70.4622ZM72.9957 50.0471C72.5187 49.9363 72.0233 49.8782 71.5168 49.8782V53.8782C71.7164 53.8782 71.9081 53.901 72.0905 53.9434L72.9957 50.0471ZM71.5168 49.8782C67.9177 49.8782 65 52.7958 65 56.395H69C69 55.005 70.1268 53.8782 71.5168 53.8782V49.8782ZM65 56.395C65 59.9941 67.9177 62.9118 71.5168 62.9118V58.9118C70.1268 58.9118 69 57.785 69 56.395H65ZM71.5168 62.9118C71.5421 62.9118 71.5673 62.9116 71.5924 62.9113L71.5467 58.9116C71.5367 58.9117 71.5268 58.9118 71.5168 58.9118V62.9118ZM73.139 62.1511L73.1393 62.1508L69.9999 59.6721L69.9996 59.6724L73.139 62.1511ZM87.4307 58.9118H71.5693V62.9118H87.4307V58.9118ZM85.4307 60.9115V60.9118H89.4307V60.9115H85.4307Z" fill="url(#paint1_linear_208_3661)" mask="url(#path-1-inside-1_208_3661)"/>
</g>
<g filter="url(#filter1_bd_208_3661)">
<mask id="path-3-inside-2_208_3661" fill="white">
<path fill-rule="evenodd" clip-rule="evenodd" d="M101.084 72.488C101.109 72.4882 101.133 72.4884 101.157 72.4884C104.609 72.4884 107.407 69.6902 107.407 66.2384C107.407 62.7866 104.609 59.9884 101.157 59.9884C101.133 59.9884 101.109 59.9885 101.084 59.9888V59.9884H99.4697C99.528 59.5607 99.5582 59.124 99.5582 58.6802C99.5582 53.3822 95.2632 49.0872 89.9651 49.0872C84.6671 49.0872 80.3721 53.3822 80.3721 58.6802C80.3721 59.1802 80.4104 59.6711 80.4841 60.1504C80.0278 60.0444 79.5525 59.9884 79.064 59.9884C75.6122 59.9884 72.814 62.7866 72.814 66.2384C72.814 69.6902 75.6122 72.4884 79.064 72.4884C79.0883 72.4884 79.1127 72.4882 79.137 72.488L79.1366 72.4884H101.084V72.488Z"/>
</mask>
<path fill-rule="evenodd" clip-rule="evenodd" d="M101.084 72.488C101.109 72.4882 101.133 72.4884 101.157 72.4884C104.609 72.4884 107.407 69.6902 107.407 66.2384C107.407 62.7866 104.609 59.9884 101.157 59.9884C101.133 59.9884 101.109 59.9885 101.084 59.9888V59.9884H99.4697C99.528 59.5607 99.5582 59.124 99.5582 58.6802C99.5582 53.3822 95.2632 49.0872 89.9651 49.0872C84.6671 49.0872 80.3721 53.3822 80.3721 58.6802C80.3721 59.1802 80.4104 59.6711 80.4841 60.1504C80.0278 60.0444 79.5525 59.9884 79.064 59.9884C75.6122 59.9884 72.814 62.7866 72.814 66.2384C72.814 69.6902 75.6122 72.4884 79.064 72.4884C79.0883 72.4884 79.1127 72.4882 79.137 72.488L79.1366 72.4884H101.084V72.488Z" fill="url(#paint2_linear_208_3661)" shape-rendering="crispEdges"/>
<path d="M101.084 72.488L101.107 70.4881C100.573 70.482 100.058 70.69 99.6782 71.0657C99.2982 71.4414 99.0843 71.9536 99.0843 72.488H101.084ZM101.084 59.9888H99.0843C99.0843 60.5232 99.2982 61.0353 99.6782 61.411C100.058 61.7867 100.573 61.9947 101.107 61.9887L101.084 59.9888ZM101.084 59.9884H103.084C103.084 58.8838 102.189 57.9884 101.084 57.9884V59.9884ZM99.4697 59.9884L97.4881 59.7182C97.41 60.2904 97.5832 60.8685 97.963 61.3036C98.3428 61.7387 98.8922 61.9884 99.4697 61.9884V59.9884ZM80.4841 60.1504L80.0314 62.0985C80.678 62.2487 81.357 62.0684 81.8438 61.6171C82.3306 61.1659 82.5617 60.5025 82.4608 59.8464L80.4841 60.1504ZM79.137 72.488L80.7072 73.7266C81.1844 73.1217 81.2717 72.2965 80.9316 71.6051C80.5915 70.9138 79.8845 70.4793 79.1141 70.4881L79.137 72.488ZM79.1366 72.4884L77.5664 71.2497C77.0918 71.8514 77.0027 72.6714 77.337 73.3609C77.6714 74.0505 78.3703 74.4884 79.1366 74.4884V72.4884ZM101.084 72.4884V74.4884C102.189 74.4884 103.084 73.593 103.084 72.4884H101.084ZM101.061 74.4878C101.093 74.4882 101.125 74.4884 101.157 74.4884V70.4884C101.14 70.4884 101.124 70.4883 101.107 70.4881L101.061 74.4878ZM101.157 74.4884C105.713 74.4884 109.407 70.7947 109.407 66.2384H105.407C105.407 68.5856 103.504 70.4884 101.157 70.4884V74.4884ZM109.407 66.2384C109.407 61.682 105.713 57.9884 101.157 57.9884V61.9884C103.504 61.9884 105.407 63.8912 105.407 66.2384H109.407ZM101.157 57.9884C101.125 57.9884 101.093 57.9886 101.062 57.9889L101.107 61.9887C101.124 61.9885 101.14 61.9884 101.157 61.9884V57.9884ZM99.0843 59.9884V59.9888H103.084V59.9884H99.0843ZM99.4697 61.9884H101.084V57.9884H99.4697V61.9884ZM101.451 60.2586C101.522 59.7416 101.558 59.2146 101.558 58.6802H97.5582C97.5582 59.0333 97.5342 59.3798 97.4881 59.7182L101.451 60.2586ZM101.558 58.6802C101.558 52.2776 96.3678 47.0872 89.9651 47.0872V51.0872C94.1587 51.0872 97.5582 54.4867 97.5582 58.6802H101.558ZM89.9651 47.0872C83.5625 47.0872 78.3721 52.2776 78.3721 58.6802H82.3721C82.3721 54.4867 85.7716 51.0872 89.9651 51.0872V47.0872ZM78.3721 58.6802C78.3721 59.2823 78.4182 59.8749 78.5073 60.4544L82.4608 59.8464C82.4025 59.4674 82.3721 59.078 82.3721 58.6802H78.3721ZM80.9367 58.2023C80.3331 58.0621 79.7059 57.9884 79.064 57.9884V61.9884C79.399 61.9884 79.7226 62.0268 80.0314 62.0985L80.9367 58.2023ZM79.064 57.9884C74.5076 57.9884 70.814 61.682 70.814 66.2384H74.814C74.814 63.8912 76.7168 61.9884 79.064 61.9884V57.9884ZM70.814 66.2384C70.814 70.7947 74.5076 74.4884 79.064 74.4884V70.4884C76.7168 70.4884 74.814 68.5856 74.814 66.2384H70.814ZM79.064 74.4884C79.096 74.4884 79.1279 74.4882 79.1599 74.4878L79.1141 70.4881C79.0974 70.4883 79.0807 70.4884 79.064 70.4884V74.4884ZM80.7069 73.727L80.7072 73.7266L77.5667 71.2493L77.5664 71.2497L80.7069 73.727ZM101.084 70.4884H79.1366V74.4884H101.084V70.4884ZM99.0843 72.488V72.4884H103.084V72.488H99.0843Z" fill="url(#paint3_linear_208_3661)" mask="url(#path-3-inside-2_208_3661)"/>
</g>
<g filter="url(#filter2_bdd_208_3661)">
<path d="M97.6431 72.5642L102.914 62.9189C103.264 62.2771 103.937 61.8779 104.669 61.8779H107.663C109.166 61.8779 110.132 63.4743 109.434 64.8059L107.447 68.6002C106.867 69.7075 107.67 71.0349 108.92 71.0349C110.358 71.0349 111.118 72.7356 110.159 73.8069L103.66 81.0709C102.185 82.7189 99.522 81.1087 100.296 79.0373L100.847 77.5618C101.279 76.4074 100.425 75.1774 99.1929 75.1774C97.8517 75.1774 96.9999 73.7412 97.6431 72.5642Z" fill="url(#paint4_linear_208_3661)"/>
<path d="M98.5206 73.0438L103.791 63.3984L102.914 62.9189L103.791 63.3984C103.967 63.0775 104.303 62.8779 104.669 62.8779H107.663C108.414 62.8779 108.897 63.6761 108.549 64.3419L106.561 68.1362C105.632 69.9093 106.918 72.0349 108.92 72.0349C109.493 72.0349 109.796 72.7129 109.414 73.1401L102.915 80.4041C102.177 81.2281 100.846 80.423 101.233 79.3873L101.784 77.9118C102.46 76.1039 101.123 74.1774 99.1929 74.1774C98.6111 74.1774 98.2416 73.5543 98.5206 73.0438Z" stroke="url(#paint5_linear_208_3661)" stroke-width="2"/>
</g>
<g filter="url(#filter3_bd_208_3661)">
<mask id="path-7-inside-3_208_3661" fill="white">
<path fill-rule="evenodd" clip-rule="evenodd" d="M112.431 65.9987C112.448 65.9989 112.466 65.999 112.483 65.999C114.978 65.999 117 63.9767 117 61.4822C117 58.9876 114.978 56.9654 112.483 56.9654C112.466 56.9654 112.448 56.9655 112.431 56.9657V56.9654H111.264C111.306 56.6563 111.328 56.3407 111.328 56.02C111.328 52.1911 108.224 49.0872 104.395 49.0872C100.566 49.0872 97.4622 52.1911 97.4622 56.02C97.4622 56.3813 97.4898 56.7361 97.5431 57.0825C97.2134 57.0059 96.8698 56.9654 96.5168 56.9654C94.0222 56.9654 92 58.9876 92 61.4822C92 63.9767 94.0222 65.999 96.5168 65.999C96.5344 65.999 96.552 65.9989 96.5696 65.9987L96.5694 65.999H112.431V65.9987Z"/>
</mask>
<path fill-rule="evenodd" clip-rule="evenodd" d="M112.431 65.9987C112.448 65.9989 112.466 65.999 112.483 65.999C114.978 65.999 117 63.9767 117 61.4822C117 58.9876 114.978 56.9654 112.483 56.9654C112.466 56.9654 112.448 56.9655 112.431 56.9657V56.9654H111.264C111.306 56.6563 111.328 56.3407 111.328 56.02C111.328 52.1911 108.224 49.0872 104.395 49.0872C100.566 49.0872 97.4622 52.1911 97.4622 56.02C97.4622 56.3813 97.4898 56.7361 97.5431 57.0825C97.2134 57.0059 96.8698 56.9654 96.5168 56.9654C94.0222 56.9654 92 58.9876 92 61.4822C92 63.9767 94.0222 65.999 96.5168 65.999C96.5344 65.999 96.552 65.9989 96.5696 65.9987L96.5694 65.999H112.431V65.9987Z" fill="url(#paint6_linear_208_3661)" shape-rendering="crispEdges"/>
<path d="M112.431 65.9987L112.453 63.9988C111.919 63.9927 111.405 64.2008 111.025 64.5765C110.645 64.9522 110.431 65.4643 110.431 65.9987H112.431ZM112.431 56.9657H110.431C110.431 57.5 110.645 58.0122 111.025 58.3879C111.405 58.7636 111.919 58.9716 112.453 58.9655L112.431 56.9657ZM112.431 56.9654H114.431C114.431 55.8608 113.535 54.9654 112.431 54.9654V56.9654ZM111.264 56.9654L109.282 56.6952C109.204 57.2674 109.377 57.8455 109.757 58.2806C110.137 58.7157 110.686 58.9654 111.264 58.9654V56.9654ZM97.5431 57.0825L97.0905 59.0306C97.737 59.1808 98.416 59.0004 98.9028 58.5492C99.3896 58.0979 99.6207 57.4345 99.5198 56.7784L97.5431 57.0825ZM96.5696 65.9987L98.1381 67.2396C98.6164 66.6349 98.7047 65.8092 98.3648 65.1172C98.025 64.4251 97.3177 63.99 96.5468 63.9988L96.5696 65.9987ZM96.5694 65.999L95.0009 64.7581C94.5251 65.3595 94.435 66.18 94.7691 66.8702C95.1032 67.5605 95.8025 67.999 96.5694 67.999V65.999ZM112.431 65.999V67.999C113.535 67.999 114.431 67.1035 114.431 65.999H112.431ZM112.408 67.9985C112.433 67.9988 112.458 67.999 112.483 67.999V63.999C112.473 63.999 112.463 63.9989 112.453 63.9988L112.408 67.9985ZM112.483 67.999C116.082 67.999 119 65.0813 119 61.4822H115C115 62.8722 113.873 63.999 112.483 63.999V67.999ZM119 61.4822C119 57.883 116.082 54.9654 112.483 54.9654V58.9654C113.873 58.9654 115 60.0922 115 61.4822H119ZM112.483 54.9654C112.458 54.9654 112.433 54.9655 112.408 54.9658L112.453 58.9655C112.463 58.9654 112.473 58.9654 112.483 58.9654V54.9654ZM110.431 56.9654V56.9657H114.431V56.9654H110.431ZM111.264 58.9654H112.431V54.9654H111.264V58.9654ZM113.245 57.2356C113.3 56.8372 113.328 56.4313 113.328 56.02H109.328C109.328 56.25 109.312 56.4753 109.282 56.6952L113.245 57.2356ZM113.328 56.02C113.328 51.0866 109.328 47.0872 104.395 47.0872V51.0872C107.119 51.0872 109.328 53.2957 109.328 56.02H113.328ZM104.395 47.0872C99.4615 47.0872 95.4622 51.0866 95.4622 56.02H99.4622C99.4622 53.2957 101.671 51.0872 104.395 51.0872V47.0872ZM95.4622 56.02C95.4622 56.4834 95.4976 56.9399 95.5663 57.3865L99.5198 56.7784C99.482 56.5323 99.4622 56.2791 99.4622 56.02H95.4622ZM97.9957 55.1344C97.5187 55.0235 97.0233 54.9654 96.5168 54.9654V58.9654C96.7164 58.9654 96.9081 58.9882 97.0905 59.0306L97.9957 55.1344ZM96.5168 54.9654C92.9177 54.9654 90 57.883 90 61.4822H94C94 60.0922 95.1268 58.9654 96.5168 58.9654V54.9654ZM90 61.4822C90 65.0813 92.9177 67.999 96.5168 67.999V63.999C95.1268 63.999 94 62.8722 94 61.4822H90ZM96.5168 67.999C96.5421 67.999 96.5673 67.9988 96.5924 67.9985L96.5468 63.9988C96.5368 63.9989 96.5268 63.999 96.5168 63.999V67.999ZM98.1378 67.2399L98.1381 67.2396L95.0011 64.7578L95.0009 64.7581L98.1378 67.2399ZM112.431 63.999H96.5694V67.999H112.431V63.999ZM110.431 65.9987V65.999H114.431V65.9987H110.431Z" fill="url(#paint7_linear_208_3661)" mask="url(#path-7-inside-3_208_3661)"/>
</g>
<g filter="url(#filter4_bdd_208_3661)">
<path d="M74.3138 74.9519L74.4839 77.334C74.5298 77.9756 73.9179 78.4637 73.3026 78.2765C72.6872 78.0893 72.4508 77.3432 72.8461 76.8358L74.3138 74.9519Z" fill="url(#paint8_linear_208_3661)" stroke="url(#paint9_linear_208_3661)" stroke-width="2"/>
<path d="M82.6725 74.9519L82.8426 77.334C82.8884 77.9756 82.2766 78.4637 81.6612 78.2765C81.0458 78.0893 80.8095 77.3432 81.2048 76.8358L82.6725 74.9519Z" fill="url(#paint10_linear_208_3661)" stroke="url(#paint11_linear_208_3661)" stroke-width="2"/>
<path d="M91.0311 74.9519L91.2012 77.334C91.247 77.9756 90.6352 78.4637 90.0198 78.2765C89.4044 78.0893 89.168 77.3432 89.5634 76.8358L91.0311 74.9519Z" fill="url(#paint12_linear_208_3661)" stroke="url(#paint13_linear_208_3661)" stroke-width="2"/>
</g>
<g filter="url(#filter5_bdd_208_3661)">
<path d="M77.5115 81.5683L77.6816 83.9503C77.7275 84.5919 77.1156 85.08 76.5003 84.8928C75.8849 84.7056 75.6485 83.9595 76.0438 83.4521L77.5115 81.5683Z" fill="url(#paint14_linear_208_3661)" stroke="url(#paint15_linear_208_3661)" stroke-width="2"/>
<path d="M85.9418 81.5683L86.1119 83.9503C86.1577 84.5919 85.5459 85.08 84.9305 84.8928C84.3151 84.7056 84.0787 83.9595 84.4741 83.4521L85.9418 81.5683Z" fill="url(#paint16_linear_208_3661)" stroke="url(#paint17_linear_208_3661)" stroke-width="2"/>
</g>
<defs>
<filter id="filter0_bd_208_3661" x="52" y="34" width="55" height="46.9117" filterUnits="userSpaceOnUse" color-interpolation-filters="sRGB">
<feFlood flood-opacity="0" result="BackgroundImageFix"/>
<feGaussianBlur in="BackgroundImageFix" stdDeviation="5"/>
<feComposite in2="SourceAlpha" operator="in" result="effect1_backgroundBlur_208_3661"/>
<feColorMatrix in="SourceAlpha" type="matrix" values="0 0 0 0 0 0 0 0 0 0 0 0 0 0 0 0 0 0 127 0" result="hardAlpha"/>
<feOffset dy="5"/>
<feGaussianBlur stdDeviation="7.5"/>
<feComposite in2="hardAlpha" operator="out"/>
<feColorMatrix type="matrix" values="0 0 0 0 0.113438 0 0 0 0 0.148981 0 0 0 0 0.275 0 0 0 0.15 0"/>
<feBlend mode="normal" in2="effect1_backgroundBlur_208_3661" result="effect2_dropShadow_208_3661"/>
<feBlend mode="normal" in="SourceGraphic" in2="effect2_dropShadow_208_3661" result="shape"/>
</filter>
<filter id="filter1_bd_208_3661" x="1.81396" y="9.08722" width="134.593" height="123.401" filterUnits="userSpaceOnUse" color-interpolation-filters="sRGB">
<feFlood flood-opacity="0" result="BackgroundImageFix"/>
<feGaussianBlur in="BackgroundImageFix" stdDeviation="5"/>
<feComposite in2="SourceAlpha" operator="in" result="effect1_backgroundBlur_208_3661"/>
<feColorMatrix in="SourceAlpha" type="matrix" values="0 0 0 0 0 0 0 0 0 0 0 0 0 0 0 0 0 0 127 0" result="hardAlpha"/>
<feOffset dx="-21" dy="10"/>
<feGaussianBlur stdDeviation="25"/>
<feComposite in2="hardAlpha" operator="out"/>
<feColorMatrix type="matrix" values="0 0 0 0 0.113725 0 0 0 0 0.14902 0 0 0 0 0.27451 0 0 0 0.15 0"/>
<feBlend mode="normal" in2="effect1_backgroundBlur_208_3661" result="effect2_dropShadow_208_3661"/>
<feBlend mode="normal" in="SourceGraphic" in2="effect2_dropShadow_208_3661" result="shape"/>
</filter>
<filter id="filter2_bdd_208_3661" x="26.4243" y="0.87793" width="145.162" height="145.873" filterUnits="userSpaceOnUse" color-interpolation-filters="sRGB">
<feFlood flood-opacity="0" result="BackgroundImageFix"/>
<feGaussianBlur in="BackgroundImageFix" stdDeviation="7"/>
<feComposite in2="SourceAlpha" operator="in" result="effect1_backgroundBlur_208_3661"/>
<feColorMatrix in="SourceAlpha" type="matrix" values="0 0 0 0 0 0 0 0 0 0 0 0 0 0 0 0 0 0 127 0" result="hardAlpha"/>
<feOffset dx="-21" dy="15"/>
<feGaussianBlur stdDeviation="25"/>
<feComposite in2="hardAlpha" operator="out"/>
<feColorMatrix type="matrix" values="0 0 0 0 0.113438 0 0 0 0 0.148981 0 0 0 0 0.275 0 0 0 0.25 0"/>
<feBlend mode="normal" in2="effect1_backgroundBlur_208_3661" result="effect2_dropShadow_208_3661"/>
<feColorMatrix in="SourceAlpha" type="matrix" values="0 0 0 0 0 0 0 0 0 0 0 0 0 0 0 0 0 0 127 0" result="hardAlpha"/>
<feOffset/>
<feGaussianBlur stdDeviation="30.5"/>
<feComposite in2="hardAlpha" operator="out"/>
<feColorMatrix type="matrix" values="0 0 0 0 1 0 0 0 0 0.721569 0 0 0 0 0.00392157 0 0 0 0.49 0"/>
<feBlend mode="normal" in2="effect2_dropShadow_208_3661" result="effect3_dropShadow_208_3661"/>
<feBlend mode="normal" in="SourceGraphic" in2="effect3_dropShadow_208_3661" result="shape"/>
</filter>
<filter id="filter3_bd_208_3661" x="21" y="14.0872" width="125" height="116.912" filterUnits="userSpaceOnUse" color-interpolation-filters="sRGB">
<feFlood flood-opacity="0" result="BackgroundImageFix"/>
<feGaussianBlur in="BackgroundImageFix" stdDeviation="5"/>
<feComposite in2="SourceAlpha" operator="in" result="effect1_backgroundBlur_208_3661"/>
<feColorMatrix in="SourceAlpha" type="matrix" values="0 0 0 0 0 0 0 0 0 0 0 0 0 0 0 0 0 0 127 0" result="hardAlpha"/>
<feOffset dx="-21" dy="15"/>
<feGaussianBlur stdDeviation="25"/>
<feComposite in2="hardAlpha" operator="out"/>
<feColorMatrix type="matrix" values="0 0 0 0 0.113438 0 0 0 0 0.148981 0 0 0 0 0.275 0 0 0 0.2 0"/>
<feBlend mode="normal" in2="effect1_backgroundBlur_208_3661" result="effect2_dropShadow_208_3661"/>
<feBlend mode="normal" in="SourceGraphic" in2="effect2_dropShadow_208_3661" result="shape"/>
</filter>
<filter id="filter4_bdd_208_3661" x="0.651489" y="25.9464" width="132.552" height="118.371" filterUnits="userSpaceOnUse" color-interpolation-filters="sRGB">
<feFlood flood-opacity="0" result="BackgroundImageFix"/>
<feGaussianBlur in="BackgroundImageFix" stdDeviation="7"/>
<feComposite in2="SourceAlpha" operator="in" result="effect1_backgroundBlur_208_3661"/>
<feColorMatrix in="SourceAlpha" type="matrix" values="0 0 0 0 0 0 0 0 0 0 0 0 0 0 0 0 0 0 127 0" result="hardAlpha"/>
<feOffset dx="-21" dy="15"/>
<feGaussianBlur stdDeviation="25"/>
<feComposite in2="hardAlpha" operator="out"/>
<feColorMatrix type="matrix" values="0 0 0 0 0.113438 0 0 0 0 0.148981 0 0 0 0 0.275 0 0 0 0.25 0"/>
<feBlend mode="normal" in2="effect1_backgroundBlur_208_3661" result="effect2_dropShadow_208_3661"/>
<feColorMatrix in="SourceAlpha" type="matrix" values="0 0 0 0 0 0 0 0 0 0 0 0 0 0 0 0 0 0 127 0" result="hardAlpha"/>
<feOffset dy="-7"/>
<feGaussianBlur stdDeviation="20.5"/>
<feComposite in2="hardAlpha" operator="out"/>
<feColorMatrix type="matrix" values="0 0 0 0 0.1375 0 0 0 0 0.74125 0 0 0 0 1 0 0 0 0.3 0"/>
<feBlend mode="normal" in2="effect2_dropShadow_208_3661" result="effect3_dropShadow_208_3661"/>
<feBlend mode="normal" in="SourceGraphic" in2="effect3_dropShadow_208_3661" result="shape"/>
</filter>
<filter id="filter5_bdd_208_3661" x="3.84918" y="32.5627" width="124.265" height="118.371" filterUnits="userSpaceOnUse" color-interpolation-filters="sRGB">
<feFlood flood-opacity="0" result="BackgroundImageFix"/>
<feGaussianBlur in="BackgroundImageFix" stdDeviation="7"/>
<feComposite in2="SourceAlpha" operator="in" result="effect1_backgroundBlur_208_3661"/>
<feColorMatrix in="SourceAlpha" type="matrix" values="0 0 0 0 0 0 0 0 0 0 0 0 0 0 0 0 0 0 127 0" result="hardAlpha"/>
<feOffset dx="-21" dy="15"/>
<feGaussianBlur stdDeviation="25"/>
<feComposite in2="hardAlpha" operator="out"/>
<feColorMatrix type="matrix" values="0 0 0 0 0.113438 0 0 0 0 0.148981 0 0 0 0 0.275 0 0 0 0.25 0"/>
<feBlend mode="normal" in2="effect1_backgroundBlur_208_3661" result="effect2_dropShadow_208_3661"/>
<feColorMatrix in="SourceAlpha" type="matrix" values="0 0 0 0 0 0 0 0 0 0 0 0 0 0 0 0 0 0 127 0" result="hardAlpha"/>
<feOffset dy="-7"/>
<feGaussianBlur stdDeviation="20.5"/>
<feComposite in2="hardAlpha" operator="out"/>
<feColorMatrix type="matrix" values="0 0 0 0 0.1375 0 0 0 0 0.74125 0 0 0 0 1 0 0 0 0.3 0"/>
<feBlend mode="normal" in2="effect2_dropShadow_208_3661" result="effect3_dropShadow_208_3661"/>
<feBlend mode="normal" in="SourceGraphic" in2="effect3_dropShadow_208_3661" result="shape"/>
</filter>
<linearGradient id="paint0_linear_208_3661" x1="80.6628" y1="44.5087" x2="80.6628" y2="62.8227" gradientUnits="userSpaceOnUse">
<stop stop-color="white"/>
<stop offset="1" stop-color="white" stop-opacity="0"/>
</linearGradient>
<linearGradient id="paint1_linear_208_3661" x1="79.5" y1="44" x2="79.5" y2="60.9118" gradientUnits="userSpaceOnUse">
<stop stop-color="white"/>
<stop offset="1" stop-color="white" stop-opacity="0"/>
</linearGradient>
<linearGradient id="paint2_linear_208_3661" x1="90.1105" y1="41.6018" x2="90.1105" y2="75.7587" gradientUnits="userSpaceOnUse">
<stop stop-color="white"/>
<stop offset="1" stop-color="white" stop-opacity="0"/>
</linearGradient>
<linearGradient id="paint3_linear_208_3661" x1="90.1105" y1="49.0872" x2="90.1105" y2="72.4884" gradientUnits="userSpaceOnUse">
<stop stop-color="white"/>
<stop offset="1" stop-color="white" stop-opacity="0"/>
</linearGradient>
<linearGradient id="paint4_linear_208_3661" x1="106.026" y1="63.4768" x2="102.392" y2="79.2471" gradientUnits="userSpaceOnUse">
<stop stop-color="#FF4D00"/>
<stop offset="1" stop-color="#FFB800"/>
</linearGradient>
<linearGradient id="paint5_linear_208_3661" x1="101.157" y1="79.0291" x2="107.77" y2="64.8576" gradientUnits="userSpaceOnUse">
<stop stop-color="white"/>
<stop offset="1" stop-color="white" stop-opacity="0"/>
</linearGradient>
<linearGradient id="paint6_linear_208_3661" x1="105.663" y1="49.5959" x2="105.663" y2="67.9099" gradientUnits="userSpaceOnUse">
<stop stop-color="white"/>
<stop offset="1" stop-color="white" stop-opacity="0"/>
</linearGradient>
<linearGradient id="paint7_linear_208_3661" x1="104.5" y1="49.0872" x2="104.5" y2="65.999" gradientUnits="userSpaceOnUse">
<stop stop-color="white"/>
<stop offset="1" stop-color="white" stop-opacity="0"/>
</linearGradient>
<linearGradient id="paint8_linear_208_3661" x1="75.1258" y1="72.2827" x2="73.0116" y2="79.2332" gradientUnits="userSpaceOnUse">
<stop stop-color="#138EFF"/>
<stop offset="1" stop-color="#00E0FF"/>
</linearGradient>
<linearGradient id="paint9_linear_208_3661" x1="75.1258" y1="72.2827" x2="73.0116" y2="79.2332" gradientUnits="userSpaceOnUse">
<stop stop-color="white"/>
<stop offset="1" stop-color="white" stop-opacity="0"/>
</linearGradient>
<linearGradient id="paint10_linear_208_3661" x1="83.4844" y1="72.2827" x2="81.3702" y2="79.2332" gradientUnits="userSpaceOnUse">
<stop stop-color="#138EFF"/>
<stop offset="1" stop-color="#00E0FF"/>
</linearGradient>
<linearGradient id="paint11_linear_208_3661" x1="83.4844" y1="72.2827" x2="81.3702" y2="79.2332" gradientUnits="userSpaceOnUse">
<stop stop-color="white"/>
<stop offset="1" stop-color="white" stop-opacity="0"/>
</linearGradient>
<linearGradient id="paint12_linear_208_3661" x1="91.843" y1="72.2827" x2="89.7288" y2="79.2332" gradientUnits="userSpaceOnUse">
<stop stop-color="#138EFF"/>
<stop offset="1" stop-color="#00E0FF"/>
</linearGradient>
<linearGradient id="paint13_linear_208_3661" x1="91.843" y1="72.2827" x2="89.7288" y2="79.2332" gradientUnits="userSpaceOnUse">
<stop stop-color="white"/>
<stop offset="1" stop-color="white" stop-opacity="0"/>
</linearGradient>
<linearGradient id="paint14_linear_208_3661" x1="78.3235" y1="78.899" x2="76.2093" y2="85.8495" gradientUnits="userSpaceOnUse">
<stop stop-color="#138EFF"/>
<stop offset="1" stop-color="#00E0FF"/>
</linearGradient>
<linearGradient id="paint15_linear_208_3661" x1="78.3235" y1="78.899" x2="76.2093" y2="85.8495" gradientUnits="userSpaceOnUse">
<stop stop-color="white"/>
<stop offset="1" stop-color="white" stop-opacity="0"/>
</linearGradient>
<linearGradient id="paint16_linear_208_3661" x1="86.7537" y1="78.899" x2="84.6395" y2="85.8495" gradientUnits="userSpaceOnUse">
<stop stop-color="#138EFF"/>
<stop offset="1" stop-color="#00E0FF"/>
</linearGradient>
<linearGradient id="paint17_linear_208_3661" x1="86.7537" y1="78.899" x2="84.6395" y2="85.8495" gradientUnits="userSpaceOnUse">
<stop stop-color="white"/>
<stop offset="1" stop-color="white" stop-opacity="0"/>
</linearGradient>
</defs>
</svg>
