<svg width="129" height="129" viewBox="0 0 129 129" fill="none" xmlns="http://www.w3.org/2000/svg">
<g filter="url(#filter0_f_208_3472)">
<circle cx="78.3378" cy="45.0329" r="10.0329" fill="#FFC701" fill-opacity="0.5"/>
</g>
<circle cx="78.3377" cy="45.3618" r="8.70395" fill="url(#paint0_linear_208_3472)" stroke="url(#paint1_linear_208_3472)" stroke-width="2"/>
<mask id="mask0_208_3472" style="mask-type:alpha" maskUnits="userSpaceOnUse" x="68" y="41" width="21" height="15">
<path d="M88.0417 45.3619C88.0417 50.7212 83.6971 55.0658 78.3377 55.0658C72.9784 55.0658 68.6338 50.7212 68.6338 45.3619C68.6338 40.0025 72.2383 41.25 77.5976 41.25C82.957 41.25 88.0417 40.0025 88.0417 45.3619Z" fill="url(#paint2_linear_208_3472)"/>
</mask>
<g mask="url(#mask0_208_3472)">
<g filter="url(#filter1_f_208_3472)">
<path fill-rule="evenodd" clip-rule="evenodd" d="M85.9858 70.1969C86.0131 70.1972 86.0405 70.1974 86.068 70.1974C89.9739 70.1974 93.1403 67.031 93.1403 63.125C93.1403 59.2191 89.9739 56.0526 86.068 56.0526C86.0405 56.0526 86.0131 56.0528 85.9858 56.0531V56.0526H81.4771C81.5758 55.4643 81.6272 54.8599 81.6272 54.2435C81.6272 48.2483 76.7672 43.3882 70.772 43.3882C64.7768 43.3882 59.9167 48.2483 59.9167 54.2435C59.9167 54.8839 59.9722 55.5113 60.0785 56.1213C56.641 56.6025 53.9956 59.5548 53.9956 63.125C53.9956 67.031 57.162 70.1974 61.068 70.1974C61.0956 70.1974 61.1231 70.1972 61.1506 70.1969L61.1502 70.1974H85.9858V70.1969Z" fill="#E18700"/>
</g>
</g>
<g filter="url(#filter2_bd_208_3472)">
<mask id="path-5-inside-1_208_3472" fill="white">
<path fill-rule="evenodd" clip-rule="evenodd" d="M81.874 71.0193C81.9013 71.0196 81.9287 71.0197 81.9562 71.0197C85.8622 71.0197 89.0286 67.8533 89.0286 63.9474C89.0286 60.0414 85.8622 56.875 81.9562 56.875C81.9287 56.875 81.9013 56.8751 81.874 56.8755V56.875H80.0468C80.1128 56.391 80.1469 55.8968 80.1469 55.3947C80.1469 49.3995 75.2869 44.5394 69.2917 44.5394C63.2965 44.5394 58.4364 49.3995 58.4364 55.3947C58.4364 55.9604 58.4797 56.516 58.5631 57.0583C58.0468 56.9384 57.5089 56.875 56.9562 56.875C53.0502 56.875 49.8838 60.0414 49.8838 63.9474C49.8838 67.8533 53.0502 71.0197 56.9562 71.0197C56.9837 71.0197 57.0113 71.0196 57.0388 71.0193L57.0384 71.0197H81.874V71.0193Z"/>
</mask>
<path fill-rule="evenodd" clip-rule="evenodd" d="M81.874 71.0193C81.9013 71.0196 81.9287 71.0197 81.9562 71.0197C85.8622 71.0197 89.0286 67.8533 89.0286 63.9474C89.0286 60.0414 85.8622 56.875 81.9562 56.875C81.9287 56.875 81.9013 56.8751 81.874 56.8755V56.875H80.0468C80.1128 56.391 80.1469 55.8968 80.1469 55.3947C80.1469 49.3995 75.2869 44.5394 69.2917 44.5394C63.2965 44.5394 58.4364 49.3995 58.4364 55.3947C58.4364 55.9604 58.4797 56.516 58.5631 57.0583C58.0468 56.9384 57.5089 56.875 56.9562 56.875C53.0502 56.875 49.8838 60.0414 49.8838 63.9474C49.8838 67.8533 53.0502 71.0197 56.9562 71.0197C56.9837 71.0197 57.0113 71.0196 57.0388 71.0193L57.0384 71.0197H81.874V71.0193Z" fill="url(#paint3_linear_208_3472)" shape-rendering="crispEdges"/>
<path d="M81.874 71.0193L81.8968 69.0194C81.3624 69.0133 80.8479 69.2213 80.4678 69.597C80.0878 69.9727 79.874 70.4849 79.874 71.0193H81.874ZM81.874 56.8755H79.874C79.874 57.4098 80.0878 57.922 80.4678 58.2977C80.8478 58.6734 81.3624 58.8814 81.8967 58.8753L81.874 56.8755ZM81.874 56.875H83.874C83.874 55.7704 82.9785 54.875 81.874 54.875V56.875ZM80.0468 56.875L78.0652 56.6048C77.9872 57.177 78.1603 57.7551 78.5401 58.1902C78.9199 58.6253 79.4693 58.875 80.0468 58.875V56.875ZM58.5631 57.0583L58.1105 59.0065C58.757 59.1567 59.436 58.9763 59.9228 58.525C60.4096 58.0738 60.6407 57.4104 60.5398 56.7543L58.5631 57.0583ZM57.0388 71.0193L58.6094 72.2574C59.0864 71.6524 59.1734 70.8273 58.8333 70.1361C58.4931 69.445 57.7862 69.0106 57.0159 69.0194L57.0388 71.0193ZM57.0384 71.0197L55.4678 69.7816C54.9934 70.3833 54.9045 71.2032 55.2389 71.8926C55.5733 72.582 56.2722 73.0197 57.0384 73.0197V71.0197ZM81.874 71.0197V73.0197C82.9785 73.0197 83.874 72.1243 83.874 71.0197H81.874ZM81.8511 73.0191C81.8861 73.0195 81.9212 73.0197 81.9562 73.0197V69.0197C81.9363 69.0197 81.9165 69.0196 81.8968 69.0194L81.8511 73.0191ZM81.9562 73.0197C86.9667 73.0197 91.0286 68.9579 91.0286 63.9474H87.0286C87.0286 66.7488 84.7576 69.0197 81.9562 69.0197V73.0197ZM91.0286 63.9474C91.0286 58.9368 86.9667 54.875 81.9562 54.875V58.875C84.7576 58.875 87.0286 61.146 87.0286 63.9474H91.0286ZM81.9562 54.875C81.9212 54.875 81.8861 54.8752 81.8512 54.8756L81.8967 58.8753C81.9165 58.8751 81.9363 58.875 81.9562 58.875V54.875ZM79.874 56.875V56.8755H83.874V56.875H79.874ZM80.0468 58.875H81.874V54.875H80.0468V58.875ZM82.0285 57.1452C82.1067 56.5719 82.1469 55.9875 82.1469 55.3947H78.1469C78.1469 55.8062 78.119 56.2101 78.0652 56.6048L82.0285 57.1452ZM82.1469 55.3947C82.1469 48.2949 76.3914 42.5394 69.2917 42.5394V46.5394C74.1823 46.5394 78.1469 50.5041 78.1469 55.3947H82.1469ZM69.2917 42.5394C62.1919 42.5394 56.4364 48.2949 56.4364 55.3947H60.4364C60.4364 50.5041 64.401 46.5394 69.2917 46.5394V42.5394ZM56.4364 55.3947C56.4364 56.0625 56.4875 56.7198 56.5863 57.3624L60.5398 56.7543C60.4718 56.3122 60.4364 55.8583 60.4364 55.3947H56.4364ZM59.0157 55.1102C58.3521 54.9561 57.6623 54.875 56.9562 54.875V58.875C57.3555 58.875 57.7416 58.9207 58.1105 59.0065L59.0157 55.1102ZM56.9562 54.875C51.9456 54.875 47.8838 58.9368 47.8838 63.9474H51.8838C51.8838 61.146 54.1548 58.875 56.9562 58.875V54.875ZM47.8838 63.9474C47.8838 68.9579 51.9456 73.0197 56.9562 73.0197V69.0197C54.1548 69.0197 51.8838 66.7488 51.8838 63.9474H47.8838ZM56.9562 73.0197C56.9914 73.0197 57.0266 73.0195 57.0617 73.0191L57.0159 69.0194C56.996 69.0196 56.9761 69.0197 56.9562 69.0197V73.0197ZM58.6091 72.2579L58.6094 72.2574L55.4681 69.7811L55.4678 69.7816L58.6091 72.2579ZM81.874 69.0197H57.0384V73.0197H81.874V69.0197ZM79.874 71.0193V71.0197H83.874V71.0193H79.874Z" fill="url(#paint4_linear_208_3472)" mask="url(#path-5-inside-1_208_3472)"/>
</g>
<g filter="url(#filter3_bd_208_3472)">
<mask id="path-7-inside-2_208_3472" fill="white">
<path fill-rule="evenodd" clip-rule="evenodd" d="M94.7133 63.6761C94.733 63.6763 94.7528 63.6764 94.7727 63.6764C97.5955 63.6764 99.8838 61.3881 99.8838 58.5653C99.8838 55.7425 97.5955 53.4542 94.7727 53.4542C94.7528 53.4542 94.733 53.4543 94.7133 53.4545V53.4542H93.3928C93.4405 53.1044 93.4652 52.7473 93.4652 52.3844C93.4652 48.0517 89.9529 44.5394 85.6202 44.5394C81.2875 44.5394 77.7752 48.0517 77.7752 52.3844C77.7752 52.7932 77.8065 53.1948 77.8668 53.5867C77.4937 53.5 77.1049 53.4542 76.7054 53.4542C73.8826 53.4542 71.5943 55.7425 71.5943 58.5653C71.5943 61.3881 73.8826 63.6764 76.7054 63.6764C76.7254 63.6764 76.7453 63.6763 76.7652 63.6761L76.7649 63.6764H94.7133V63.6761Z"/>
</mask>
<path fill-rule="evenodd" clip-rule="evenodd" d="M94.7133 63.6761C94.733 63.6763 94.7528 63.6764 94.7727 63.6764C97.5955 63.6764 99.8838 61.3881 99.8838 58.5653C99.8838 55.7425 97.5955 53.4542 94.7727 53.4542C94.7528 53.4542 94.733 53.4543 94.7133 53.4545V53.4542H93.3928C93.4405 53.1044 93.4652 52.7473 93.4652 52.3844C93.4652 48.0517 89.9529 44.5394 85.6202 44.5394C81.2875 44.5394 77.7752 48.0517 77.7752 52.3844C77.7752 52.7932 77.8065 53.1948 77.8668 53.5867C77.4937 53.5 77.1049 53.4542 76.7054 53.4542C73.8826 53.4542 71.5943 55.7425 71.5943 58.5653C71.5943 61.3881 73.8826 63.6764 76.7054 63.6764C76.7254 63.6764 76.7453 63.6763 76.7652 63.6761L76.7649 63.6764H94.7133V63.6761Z" fill="url(#paint5_linear_208_3472)" shape-rendering="crispEdges"/>
<path d="M94.7133 63.6761L94.736 61.6762C94.2017 61.6702 93.6871 61.8782 93.3071 62.2539C92.9271 62.6296 92.7133 63.1417 92.7133 63.6761H94.7133ZM94.7133 53.4545H92.7133C92.7133 53.9889 92.9271 54.5011 93.3071 54.8768C93.6871 55.2525 94.2017 55.4605 94.736 55.4544L94.7133 53.4545ZM94.7133 53.4542H96.7133C96.7133 52.3496 95.8178 51.4542 94.7133 51.4542V53.4542ZM93.3928 53.4542L91.4112 53.184C91.3332 53.7562 91.5063 54.3343 91.8861 54.7694C92.2659 55.2045 92.8153 55.4542 93.3928 55.4542V53.4542ZM77.8668 53.5867L77.4141 55.5348C78.0607 55.685 78.7397 55.5047 79.2265 55.0534C79.7133 54.6021 79.9444 53.9388 79.8435 53.2827L77.8668 53.5867ZM76.7652 63.6761L78.3352 64.915C78.8125 64.3102 78.8999 63.4849 78.5598 62.7935C78.2198 62.102 77.5128 61.6674 76.7423 61.6762L76.7652 63.6761ZM76.7649 63.6764L75.1948 62.4375C74.7201 63.0392 74.6309 63.8592 74.9652 64.5488C75.2995 65.2385 75.9985 65.6764 76.7649 65.6764V63.6764ZM94.7133 63.6764V65.6764C95.8178 65.6764 96.7133 64.781 96.7133 63.6764H94.7133ZM94.6905 65.676C94.7179 65.6763 94.7453 65.6764 94.7727 65.6764V61.6764C94.7604 61.6764 94.7482 61.6764 94.736 61.6762L94.6905 65.676ZM94.7727 65.6764C98.7 65.6764 101.884 62.4927 101.884 58.5653H97.8838C97.8838 60.2835 96.4909 61.6764 94.7727 61.6764V65.6764ZM101.884 58.5653C101.884 54.6379 98.7 51.4542 94.7727 51.4542V55.4542C96.4909 55.4542 97.8838 56.8471 97.8838 58.5653H101.884ZM94.7727 51.4542C94.7452 51.4542 94.7178 51.4543 94.6905 51.4547L94.736 55.4544C94.7482 55.4543 94.7605 55.4542 94.7727 55.4542V51.4542ZM92.7133 53.4542V53.4545H96.7133V53.4542H92.7133ZM93.3928 55.4542H94.7133V51.4542H93.3928V55.4542ZM95.3745 53.7244C95.4344 53.2853 95.4652 52.8379 95.4652 52.3844H91.4652C91.4652 52.6567 91.4467 52.9235 91.4112 53.184L95.3745 53.7244ZM95.4652 52.3844C95.4652 46.9472 91.0574 42.5394 85.6202 42.5394V46.5394C88.8483 46.5394 91.4652 49.1563 91.4652 52.3844H95.4652ZM85.6202 42.5394C80.183 42.5394 75.7752 46.9472 75.7752 52.3844H79.7752C79.7752 49.1563 82.3921 46.5394 85.6202 46.5394V42.5394ZM75.7752 52.3844C75.7752 52.8954 75.8143 53.3985 75.89 53.8907L79.8435 53.2827C79.7987 52.991 79.7752 52.6911 79.7752 52.3844H75.7752ZM78.3194 51.6386C77.7989 51.5177 77.2583 51.4542 76.7054 51.4542V55.4542C76.9515 55.4542 77.1884 55.4824 77.4141 55.5348L78.3194 51.6386ZM76.7054 51.4542C72.7781 51.4542 69.5943 54.6379 69.5943 58.5653H73.5943C73.5943 56.8471 74.9872 55.4542 76.7054 55.4542V51.4542ZM69.5943 58.5653C69.5943 62.4927 72.7781 65.6764 76.7054 65.6764V61.6764C74.9872 61.6764 73.5943 60.2835 73.5943 58.5653H69.5943ZM76.7054 65.6764C76.733 65.6764 76.7605 65.6763 76.788 65.676L76.7423 61.6762C76.73 61.6764 76.7177 61.6764 76.7054 61.6764V65.6764ZM78.3349 64.9154L78.3352 64.915L75.1951 62.4372L75.1948 62.4375L78.3349 64.9154ZM94.7133 61.6764H76.7649V65.6764H94.7133V61.6764ZM92.7133 63.6761V63.6764H96.7133V63.6761H92.7133Z" fill="url(#paint6_linear_208_3472)" mask="url(#path-7-inside-2_208_3472)"/>
</g>
<defs>
<filter id="filter0_f_208_3472" x="33.3049" y="0" width="90.0658" height="90.0658" filterUnits="userSpaceOnUse" color-interpolation-filters="sRGB">
<feFlood flood-opacity="0" result="BackgroundImageFix"/>
<feBlend mode="normal" in="SourceGraphic" in2="BackgroundImageFix" result="shape"/>
<feGaussianBlur stdDeviation="17.5" result="effect1_foregroundBlur_208_3472"/>
</filter>
<filter id="filter1_f_208_3472" x="39.9956" y="29.3882" width="67.1447" height="54.8092" filterUnits="userSpaceOnUse" color-interpolation-filters="sRGB">
<feFlood flood-opacity="0" result="BackgroundImageFix"/>
<feBlend mode="normal" in="SourceGraphic" in2="BackgroundImageFix" result="shape"/>
<feGaussianBlur stdDeviation="7" result="effect1_foregroundBlur_208_3472"/>
</filter>
<filter id="filter2_bd_208_3472" x="19.8838" y="25.5394" width="89.1448" height="76.4803" filterUnits="userSpaceOnUse" color-interpolation-filters="sRGB">
<feFlood flood-opacity="0" result="BackgroundImageFix"/>
<feGaussianBlur in="BackgroundImageFix" stdDeviation="5"/>
<feComposite in2="SourceAlpha" operator="in" result="effect1_backgroundBlur_208_3472"/>
<feColorMatrix in="SourceAlpha" type="matrix" values="0 0 0 0 0 0 0 0 0 0 0 0 0 0 0 0 0 0 127 0" result="hardAlpha"/>
<feOffset dx="-5" dy="6"/>
<feGaussianBlur stdDeviation="12.5"/>
<feComposite in2="hardAlpha" operator="out"/>
<feColorMatrix type="matrix" values="0 0 0 0 0.113725 0 0 0 0 0.14902 0 0 0 0 0.27451 0 0 0 0.15 0"/>
<feBlend mode="normal" in2="effect1_backgroundBlur_208_3472" result="effect2_dropShadow_208_3472"/>
<feBlend mode="normal" in="SourceGraphic" in2="effect2_dropShadow_208_3472" result="shape"/>
</filter>
<filter id="filter3_bd_208_3472" x="0.594299" y="9.53943" width="128.289" height="119.137" filterUnits="userSpaceOnUse" color-interpolation-filters="sRGB">
<feFlood flood-opacity="0" result="BackgroundImageFix"/>
<feGaussianBlur in="BackgroundImageFix" stdDeviation="7"/>
<feComposite in2="SourceAlpha" operator="in" result="effect1_backgroundBlur_208_3472"/>
<feColorMatrix in="SourceAlpha" type="matrix" values="0 0 0 0 0 0 0 0 0 0 0 0 0 0 0 0 0 0 127 0" result="hardAlpha"/>
<feOffset dx="-21" dy="15"/>
<feGaussianBlur stdDeviation="25"/>
<feComposite in2="hardAlpha" operator="out"/>
<feColorMatrix type="matrix" values="0 0 0 0 0.113438 0 0 0 0 0.148981 0 0 0 0 0.275 0 0 0 0.25 0"/>
<feBlend mode="normal" in2="effect1_backgroundBlur_208_3472" result="effect2_dropShadow_208_3472"/>
<feBlend mode="normal" in="SourceGraphic" in2="effect2_dropShadow_208_3472" result="shape"/>
</filter>
<linearGradient id="paint0_linear_208_3472" x1="78.3377" y1="35.6578" x2="78.3377" y2="55.0657" gradientUnits="userSpaceOnUse">
<stop stop-color="#FFE600"/>
<stop offset="1" stop-color="#FF7A00"/>
</linearGradient>
<linearGradient id="paint1_linear_208_3472" x1="78.3377" y1="35.6578" x2="78.3377" y2="55.0657" gradientUnits="userSpaceOnUse">
<stop stop-color="white"/>
<stop offset="1" stop-color="white" stop-opacity="0"/>
</linearGradient>
<linearGradient id="paint2_linear_208_3472" x1="78.3377" y1="35.6579" x2="78.3377" y2="55.0658" gradientUnits="userSpaceOnUse">
<stop stop-color="#FFD600"/>
<stop offset="1" stop-color="#FF7A00"/>
</linearGradient>
<linearGradient id="paint3_linear_208_3472" x1="69.4562" y1="36.069" x2="69.4562" y2="74.7204" gradientUnits="userSpaceOnUse">
<stop stop-color="white"/>
<stop offset="1" stop-color="white" stop-opacity="0"/>
</linearGradient>
<linearGradient id="paint4_linear_208_3472" x1="69.4562" y1="44.5394" x2="69.4562" y2="71.0197" gradientUnits="userSpaceOnUse">
<stop stop-color="white"/>
<stop offset="1" stop-color="white" stop-opacity="0"/>
</linearGradient>
<linearGradient id="paint5_linear_208_3472" x1="87.0548" y1="45.1151" x2="87.0548" y2="65.8388" gradientUnits="userSpaceOnUse">
<stop stop-color="white"/>
<stop offset="1" stop-color="white" stop-opacity="0"/>
</linearGradient>
<linearGradient id="paint6_linear_208_3472" x1="85.739" y1="44.5394" x2="85.739" y2="63.6764" gradientUnits="userSpaceOnUse">
<stop stop-color="white"/>
<stop offset="1" stop-color="white" stop-opacity="0"/>
</linearGradient>
</defs>
</svg>
