<svg width="83" height="69" viewBox="0 0 83 69" fill="none" xmlns="http://www.w3.org/2000/svg">
<g filter="url(#filter0_dd_208_3492)">
<mask id="path-1-inside-1_208_3492" fill="white">
<path fill-rule="evenodd" clip-rule="evenodd" d="M52.7056 47.2607C52.7455 47.2612 52.7855 47.2614 52.8256 47.2614C58.5283 47.2614 63.1513 42.3275 63.1513 36.2413C63.1513 30.155 58.5283 25.2212 52.8256 25.2212C52.7855 25.2212 52.7455 25.2214 52.7056 25.2219V25.2212H50.0381C50.1344 24.467 50.1842 23.697 50.1842 22.9146C50.1842 13.5729 43.0885 6 34.3355 6C25.5825 6 18.4868 13.5729 18.4868 22.9146C18.4868 23.7961 18.55 24.6618 18.6718 25.5069C17.918 25.32 17.1327 25.2212 16.3257 25.2212C10.623 25.2212 6 30.155 6 36.2413C6 42.3275 10.623 47.2614 16.3257 47.2614C16.3659 47.2614 16.4061 47.2612 16.4462 47.2607L16.4457 47.2614H52.7056V47.2607Z"/>
</mask>
<path fill-rule="evenodd" clip-rule="evenodd" d="M52.7056 47.2607C52.7455 47.2612 52.7855 47.2614 52.8256 47.2614C58.5283 47.2614 63.1513 42.3275 63.1513 36.2413C63.1513 30.155 58.5283 25.2212 52.8256 25.2212C52.7855 25.2212 52.7455 25.2214 52.7056 25.2219V25.2212H50.0381C50.1344 24.467 50.1842 23.697 50.1842 22.9146C50.1842 13.5729 43.0885 6 34.3355 6C25.5825 6 18.4868 13.5729 18.4868 22.9146C18.4868 23.7961 18.55 24.6618 18.6718 25.5069C17.918 25.32 17.1327 25.2212 16.3257 25.2212C10.623 25.2212 6 30.155 6 36.2413C6 42.3275 10.623 47.2614 16.3257 47.2614C16.3659 47.2614 16.4061 47.2612 16.4462 47.2607L16.4457 47.2614H52.7056V47.2607Z" fill="url(#paint0_linear_208_3492)" shape-rendering="crispEdges"/>
<path d="M52.7056 47.2607L52.7298 45.2608C52.1952 45.2544 51.6803 45.4622 51.3 45.8379C50.9196 46.2137 50.7056 46.7261 50.7056 47.2607H52.7056ZM52.7056 25.2219H50.7056C50.7056 25.7565 50.9196 26.2689 51.3 26.6447C51.6803 27.0204 52.1953 27.2282 52.7299 27.2217L52.7056 25.2219ZM52.7056 25.2212H54.7056C54.7056 24.1166 53.8101 23.2212 52.7056 23.2212V25.2212ZM50.0381 25.2212L48.0542 24.9677C47.9814 25.5377 48.1572 26.1114 48.5369 26.5427C48.9166 26.974 49.4634 27.2212 50.0381 27.2212V25.2212ZM18.6718 25.5069L18.1904 27.4481C18.8365 27.6083 19.52 27.4365 20.0136 26.9899C20.5072 26.5434 20.7463 25.8804 20.6513 25.2216L18.6718 25.5069ZM16.4462 47.2607L18.0552 48.4486C18.5062 47.8378 18.5724 47.0244 18.2262 46.3487C17.88 45.673 17.1811 45.2516 16.4219 45.2608L16.4462 47.2607ZM16.4457 47.2614L14.8367 46.0735C14.3884 46.6808 14.3201 47.4887 14.6602 48.1626C15.0003 48.8365 15.6909 49.2614 16.4457 49.2614V47.2614ZM52.7056 47.2614V49.2614C53.8101 49.2614 54.7056 48.366 54.7056 47.2614H52.7056ZM52.6813 49.2606C52.7293 49.2611 52.7774 49.2614 52.8256 49.2614V45.2614C52.7937 45.2614 52.7617 45.2612 52.7298 45.2608L52.6813 49.2606ZM52.8256 49.2614C59.7535 49.2614 65.1513 43.3075 65.1513 36.2413H61.1513C61.1513 41.3476 57.3031 45.2614 52.8256 45.2614V49.2614ZM65.1513 36.2413C65.1513 29.1751 59.7535 23.2212 52.8256 23.2212V27.2212C57.3031 27.2212 61.1513 31.135 61.1513 36.2413H65.1513ZM52.8256 23.2212C52.7775 23.2212 52.7294 23.2215 52.6812 23.222L52.7299 27.2217C52.7617 27.2214 52.7936 27.2212 52.8256 27.2212V23.2212ZM50.7056 25.2212V25.2219H54.7056V25.2212H50.7056ZM50.0381 27.2212H52.7056V23.2212H50.0381V27.2212ZM52.0219 25.4746C52.129 24.6365 52.1842 23.7819 52.1842 22.9146H48.1842C48.1842 23.6121 48.1398 24.2975 48.0542 24.9677L52.0219 25.4746ZM52.1842 22.9146C52.1842 12.593 44.3137 4 34.3355 4V8C41.8633 8 48.1842 14.5529 48.1842 22.9146H52.1842ZM34.3355 4C24.3573 4 16.4868 12.593 16.4868 22.9146H20.4868C20.4868 14.5529 26.8077 8 34.3355 8V4ZM16.4868 22.9146C16.4868 23.8917 16.5568 24.8528 16.6922 25.7921L20.6513 25.2216C20.5431 24.4708 20.4868 23.7004 20.4868 22.9146H16.4868ZM19.1531 23.5656C18.2436 23.3401 17.2966 23.2212 16.3257 23.2212V27.2212C16.9687 27.2212 17.5925 27.2998 18.1904 27.4481L19.1531 23.5656ZM16.3257 23.2212C9.39775 23.2212 4 29.1751 4 36.2413H8C8 31.135 11.8482 27.2212 16.3257 27.2212V23.2212ZM4 36.2413C4 43.3075 9.39775 49.2614 16.3257 49.2614V45.2614C11.8482 45.2614 8 41.3476 8 36.2413H4ZM16.3257 49.2614C16.3741 49.2614 16.4224 49.2611 16.4706 49.2605L16.4219 45.2608C16.3898 45.2612 16.3577 45.2614 16.3257 45.2614V49.2614ZM18.0547 48.4493L18.0552 48.4486L14.8372 46.0728L14.8367 46.0735L18.0547 48.4493ZM52.7056 45.2614H16.4457V49.2614H52.7056V45.2614ZM50.7056 47.2607V47.2614H54.7056V47.2607H50.7056Z" fill="url(#paint1_linear_208_3492)" mask="url(#path-1-inside-1_208_3492)"/>
</g>
<g filter="url(#filter1_d_208_3492)">
<mask id="path-3-inside-2_208_3492" fill="white">
<path fill-rule="evenodd" clip-rule="evenodd" d="M71.451 35.8186C71.4799 35.819 71.5088 35.8192 71.5378 35.8192C75.659 35.8192 79 32.2535 79 27.855C79 23.4566 75.659 19.8909 71.5378 19.8909C71.5088 19.8909 71.4799 19.8911 71.451 19.8914V19.8909H69.5232C69.5929 19.3459 69.6288 18.7894 69.6288 18.224C69.6288 11.4729 64.5009 6 58.1752 6C51.8495 6 46.7215 11.4729 46.7215 18.224C46.7215 18.861 46.7671 19.4867 46.8552 20.0974C46.3104 19.9623 45.7428 19.8909 45.1596 19.8909C41.0383 19.8909 37.6974 23.4566 37.6974 27.855C37.6974 32.2535 41.0383 35.8192 45.1596 35.8192C45.1887 35.8192 45.2177 35.819 45.2467 35.8186L45.2463 35.8192H71.451V35.8186Z"/>
</mask>
<path fill-rule="evenodd" clip-rule="evenodd" d="M71.451 35.8186C71.4799 35.819 71.5088 35.8192 71.5378 35.8192C75.659 35.8192 79 32.2535 79 27.855C79 23.4566 75.659 19.8909 71.5378 19.8909C71.5088 19.8909 71.4799 19.8911 71.451 19.8914V19.8909H69.5232C69.5929 19.3459 69.6288 18.7894 69.6288 18.224C69.6288 11.4729 64.5009 6 58.1752 6C51.8495 6 46.7215 11.4729 46.7215 18.224C46.7215 18.861 46.7671 19.4867 46.8552 20.0974C46.3104 19.9623 45.7428 19.8909 45.1596 19.8909C41.0383 19.8909 37.6974 23.4566 37.6974 27.855C37.6974 32.2535 41.0383 35.8192 45.1596 35.8192C45.1887 35.8192 45.2177 35.819 45.2467 35.8186L45.2463 35.8192H71.451V35.8186Z" fill="url(#paint2_linear_208_3492)" shape-rendering="crispEdges"/>
<path d="M71.451 35.8186L71.4753 33.8188C70.9407 33.8123 70.4257 34.0201 70.0454 34.3959C69.665 34.7716 69.451 35.284 69.451 35.8186H71.451ZM71.451 19.8914H69.451C69.451 20.4261 69.665 20.9385 70.0454 21.3142C70.4257 21.69 70.9407 21.8978 71.4753 21.8913L71.451 19.8914ZM71.451 19.8909H73.451C73.451 18.7863 72.5555 17.8909 71.451 17.8909V19.8909ZM69.5232 19.8909L67.5394 19.6375C67.4665 20.2074 67.6424 20.7812 68.0221 21.2125C68.4018 21.6438 68.9486 21.8909 69.5232 21.8909V19.8909ZM46.8552 20.0974L46.3738 22.0386C47.0199 22.1988 47.7033 22.0271 48.197 21.5805C48.6906 21.1339 48.9296 20.471 48.8347 19.8121L46.8552 20.0974ZM45.2467 35.8186L46.8557 37.0066C47.3067 36.3958 47.3729 35.5823 47.0267 34.9066C46.6805 34.2309 45.9815 33.8095 45.2223 33.8188L45.2467 35.8186ZM45.2463 35.8192L43.6374 34.6312C43.189 35.2385 43.1208 36.0464 43.4609 36.7203C43.801 37.3942 44.4915 37.8192 45.2463 37.8192V35.8192ZM71.451 35.8192V37.8192C72.5555 37.8192 73.451 36.9237 73.451 35.8192H71.451ZM71.4267 37.8185C71.4636 37.8189 71.5006 37.8192 71.5378 37.8192V33.8192C71.517 33.8192 71.4961 33.819 71.4753 33.8188L71.4267 37.8185ZM71.5378 37.8192C76.8842 37.8192 81 33.2334 81 27.855H77C77 31.2736 74.4338 33.8192 71.5378 33.8192V37.8192ZM81 27.855C81 22.4766 76.8842 17.8909 71.5378 17.8909V21.8909C74.4338 21.8909 77 24.4365 77 27.855H81ZM71.5378 17.8909C71.5007 17.8909 71.4637 17.8911 71.4266 17.8916L71.4753 21.8913C71.4961 21.891 71.5169 21.8909 71.5378 21.8909V17.8909ZM69.451 19.8909V19.8914H73.451V19.8909H69.451ZM69.5232 21.8909H71.451V17.8909H69.5232V21.8909ZM71.5071 20.1444C71.5875 19.5154 71.6288 18.8743 71.6288 18.224H67.6288C67.6288 18.7045 67.5983 19.1763 67.5394 19.6375L71.5071 20.1444ZM71.6288 18.224C71.6288 10.4929 65.7261 4 58.1752 4V8C63.2756 8 67.6288 12.4528 67.6288 18.224H71.6288ZM58.1752 4C50.6243 4 44.7215 10.4929 44.7215 18.224H48.7215C48.7215 12.4528 53.0747 8 58.1752 8V4ZM44.7215 18.224C44.7215 18.9567 44.774 19.6776 44.8756 20.3827L48.8347 19.8121C48.7603 19.2957 48.7215 18.7654 48.7215 18.224H44.7215ZM47.3365 18.1562C46.636 17.9825 45.9068 17.8909 45.1596 17.8909V21.8909C45.5789 21.8909 45.9849 21.9422 46.3738 22.0386L47.3365 18.1562ZM45.1596 17.8909C39.8131 17.8909 35.6974 22.4766 35.6974 27.855H39.6974C39.6974 24.4365 42.2635 21.8909 45.1596 21.8909V17.8909ZM35.6974 27.855C35.6974 33.2334 39.8131 37.8192 45.1596 37.8192V33.8192C42.2635 33.8192 39.6974 31.2736 39.6974 27.855H35.6974ZM45.1596 37.8192C45.1968 37.8192 45.234 37.8189 45.2712 37.8185L45.2223 33.8188C45.2014 33.819 45.1806 33.8192 45.1596 33.8192V37.8192ZM46.8553 37.0071L46.8557 37.0066L43.6378 34.6307L43.6374 34.6312L46.8553 37.0071ZM71.451 33.8192H45.2463V37.8192H71.451V33.8192ZM69.451 35.8186V35.8192H73.451V35.8186H69.451Z" fill="url(#paint3_linear_208_3492)" mask="url(#path-3-inside-2_208_3492)"/>
</g>
<g filter="url(#filter2_d_208_3492)">
<path d="M30.5242 41.4802L30.8062 45.6942C30.9115 47.2676 29.4549 48.4224 27.9722 47.9411C26.4894 47.4597 25.8821 45.6349 26.7905 44.3905L29.2233 41.0579C29.6193 40.5154 30.4784 40.7943 30.5242 41.4802Z" fill="url(#paint4_linear_208_3492)" stroke="url(#paint5_linear_208_3492)" stroke-width="2"/>
<path d="M44.3336 41.4802L44.6156 45.6942C44.7209 47.2676 43.2643 48.4224 41.7816 47.9411C40.2988 47.4597 39.6915 45.6349 40.5999 44.3905L43.0327 41.0579C43.4287 40.5154 44.2877 40.7943 44.3336 41.4802Z" fill="url(#paint6_linear_208_3492)" stroke="url(#paint7_linear_208_3492)" stroke-width="2"/>
<path d="M58.143 41.4802L58.4249 45.6942C58.5302 47.2676 57.0737 48.4224 55.5909 47.9411C54.1082 47.4597 53.5008 45.6349 54.4092 44.3905L56.8421 41.0579C57.2381 40.5154 58.0971 40.7943 58.143 41.4802Z" fill="url(#paint8_linear_208_3492)" stroke="url(#paint9_linear_208_3492)" stroke-width="2"/>
</g>
<g filter="url(#filter3_d_208_3492)">
<path d="M34.1679 53.1462L34.4498 57.3602C34.5551 58.9337 33.0986 60.0884 31.6158 59.6071C30.1331 59.1257 29.5258 57.3009 30.4342 56.0565L32.867 52.7239C33.263 52.1815 34.122 52.4603 34.1679 53.1462Z" fill="url(#paint10_linear_208_3492)" stroke="url(#paint11_linear_208_3492)" stroke-width="2"/>
<path d="M45.8351 53.1462L46.1171 57.3602C46.2224 58.9337 44.7658 60.0884 43.2831 59.6071C41.8003 59.1257 41.193 57.3009 42.1014 56.0565L44.5342 52.7239C44.9302 52.1815 45.7892 52.4603 45.8351 53.1462Z" fill="url(#paint12_linear_208_3492)" stroke="url(#paint13_linear_208_3492)" stroke-width="2"/>
</g>
<defs>
<filter id="filter0_dd_208_3492" x="0" y="0" width="67.1512" height="55.2615" filterUnits="userSpaceOnUse" color-interpolation-filters="sRGB">
<feFlood flood-opacity="0" result="BackgroundImageFix"/>
<feColorMatrix in="SourceAlpha" type="matrix" values="0 0 0 0 0 0 0 0 0 0 0 0 0 0 0 0 0 0 127 0" result="hardAlpha"/>
<feOffset dx="-2" dy="-2"/>
<feGaussianBlur stdDeviation="2"/>
<feComposite in2="hardAlpha" operator="out"/>
<feColorMatrix type="matrix" values="0 0 0 0 0 0 0 0 0 0 0 0 0 0 0 0 0 0 0.05 0"/>
<feBlend mode="normal" in2="BackgroundImageFix" result="effect1_dropShadow_208_3492"/>
<feColorMatrix in="SourceAlpha" type="matrix" values="0 0 0 0 0 0 0 0 0 0 0 0 0 0 0 0 0 0 127 0" result="hardAlpha"/>
<feOffset dy="4"/>
<feGaussianBlur stdDeviation="2"/>
<feComposite in2="hardAlpha" operator="out"/>
<feColorMatrix type="matrix" values="0 0 0 0 0 0 0 0 0 0 0 0 0 0 0 0 0 0 0.25 0"/>
<feBlend mode="normal" in2="effect1_dropShadow_208_3492" result="effect2_dropShadow_208_3492"/>
<feBlend mode="normal" in="SourceGraphic" in2="effect2_dropShadow_208_3492" result="shape"/>
</filter>
<filter id="filter1_d_208_3492" x="33.6974" y="4" width="49.3026" height="37.8192" filterUnits="userSpaceOnUse" color-interpolation-filters="sRGB">
<feFlood flood-opacity="0" result="BackgroundImageFix"/>
<feColorMatrix in="SourceAlpha" type="matrix" values="0 0 0 0 0 0 0 0 0 0 0 0 0 0 0 0 0 0 127 0" result="hardAlpha"/>
<feOffset dy="2"/>
<feGaussianBlur stdDeviation="2"/>
<feComposite in2="hardAlpha" operator="out"/>
<feColorMatrix type="matrix" values="0 0 0 0 0 0 0 0 0 0 0 0 0 0 0 0 0 0 0.2 0"/>
<feBlend mode="normal" in2="BackgroundImageFix" result="effect1_dropShadow_208_3492"/>
<feBlend mode="normal" in="SourceGraphic" in2="effect1_dropShadow_208_3492" result="shape"/>
</filter>
<filter id="filter2_d_208_3492" x="21.3727" y="38.7603" width="42.0476" height="17.3021" filterUnits="userSpaceOnUse" color-interpolation-filters="sRGB">
<feFlood flood-opacity="0" result="BackgroundImageFix"/>
<feColorMatrix in="SourceAlpha" type="matrix" values="0 0 0 0 0 0 0 0 0 0 0 0 0 0 0 0 0 0 127 0" result="hardAlpha"/>
<feOffset dy="3"/>
<feGaussianBlur stdDeviation="2"/>
<feComposite in2="hardAlpha" operator="out"/>
<feColorMatrix type="matrix" values="0 0 0 0 0 0 0 0 0 0 0 0 0 0 0 0 0 0 0.15 0"/>
<feBlend mode="normal" in2="BackgroundImageFix" result="effect1_dropShadow_208_3492"/>
<feBlend mode="normal" in="SourceGraphic" in2="effect1_dropShadow_208_3492" result="shape"/>
</filter>
<filter id="filter3_d_208_3492" x="25.0163" y="51.4263" width="26.0961" height="17.3021" filterUnits="userSpaceOnUse" color-interpolation-filters="sRGB">
<feFlood flood-opacity="0" result="BackgroundImageFix"/>
<feColorMatrix in="SourceAlpha" type="matrix" values="0 0 0 0 0 0 0 0 0 0 0 0 0 0 0 0 0 0 127 0" result="hardAlpha"/>
<feOffset dy="4"/>
<feGaussianBlur stdDeviation="2"/>
<feComposite in2="hardAlpha" operator="out"/>
<feColorMatrix type="matrix" values="0 0 0 0 0 0 0 0 0 0 0 0 0 0 0 0 0 0 0.15 0"/>
<feBlend mode="normal" in2="BackgroundImageFix" result="effect1_dropShadow_208_3492"/>
<feBlend mode="normal" in="SourceGraphic" in2="effect1_dropShadow_208_3492" result="shape"/>
</filter>
<linearGradient id="paint0_linear_208_3492" x1="34.5757" y1="-7.19853" x2="34.5757" y2="53.0278" gradientUnits="userSpaceOnUse">
<stop stop-color="white"/>
<stop offset="1" stop-color="white" stop-opacity="0"/>
</linearGradient>
<linearGradient id="paint1_linear_208_3492" x1="34.5757" y1="6" x2="34.5757" y2="47.2614" gradientUnits="userSpaceOnUse">
<stop stop-color="white"/>
<stop offset="1" stop-color="white" stop-opacity="0"/>
</linearGradient>
<linearGradient id="paint2_linear_208_3492" x1="60.2697" y1="6.89699" x2="60.2697" y2="39.1885" gradientUnits="userSpaceOnUse">
<stop stop-color="white"/>
<stop offset="1" stop-color="white" stop-opacity="0"/>
</linearGradient>
<linearGradient id="paint3_linear_208_3492" x1="58.3487" y1="6" x2="58.3487" y2="35.8192" gradientUnits="userSpaceOnUse">
<stop stop-color="white"/>
<stop offset="1" stop-color="white" stop-opacity="0"/>
</linearGradient>
<linearGradient id="paint4_linear_208_3492" x1="31.191" y1="36.6474" x2="27.2587" y2="48.7601" gradientUnits="userSpaceOnUse">
<stop stop-color="#138EFF"/>
<stop offset="1" stop-color="#00E0FF"/>
</linearGradient>
<linearGradient id="paint5_linear_208_3492" x1="31.191" y1="36.6474" x2="27.2587" y2="48.7601" gradientUnits="userSpaceOnUse">
<stop stop-color="white"/>
<stop offset="1" stop-color="white" stop-opacity="0"/>
</linearGradient>
<linearGradient id="paint6_linear_208_3492" x1="45.0004" y1="36.6474" x2="41.0681" y2="48.7601" gradientUnits="userSpaceOnUse">
<stop stop-color="#138EFF"/>
<stop offset="1" stop-color="#00E0FF"/>
</linearGradient>
<linearGradient id="paint7_linear_208_3492" x1="45.0004" y1="36.6474" x2="41.0681" y2="48.7601" gradientUnits="userSpaceOnUse">
<stop stop-color="white"/>
<stop offset="1" stop-color="white" stop-opacity="0"/>
</linearGradient>
<linearGradient id="paint8_linear_208_3492" x1="58.8098" y1="36.6474" x2="54.8775" y2="48.7601" gradientUnits="userSpaceOnUse">
<stop stop-color="#138EFF"/>
<stop offset="1" stop-color="#00E0FF"/>
</linearGradient>
<linearGradient id="paint9_linear_208_3492" x1="58.8098" y1="36.6474" x2="54.8775" y2="48.7601" gradientUnits="userSpaceOnUse">
<stop stop-color="white"/>
<stop offset="1" stop-color="white" stop-opacity="0"/>
</linearGradient>
<linearGradient id="paint10_linear_208_3492" x1="34.8347" y1="48.3134" x2="30.9024" y2="60.4261" gradientUnits="userSpaceOnUse">
<stop stop-color="#138EFF"/>
<stop offset="1" stop-color="#00E0FF"/>
</linearGradient>
<linearGradient id="paint11_linear_208_3492" x1="34.8347" y1="48.3134" x2="30.9024" y2="60.4261" gradientUnits="userSpaceOnUse">
<stop stop-color="white"/>
<stop offset="1" stop-color="white" stop-opacity="0"/>
</linearGradient>
<linearGradient id="paint12_linear_208_3492" x1="46.5019" y1="48.3134" x2="42.5696" y2="60.4261" gradientUnits="userSpaceOnUse">
<stop stop-color="#138EFF"/>
<stop offset="1" stop-color="#00E0FF"/>
</linearGradient>
<linearGradient id="paint13_linear_208_3492" x1="46.5019" y1="48.3134" x2="42.5696" y2="60.4261" gradientUnits="userSpaceOnUse">
<stop stop-color="white"/>
<stop offset="1" stop-color="white" stop-opacity="0"/>
</linearGradient>
</defs>
</svg>
