<svg width="95" height="97" viewBox="0 0 95 97" fill="none" xmlns="http://www.w3.org/2000/svg">
<g filter="url(#filter0_f_208_3560)">
<circle cx="45.8854" cy="35.8854" r="15.8854" fill="#FFC701" fill-opacity="0.5"/>
</g>
<circle cx="45.8854" cy="36.4062" r="14.3646" fill="url(#paint0_linear_208_3560)" stroke="url(#paint1_linear_208_3560)" stroke-width="2"/>
<mask id="mask0_208_3560" style="mask-type:alpha" maskUnits="userSpaceOnUse" x="30" y="29" width="32" height="23">
<path d="M61.25 36.4063C61.25 44.8919 54.371 51.7708 45.8854 51.7708C37.3998 51.7708 30.5208 44.8919 30.5208 36.4063C30.5208 27.9206 36.2279 29.8958 44.7135 29.8958C53.1992 29.8958 61.25 27.9206 61.25 36.4063Z" fill="url(#paint2_linear_208_3560)"/>
</mask>
<g mask="url(#mask0_208_3560)">
<g filter="url(#filter1_f_208_3560)">
<path fill-rule="evenodd" clip-rule="evenodd" d="M69.323 64.5313C69.323 70.7157 64.3095 75.7292 58.1251 75.7292C58.0816 75.7292 58.0383 75.729 57.9949 75.7285V75.7292H18.672L18.6722 75.7289C18.6287 75.7294 18.5852 75.7297 18.5417 75.7297C12.3572 75.7297 7.34375 70.7162 7.34375 64.5318C7.34375 58.3473 12.3572 53.3339 18.5417 53.3339C23.8724 53.3339 28.3331 57.0587 29.4631 62.0477L33.2553 57.2396L45.1043 53.3334H57.9949V53.3341C58.0383 53.3336 58.0816 53.3334 58.1251 53.3334C64.3095 53.3334 69.323 58.3469 69.323 64.5313Z" fill="#E18700"/>
</g>
</g>
<g filter="url(#filter2_bd_208_3560)">
<mask id="path-5-inside-1_208_3560" fill="white">
<path fill-rule="evenodd" clip-rule="evenodd" d="M71.8131 65.404C71.8445 65.4043 71.8759 65.4045 71.9074 65.4045C76.3768 65.4045 80 61.7813 80 57.3119C80 52.8424 76.3768 49.2193 71.9074 49.2193C71.8759 49.2193 71.8445 49.2194 71.8131 49.2198V49.2193H69.7226C69.7981 48.6654 69.8371 48.0999 69.8371 47.5253C69.8371 40.6653 64.276 35.1041 57.4159 35.1041C50.5559 35.1041 44.9947 40.6653 44.9947 47.5253C44.9947 48.1727 45.0442 48.8084 45.1397 49.4291C44.5489 49.2918 43.9334 49.2193 43.3009 49.2193C38.8315 49.2193 35.2083 52.8424 35.2083 57.3119C35.2083 61.7813 38.8315 65.4045 43.3009 65.4045C43.3324 65.4045 43.3639 65.4043 43.3953 65.404L43.3949 65.4045H71.8131V65.404Z"/>
</mask>
<path fill-rule="evenodd" clip-rule="evenodd" d="M71.8131 65.404C71.8445 65.4043 71.8759 65.4045 71.9074 65.4045C76.3768 65.4045 80 61.7813 80 57.3119C80 52.8424 76.3768 49.2193 71.9074 49.2193C71.8759 49.2193 71.8445 49.2194 71.8131 49.2198V49.2193H69.7226C69.7981 48.6654 69.8371 48.0999 69.8371 47.5253C69.8371 40.6653 64.276 35.1041 57.4159 35.1041C50.5559 35.1041 44.9947 40.6653 44.9947 47.5253C44.9947 48.1727 45.0442 48.8084 45.1397 49.4291C44.5489 49.2918 43.9334 49.2193 43.3009 49.2193C38.8315 49.2193 35.2083 52.8424 35.2083 57.3119C35.2083 61.7813 38.8315 65.4045 43.3009 65.4045C43.3324 65.4045 43.3639 65.4043 43.3953 65.404L43.3949 65.4045H71.8131V65.404Z" fill="url(#paint3_linear_208_3560)" shape-rendering="crispEdges"/>
<path d="M71.8131 65.404L71.8359 63.4041C71.3016 63.398 70.787 63.606 70.407 63.9817C70.0269 64.3574 69.8131 64.8696 69.8131 65.404H71.8131ZM71.8131 49.2198H69.8131C69.8131 49.7542 70.0269 50.2663 70.407 50.6421C70.787 51.0178 71.3016 51.2258 71.8359 51.2197L71.8131 49.2198ZM71.8131 49.2193H73.8131C73.8131 48.1147 72.9176 47.2193 71.8131 47.2193V49.2193ZM69.7226 49.2193L67.7409 48.949C67.6629 49.5213 67.8361 50.0994 68.2159 50.5345C68.5957 50.9696 69.145 51.2193 69.7226 51.2193V49.2193ZM45.1397 49.4291L44.687 51.3772C45.3336 51.5274 46.0126 51.347 46.4994 50.8958C46.9861 50.4445 47.2173 49.7811 47.1164 49.125L45.1397 49.4291ZM43.3953 65.404L44.9641 66.6445C45.4422 66.0398 45.5303 65.2142 45.1904 64.5222C44.8506 63.8303 44.1433 63.3953 43.3725 63.4041L43.3953 65.404ZM43.3949 65.4045L41.8261 64.1639C41.3505 64.7654 41.2606 65.5858 41.5947 66.276C41.9288 66.9661 42.6281 67.4045 43.3949 67.4045V65.4045ZM71.8131 65.4045V67.4045C72.9176 67.4045 73.8131 66.5091 73.8131 65.4045H71.8131ZM71.7902 67.4038C71.8293 67.4043 71.8683 67.4045 71.9074 67.4045V63.4045C71.8835 63.4045 71.8597 63.4044 71.8359 63.4041L71.7902 67.4038ZM71.9074 67.4045C77.4814 67.4045 82 62.8859 82 57.3119H78C78 60.6767 75.2722 63.4045 71.9074 63.4045V67.4045ZM82 57.3119C82 51.7379 77.4814 47.2193 71.9074 47.2193V51.2193C75.2722 51.2193 78 53.947 78 57.3119H82ZM71.9074 47.2193C71.8683 47.2193 71.8293 47.2195 71.7902 47.2199L71.8359 51.2197C71.8597 51.2194 71.8835 51.2193 71.9074 51.2193V47.2193ZM69.8131 49.2193V49.2198H73.8131V49.2193H69.8131ZM69.7226 51.2193H71.8131V47.2193H69.7226V51.2193ZM71.7043 49.4895C71.792 48.8463 71.8371 48.1906 71.8371 47.5253H67.8371C67.8371 48.0093 67.8043 48.4845 67.7409 48.949L71.7043 49.4895ZM71.8371 47.5253C71.8371 39.5607 65.3805 33.1041 57.4159 33.1041V37.1041C63.1714 37.1041 67.8371 41.7699 67.8371 47.5253H71.8371ZM57.4159 33.1041C49.4513 33.1041 42.9947 39.5607 42.9947 47.5253H46.9947C46.9947 41.7699 51.6604 37.1041 57.4159 37.1041V33.1041ZM42.9947 47.5253C42.9947 48.2748 43.052 49.0122 43.1629 49.7331L47.1164 49.125C47.0364 48.6047 46.9947 48.0705 46.9947 47.5253H42.9947ZM45.5923 47.4809C44.8542 47.3095 44.0868 47.2193 43.3009 47.2193V51.2193C43.78 51.2193 44.2437 51.2742 44.687 51.3772L45.5923 47.4809ZM43.3009 47.2193C37.7269 47.2193 33.2083 51.7379 33.2083 57.3119H37.2083C37.2083 53.947 39.9361 51.2193 43.3009 51.2193V47.2193ZM33.2083 57.3119C33.2083 62.8859 37.7269 67.4045 43.3009 67.4045V63.4045C39.9361 63.4045 37.2083 60.6767 37.2083 57.3119H33.2083ZM43.3009 67.4045C43.34 67.4045 43.3791 67.4043 43.4181 67.4038L43.3725 63.4041C43.3487 63.4044 43.3248 63.4045 43.3009 63.4045V67.4045ZM44.9636 66.645L44.9641 66.6445L41.8265 64.1634L41.8261 64.1639L44.9636 66.645ZM71.8131 63.4045H43.3949V67.4045H71.8131V63.4045ZM69.8131 65.404V65.4045H73.8131V65.404H69.8131Z" fill="url(#paint4_linear_208_3560)" mask="url(#path-5-inside-1_208_3560)"/>
</g>
<defs>
<filter id="filter0_f_208_3560" x="10" y="0" width="71.7708" height="71.7708" filterUnits="userSpaceOnUse" color-interpolation-filters="sRGB">
<feFlood flood-opacity="0" result="BackgroundImageFix"/>
<feBlend mode="normal" in="SourceGraphic" in2="BackgroundImageFix" result="shape"/>
<feGaussianBlur stdDeviation="10" result="effect1_foregroundBlur_208_3560"/>
</filter>
<filter id="filter1_f_208_3560" x="-6.65625" y="39.3334" width="89.9792" height="50.3963" filterUnits="userSpaceOnUse" color-interpolation-filters="sRGB">
<feFlood flood-opacity="0" result="BackgroundImageFix"/>
<feBlend mode="normal" in="SourceGraphic" in2="BackgroundImageFix" result="shape"/>
<feGaussianBlur stdDeviation="7" result="effect1_foregroundBlur_208_3560"/>
</filter>
<filter id="filter2_bd_208_3560" x="0.208313" y="16.1041" width="94.7917" height="80.3004" filterUnits="userSpaceOnUse" color-interpolation-filters="sRGB">
<feFlood flood-opacity="0" result="BackgroundImageFix"/>
<feGaussianBlur in="BackgroundImageFix" stdDeviation="5"/>
<feComposite in2="SourceAlpha" operator="in" result="effect1_backgroundBlur_208_3560"/>
<feColorMatrix in="SourceAlpha" type="matrix" values="0 0 0 0 0 0 0 0 0 0 0 0 0 0 0 0 0 0 127 0" result="hardAlpha"/>
<feOffset dx="-10" dy="6"/>
<feGaussianBlur stdDeviation="12.5"/>
<feComposite in2="hardAlpha" operator="out"/>
<feColorMatrix type="matrix" values="0 0 0 0 0.113438 0 0 0 0 0.148981 0 0 0 0 0.275 0 0 0 0.15 0"/>
<feBlend mode="normal" in2="effect1_backgroundBlur_208_3560" result="effect2_dropShadow_208_3560"/>
<feBlend mode="normal" in="SourceGraphic" in2="effect2_dropShadow_208_3560" result="shape"/>
</filter>
<linearGradient id="paint0_linear_208_3560" x1="45.8854" y1="21.0416" x2="45.8854" y2="51.7708" gradientUnits="userSpaceOnUse">
<stop stop-color="#FFE600"/>
<stop offset="1" stop-color="#FF7A00"/>
</linearGradient>
<linearGradient id="paint1_linear_208_3560" x1="45.8854" y1="21.0416" x2="45.8854" y2="51.7708" gradientUnits="userSpaceOnUse">
<stop stop-color="white"/>
<stop offset="1" stop-color="white" stop-opacity="0"/>
</linearGradient>
<linearGradient id="paint2_linear_208_3560" x1="45.8854" y1="21.0417" x2="45.8854" y2="51.7708" gradientUnits="userSpaceOnUse">
<stop stop-color="#FFD600"/>
<stop offset="1" stop-color="#FF7A00"/>
</linearGradient>
<linearGradient id="paint3_linear_208_3560" x1="59.6875" y1="36.0156" x2="59.6875" y2="68.8282" gradientUnits="userSpaceOnUse">
<stop stop-color="white"/>
<stop offset="1" stop-color="white" stop-opacity="0"/>
</linearGradient>
<linearGradient id="paint4_linear_208_3560" x1="57.6042" y1="35.1041" x2="57.6042" y2="65.4044" gradientUnits="userSpaceOnUse">
<stop stop-color="white"/>
<stop offset="1" stop-color="white" stop-opacity="0"/>
</linearGradient>
</defs>
</svg>
