<svg width="73" height="58" viewBox="0 0 73 58" fill="none" xmlns="http://www.w3.org/2000/svg">
<g filter="url(#filter0_d_208_3472)">
<ellipse cx="40.9902" cy="14.6484" rx="13.0428" ry="13.6484" fill="#FFC701" fill-opacity="0.5" shape-rendering="crispEdges"/>
</g>
<path d="M52.6053 15.0958C52.6053 21.8774 47.3627 27.2967 40.9901 27.2967C34.6176 27.2967 29.375 21.8774 29.375 15.0958C29.375 8.31417 34.6176 2.8949 40.9901 2.8949C47.3627 2.8949 52.6053 8.31417 52.6053 15.0958Z" fill="url(#paint0_linear_208_3472)" stroke="url(#paint1_linear_208_3472)" stroke-width="2"/>
<mask id="mask0_208_3472" style="mask-type:alpha" maskUnits="userSpaceOnUse" x="28" y="9" width="26" height="20">
<path d="M53.6053 15.0959C53.6053 22.3866 47.9573 28.2968 40.9901 28.2968C34.023 28.2968 28.375 22.3866 28.375 15.0959C28.375 7.80524 33.0608 9.5023 40.028 9.5023C46.9951 9.5023 53.6053 7.80524 53.6053 15.0959Z" fill="url(#paint2_linear_208_3472)"/>
</mask>
<g mask="url(#mask0_208_3472)">
<g filter="url(#filter1_f_208_3472)">
<path fill-rule="evenodd" clip-rule="evenodd" d="M50.9326 48.8807C50.9682 48.8811 51.0038 48.8813 51.0395 48.8813C56.1172 48.8813 60.2336 44.5738 60.2336 39.2603C60.2336 33.9468 56.1172 29.6393 51.0395 29.6393C51.0038 29.6393 50.9682 29.6395 50.9326 29.6399V29.6393H45.0714C45.1997 28.8389 45.2665 28.0167 45.2665 27.1781C45.2665 19.0225 38.9484 12.411 31.1547 12.411C23.3609 12.411 17.0428 19.0225 17.0428 27.1781C17.0428 28.0493 17.1149 28.9029 17.2532 29.7327C12.7844 30.3873 9.34541 34.4036 9.34541 39.2603C9.34541 44.5738 13.4617 48.8813 18.5395 48.8813C18.5753 48.8813 18.6112 48.8811 18.6469 48.8806L18.6464 48.8813H50.9326V48.8807Z" fill="#E18700"/>
</g>
</g>
<g filter="url(#filter2_d_208_3472)">
<mask id="path-5-inside-1_208_3472" fill="white">
<path fill-rule="evenodd" clip-rule="evenodd" d="M45.5872 49.9994C45.6228 49.9998 45.6584 50.0001 45.6941 50.0001C50.7719 50.0001 54.8882 45.6926 54.8882 40.379C54.8882 35.0655 50.7719 30.758 45.6941 30.758C45.6584 30.758 45.6228 30.7583 45.5872 30.7587V30.758H43.212C43.2978 30.0996 43.3421 29.4274 43.3421 28.7443C43.3421 20.5886 37.024 13.9772 29.2302 13.9772C21.4365 13.9772 15.1184 20.5886 15.1184 28.7443C15.1184 29.5139 15.1747 30.2697 15.2831 31.0075C14.612 30.8443 13.9127 30.758 13.1941 30.758C8.11633 30.758 4 35.0655 4 40.379C4 45.6926 8.11633 50.0001 13.1941 50.0001C13.2299 50.0001 13.2657 49.9998 13.3015 49.9994L13.301 50.0001H45.5872V49.9994Z"/>
</mask>
<path fill-rule="evenodd" clip-rule="evenodd" d="M45.5872 49.9994C45.6228 49.9998 45.6584 50.0001 45.6941 50.0001C50.7719 50.0001 54.8882 45.6926 54.8882 40.379C54.8882 35.0655 50.7719 30.758 45.6941 30.758C45.6584 30.758 45.6228 30.7583 45.5872 30.7587V30.758H43.212C43.2978 30.0996 43.3421 29.4274 43.3421 28.7443C43.3421 20.5886 37.024 13.9772 29.2302 13.9772C21.4365 13.9772 15.1184 20.5886 15.1184 28.7443C15.1184 29.5139 15.1747 30.2697 15.2831 31.0075C14.612 30.8443 13.9127 30.758 13.1941 30.758C8.11633 30.758 4 35.0655 4 40.379C4 45.6926 8.11633 50.0001 13.1941 50.0001C13.2299 50.0001 13.2657 49.9998 13.3015 49.9994L13.301 50.0001H45.5872V49.9994Z" fill="url(#paint3_linear_208_3472)" shape-rendering="crispEdges"/>
<path d="M45.5872 49.9994L45.611 47.9995C45.0765 47.9932 44.5617 48.2011 44.1814 48.5768C43.8012 48.9525 43.5872 49.4648 43.5872 49.9994H45.5872ZM45.5872 30.7587H43.5872C43.5872 31.2932 43.8012 31.8056 44.1815 32.1813C44.5617 32.557 45.0766 32.7649 45.6111 32.7585L45.5872 30.7587ZM45.5872 30.758H47.5872C47.5872 29.6535 46.6918 28.758 45.5872 28.758V30.758ZM43.212 30.758L41.2287 30.4996C41.1544 31.0703 41.3294 31.6453 41.7092 32.0777C42.0889 32.5101 42.6365 32.758 43.212 32.758V30.758ZM15.2831 31.0075L14.8106 32.9509C15.4568 33.108 16.1389 32.9336 16.6304 32.4856C17.1219 32.0376 17.3585 31.3746 17.2618 30.7166L15.2831 31.0075ZM13.3015 49.9994L14.9004 51.2009C15.3583 50.5916 15.43 49.775 15.0854 49.0951C14.7408 48.4153 14.0397 47.9904 13.2776 47.9995L13.3015 49.9994ZM13.301 50L11.7022 48.7985C11.2469 49.4044 11.1731 50.2156 11.5117 50.8936C11.8504 51.5717 12.5431 52 13.301 52V50ZM45.5872 50V52C46.6918 52 47.5872 51.1046 47.5872 50H45.5872ZM45.5634 51.9993C45.6069 51.9998 45.6505 52 45.6941 52V48C45.6664 48 45.6387 47.9999 45.611 47.9995L45.5634 51.9993ZM45.6941 52C51.961 52 56.8882 46.7106 56.8882 40.379H52.8882C52.8882 44.6745 49.5827 48 45.6941 48V52ZM56.8882 40.379C56.8882 34.0475 51.961 28.758 45.6941 28.758V32.758C49.5827 32.758 52.8882 36.0836 52.8882 40.379H56.8882ZM45.6941 28.758C45.6505 28.758 45.6069 28.7583 45.5633 28.7588L45.6111 32.7585C45.6387 32.7582 45.6664 32.758 45.6941 32.758V28.758ZM43.5872 30.758V30.7587H47.5872V30.758H43.5872ZM43.212 32.758H45.5872V28.758H43.212V32.758ZM45.1952 31.0165C45.2921 30.2725 45.3421 29.5139 45.3421 28.7443H41.3421C41.3421 29.3408 41.3034 29.9267 41.2287 30.4996L45.1952 31.0165ZM45.3421 28.7443C45.3421 19.5706 38.2131 11.9772 29.2302 11.9772V15.9772C35.8349 15.9772 41.3421 21.6067 41.3421 28.7443H45.3421ZM29.2302 11.9772C20.2473 11.9772 13.1184 19.5706 13.1184 28.7443H17.1184C17.1184 21.6067 22.6256 15.9772 29.2302 15.9772V11.9772ZM13.1184 28.7443C13.1184 29.6114 13.1818 30.4644 13.3043 31.2983L17.2618 30.7166C17.1675 30.0749 17.1184 29.4163 17.1184 28.7443H13.1184ZM15.7556 29.0641C14.9313 28.8637 14.0734 28.758 13.1941 28.758V32.758C13.7519 32.758 14.2927 32.8249 14.8106 32.9509L15.7556 29.0641ZM13.1941 28.758C6.92718 28.758 2 34.0475 2 40.379H6C6 36.0836 9.30548 32.758 13.1941 32.758V28.758ZM2 40.379C2 46.7106 6.92718 52 13.1941 52V48C9.30548 48 6 44.6745 6 40.379H2ZM13.1941 52C13.238 52 13.2818 51.9998 13.3254 51.9993L13.2776 47.9995C13.2497 47.9999 13.2219 48 13.1941 48V52ZM14.8999 51.2016L14.9004 51.2009L11.7026 48.7979L11.7022 48.7985L14.8999 51.2016ZM45.5872 48H13.301V52H45.5872V48ZM43.5872 49.9994V50H47.5872V49.9994H43.5872Z" fill="url(#paint4_linear_208_3472)" mask="url(#path-5-inside-1_208_3472)"/>
</g>
<g filter="url(#filter3_d_208_3472)">
<mask id="path-7-inside-2_208_3472" fill="white">
<path fill-rule="evenodd" clip-rule="evenodd" d="M62.2783 40.01C62.304 40.0103 62.3298 40.0105 62.3556 40.0105C66.0252 40.0105 69 36.8975 69 33.0575C69 29.2175 66.0252 26.1045 62.3556 26.1045C62.3298 26.1045 62.304 26.1047 62.2783 26.105V26.1045H60.5618C60.6238 25.6287 60.6558 25.1429 60.6558 24.6492C60.6558 18.7552 56.0898 13.9772 50.4574 13.9772C44.8249 13.9772 40.2589 18.7552 40.2589 24.6492C40.2589 25.2054 40.2995 25.7516 40.3779 26.2848C39.8929 26.1669 39.3875 26.1045 38.8682 26.1045C35.1985 26.1045 32.2237 29.2175 32.2237 33.0575C32.2237 36.8975 35.1985 40.0105 38.8682 40.0105C38.8941 40.0105 38.92 40.0103 38.9458 40.01L38.9455 40.0105H62.2783V40.01Z"/>
</mask>
<path fill-rule="evenodd" clip-rule="evenodd" d="M62.2783 40.01C62.304 40.0103 62.3298 40.0105 62.3556 40.0105C66.0252 40.0105 69 36.8975 69 33.0575C69 29.2175 66.0252 26.1045 62.3556 26.1045C62.3298 26.1045 62.304 26.1047 62.2783 26.105V26.1045H60.5618C60.6238 25.6287 60.6558 25.1429 60.6558 24.6492C60.6558 18.7552 56.0898 13.9772 50.4574 13.9772C44.8249 13.9772 40.2589 18.7552 40.2589 24.6492C40.2589 25.2054 40.2995 25.7516 40.3779 26.2848C39.8929 26.1669 39.3875 26.1045 38.8682 26.1045C35.1985 26.1045 32.2237 29.2175 32.2237 33.0575C32.2237 36.8975 35.1985 40.0105 38.8682 40.0105C38.8941 40.0105 38.92 40.0103 38.9458 40.01L38.9455 40.0105H62.2783V40.01Z" fill="url(#paint5_linear_208_3472)" shape-rendering="crispEdges"/>
<path d="M62.2783 40.01L62.3022 38.0102C61.7677 38.0038 61.2528 38.2117 60.8726 38.5874C60.4923 38.9631 60.2783 39.4755 60.2783 40.01H62.2783ZM62.2783 26.105H60.2783C60.2783 26.6395 60.4923 27.1518 60.8726 27.5276C61.2528 27.9033 61.7676 28.1112 62.3021 28.1048L62.2783 26.105ZM62.2783 26.1045H64.2783C64.2783 24.9999 63.3829 24.1045 62.2783 24.1045V26.1045ZM60.5618 26.1045L58.5786 25.8461C58.5042 26.4167 58.6793 26.9918 59.059 27.4242C59.4387 27.8566 59.9863 28.1045 60.5618 28.1045V26.1045ZM40.3779 26.2848L39.9054 28.2282C40.5516 28.3853 41.2337 28.2109 41.7252 27.7629C42.2167 27.3149 42.4534 26.6519 42.3566 25.9939L40.3779 26.2848ZM38.9458 40.01L40.5434 41.2132C41.0022 40.604 41.0746 39.787 40.7302 39.1067C40.3857 38.4263 39.6844 38.0011 38.9219 38.0102L38.9458 40.01ZM38.9454 40.0105L37.3478 38.8073C36.8917 39.4131 36.8173 40.2246 37.1557 40.9032C37.4942 41.5817 38.1872 42.0105 38.9454 42.0105V40.0105ZM62.2783 40.0105V42.0105C63.3829 42.0105 64.2783 41.1151 64.2783 40.0105H62.2783ZM62.2544 42.0099C62.2882 42.0103 62.3219 42.0105 62.3556 42.0105V38.0105C62.3377 38.0105 62.3199 38.0104 62.3022 38.0102L62.2544 42.0099ZM62.3556 42.0105C67.2143 42.0105 71 37.9156 71 33.0575H67C67 35.8795 64.8361 38.0105 62.3556 38.0105V42.0105ZM71 33.0575C71 28.1994 67.2143 24.1045 62.3556 24.1045V28.1045C64.8361 28.1045 67 30.2355 67 33.0575H71ZM62.3556 24.1045C62.3218 24.1045 62.2882 24.1047 62.2545 24.1051L62.3021 28.1048C62.3199 28.1046 62.3377 28.1045 62.3556 28.1045V24.1045ZM60.2783 26.1045V26.105H64.2783V26.1045H60.2783ZM60.5618 28.1045H62.2783V24.1045H60.5618V28.1045ZM62.545 26.3629C62.6182 25.8016 62.6558 25.2294 62.6558 24.6492H58.6558C58.6558 25.0563 58.6294 25.4558 58.5786 25.8461L62.545 26.3629ZM62.6558 24.6492C62.6558 17.7372 57.279 11.9772 50.4574 11.9772V15.9772C54.9007 15.9772 58.6558 19.7733 58.6558 24.6492H62.6558ZM50.4574 11.9772C43.6357 11.9772 38.2589 17.7372 38.2589 24.6492H42.2589C42.2589 19.7733 46.014 15.9772 50.4574 15.9772V11.9772ZM38.2589 24.6492C38.2589 25.3029 38.3067 25.9463 38.3992 26.5756L42.3566 25.9939C42.2924 25.5568 42.2589 25.1078 42.2589 24.6492H38.2589ZM40.8504 24.3414C40.2122 24.1862 39.5482 24.1045 38.8682 24.1045V28.1045C39.2268 28.1045 39.5736 28.1475 39.9054 28.2282L40.8504 24.3414ZM38.8682 24.1045C34.0094 24.1045 30.2237 28.1994 30.2237 33.0575H34.2237C34.2237 30.2355 36.3877 28.1045 38.8682 28.1045V24.1045ZM30.2237 33.0575C30.2237 37.9156 34.0094 42.0105 38.8682 42.0105V38.0105C36.3877 38.0105 34.2237 35.8795 34.2237 33.0575H30.2237ZM38.8682 42.0105C38.9021 42.0105 38.936 42.0103 38.9697 42.0099L38.9219 38.0102C38.9039 38.0104 38.886 38.0105 38.8682 38.0105V42.0105ZM40.5431 41.2136L40.5434 41.2132L37.3482 38.8069L37.3478 38.8073L40.5431 41.2136ZM62.2783 38.0105H38.9454V42.0105H62.2783V38.0105ZM60.2783 40.01V40.0105H64.2783V40.01H60.2783Z" fill="url(#paint6_linear_208_3472)" mask="url(#path-7-inside-2_208_3472)"/>
</g>
<defs>
<filter id="filter0_d_208_3472" x="23.9474" y="0" width="34.0855" height="35.2968" filterUnits="userSpaceOnUse" color-interpolation-filters="sRGB">
<feFlood flood-opacity="0" result="BackgroundImageFix"/>
<feColorMatrix in="SourceAlpha" type="matrix" values="0 0 0 0 0 0 0 0 0 0 0 0 0 0 0 0 0 0 127 0" result="hardAlpha"/>
<feOffset dy="3"/>
<feGaussianBlur stdDeviation="2"/>
<feComposite in2="hardAlpha" operator="out"/>
<feColorMatrix type="matrix" values="0 0 0 0 0 0 0 0 0 0 0 0 0 0 0 0 0 0 0.15 0"/>
<feBlend mode="normal" in2="BackgroundImageFix" result="effect1_dropShadow_208_3472"/>
<feBlend mode="normal" in="SourceGraphic" in2="effect1_dropShadow_208_3472" result="shape"/>
</filter>
<filter id="filter1_f_208_3472" x="-4.6546" y="-1.58899" width="78.8882" height="64.4703" filterUnits="userSpaceOnUse" color-interpolation-filters="sRGB">
<feFlood flood-opacity="0" result="BackgroundImageFix"/>
<feBlend mode="normal" in="SourceGraphic" in2="BackgroundImageFix" result="shape"/>
<feGaussianBlur stdDeviation="7" result="effect1_foregroundBlur_208_3472"/>
</filter>
<filter id="filter2_d_208_3472" x="0" y="13.9772" width="58.8882" height="44.0228" filterUnits="userSpaceOnUse" color-interpolation-filters="sRGB">
<feFlood flood-opacity="0" result="BackgroundImageFix"/>
<feColorMatrix in="SourceAlpha" type="matrix" values="0 0 0 0 0 0 0 0 0 0 0 0 0 0 0 0 0 0 127 0" result="hardAlpha"/>
<feOffset dy="4"/>
<feGaussianBlur stdDeviation="2"/>
<feComposite in2="hardAlpha" operator="out"/>
<feColorMatrix type="matrix" values="0 0 0 0 0 0 0 0 0 0 0 0 0 0 0 0 0 0 0.15 0"/>
<feBlend mode="normal" in2="BackgroundImageFix" result="effect1_dropShadow_208_3472"/>
<feBlend mode="normal" in="SourceGraphic" in2="effect1_dropShadow_208_3472" result="shape"/>
</filter>
<filter id="filter3_d_208_3472" x="28.2237" y="12.9772" width="44.7763" height="34.0333" filterUnits="userSpaceOnUse" color-interpolation-filters="sRGB">
<feFlood flood-opacity="0" result="BackgroundImageFix"/>
<feColorMatrix in="SourceAlpha" type="matrix" values="0 0 0 0 0 0 0 0 0 0 0 0 0 0 0 0 0 0 127 0" result="hardAlpha"/>
<feOffset dy="3"/>
<feGaussianBlur stdDeviation="2"/>
<feComposite in2="hardAlpha" operator="out"/>
<feColorMatrix type="matrix" values="0 0 0 0 0 0 0 0 0 0 0 0 0 0 0 0 0 0 0.15 0"/>
<feBlend mode="normal" in2="BackgroundImageFix" result="effect1_dropShadow_208_3472"/>
<feBlend mode="normal" in="SourceGraphic" in2="effect1_dropShadow_208_3472" result="shape"/>
</filter>
<linearGradient id="paint0_linear_208_3472" x1="40.9901" y1="1.8949" x2="40.9901" y2="28.2967" gradientUnits="userSpaceOnUse">
<stop stop-color="#FFE600"/>
<stop offset="1" stop-color="#FF7A00"/>
</linearGradient>
<linearGradient id="paint1_linear_208_3472" x1="40.9901" y1="1.8949" x2="40.9901" y2="28.2967" gradientUnits="userSpaceOnUse">
<stop stop-color="white"/>
<stop offset="1" stop-color="white" stop-opacity="0"/>
</linearGradient>
<linearGradient id="paint2_linear_208_3472" x1="40.9901" y1="1.89499" x2="40.9901" y2="28.2968" gradientUnits="userSpaceOnUse">
<stop stop-color="#FFD600"/>
<stop offset="1" stop-color="#FF7A00"/>
</linearGradient>
<linearGradient id="paint3_linear_208_3472" x1="29.4441" y1="2.45434" x2="29.4441" y2="55.0342" gradientUnits="userSpaceOnUse">
<stop stop-color="white"/>
<stop offset="1" stop-color="white" stop-opacity="0"/>
</linearGradient>
<linearGradient id="paint4_linear_208_3472" x1="29.4441" y1="13.9772" x2="29.4441" y2="50" gradientUnits="userSpaceOnUse">
<stop stop-color="white"/>
<stop offset="1" stop-color="white" stop-opacity="0"/>
</linearGradient>
<linearGradient id="paint5_linear_208_3472" x1="52.3224" y1="14.7603" x2="52.3224" y2="42.9521" gradientUnits="userSpaceOnUse">
<stop stop-color="white"/>
<stop offset="1" stop-color="white" stop-opacity="0"/>
</linearGradient>
<linearGradient id="paint6_linear_208_3472" x1="50.6119" y1="13.9772" x2="50.6119" y2="40.0105" gradientUnits="userSpaceOnUse">
<stop stop-color="white"/>
<stop offset="1" stop-color="white" stop-opacity="0"/>
</linearGradient>
</defs>
</svg>
