<svg width="73" height="64" viewBox="0 0 73 64" fill="none" xmlns="http://www.w3.org/2000/svg">
<ellipse cx="25.3333" cy="22.5428" rx="20.3333" ry="18.5428" fill="#FFC701" fill-opacity="0.5"/>
<g filter="url(#filter0_d_233_2444)">
<ellipse cx="25.3333" cy="23.1508" rx="19.6667" ry="17.9349" fill="url(#paint0_linear_233_2444)"/>
<path d="M44 23.1508C44 32.419 35.7314 40.0857 25.3333 40.0857C14.9353 40.0857 6.66666 32.419 6.66666 23.1508C6.66666 13.8827 14.9353 6.21594 25.3333 6.21594C35.7314 6.21594 44 13.8827 44 23.1508Z" stroke="url(#paint1_linear_233_2444)" stroke-width="2"/>
</g>
<mask id="mask0_233_2444" style="mask-type:alpha" maskUnits="userSpaceOnUse" x="5" y="15" width="40" height="27">
<path d="M45 23.1508C45 33.0559 36.1949 41.0856 25.3333 41.0856C14.4717 41.0856 5.66666 33.0559 5.66666 23.1508C5.66666 13.2456 12.9717 15.5513 23.8333 15.5513C34.6949 15.5513 45 13.2456 45 23.1508Z" fill="url(#paint2_linear_233_2444)"/>
</mask>
<g mask="url(#mask0_233_2444)">
<g filter="url(#filter1_f_233_2444)">
<path fill-rule="evenodd" clip-rule="evenodd" d="M55.3334 55.9807C55.3334 63.1997 48.9162 69.0519 41.0001 69.0519C40.9445 69.0519 40.889 69.0516 40.8335 69.051V69.0519H-9.49988L-9.49953 69.0515C-9.55517 69.0521 -9.61089 69.0524 -9.66667 69.0524C-17.5828 69.0524 -24 63.2002 -24 55.9812C-24 48.7622 -17.5828 42.91 -9.66667 42.91C-2.84334 42.91 2.86641 47.258 4.31275 53.0816L9.1668 47.4693L24.3335 42.9095H40.8335V42.9104C40.889 42.9098 40.9445 42.9095 41.0001 42.9095C48.9162 42.9095 55.3334 48.7617 55.3334 55.9807Z" fill="#E18700"/>
</g>
</g>
<g filter="url(#filter2_bd_233_2444)">
<mask id="path-6-inside-1_233_2444" fill="white">
<path fill-rule="evenodd" clip-rule="evenodd" d="M58.5207 56.9993C58.5609 56.9997 58.6012 56.9999 58.6415 56.9999C64.3623 56.9999 69 52.7706 69 47.5535C69 42.3364 64.3623 38.1071 58.6415 38.1071C58.6012 38.1071 58.5609 38.1073 58.5207 38.1078V38.1071H55.8449C55.9416 37.4606 55.9915 36.8006 55.9915 36.1299C55.9915 28.1222 48.8732 21.6307 40.0924 21.6307C31.3115 21.6307 24.1932 28.1222 24.1932 36.1299C24.1932 36.8855 24.2566 37.6276 24.3788 38.352C23.6227 38.1918 22.8348 38.1071 22.0252 38.1071C16.3043 38.1071 11.6667 42.3364 11.6667 47.5535C11.6667 52.7706 16.3043 56.9999 22.0252 56.9999C22.0655 56.9999 22.1058 56.9997 22.146 56.9993L22.1454 56.9999H58.5207V56.9993Z"/>
</mask>
<path fill-rule="evenodd" clip-rule="evenodd" d="M58.5207 56.9993C58.5609 56.9997 58.6012 56.9999 58.6415 56.9999C64.3623 56.9999 69 52.7706 69 47.5535C69 42.3364 64.3623 38.1071 58.6415 38.1071C58.6012 38.1071 58.5609 38.1073 58.5207 38.1078V38.1071H55.8449C55.9416 37.4606 55.9915 36.8006 55.9915 36.1299C55.9915 28.1222 48.8732 21.6307 40.0924 21.6307C31.3115 21.6307 24.1932 28.1222 24.1932 36.1299C24.1932 36.8855 24.2566 37.6276 24.3788 38.352C23.6227 38.1918 22.8348 38.1071 22.0252 38.1071C16.3043 38.1071 11.6667 42.3364 11.6667 47.5535C11.6667 52.7706 16.3043 56.9999 22.0252 56.9999C22.0655 56.9999 22.1058 56.9997 22.146 56.9993L22.1454 56.9999H58.5207V56.9993Z" fill="url(#paint3_linear_233_2444)" shape-rendering="crispEdges"/>
<path d="M58.5207 56.9993L58.5416 54.9994C58.0076 54.9938 57.4935 55.2021 57.1139 55.5777C56.7343 55.9534 56.5207 56.4653 56.5207 56.9993H58.5207ZM58.5207 38.1078H56.5207C56.5207 38.6418 56.7343 39.1537 57.1139 39.5293C57.4935 39.905 58.0075 40.1132 58.5415 40.1077L58.5207 38.1078ZM58.5207 38.1071H60.5207C60.5207 37.0026 59.6253 36.1071 58.5207 36.1071V38.1071ZM55.8449 38.1071L53.8669 37.8114C53.7808 38.387 53.9498 38.9716 54.3298 39.4126C54.7097 39.8536 55.2629 40.1071 55.8449 40.1071V38.1071ZM24.3788 38.352L23.9642 40.3086C24.6119 40.4458 25.2854 40.2537 25.7632 39.7954C26.241 39.3372 26.461 38.6722 26.3509 38.0194L24.3788 38.352ZM22.146 56.9993L23.6596 58.3066C24.1735 57.7116 24.2911 56.8707 23.9602 56.1575C23.6293 55.4444 22.9113 54.9912 22.1251 54.9994L22.146 56.9993ZM22.1454 56.9999L20.6318 55.6927C20.1204 56.2849 20.0012 57.1208 20.3269 57.8323C20.6525 58.5437 21.363 58.9999 22.1454 58.9999V56.9999ZM58.5207 56.9999V58.9999C59.6253 58.9999 60.5207 58.1045 60.5207 56.9999H58.5207ZM58.4999 58.9992C58.547 58.9997 58.5942 58.9999 58.6415 58.9999V54.9999C58.6081 54.9999 58.5748 54.9998 58.5416 54.9994L58.4999 58.9992ZM58.6415 58.9999C65.2894 58.9999 71 54.0447 71 47.5535H67C67 51.4966 63.4353 54.9999 58.6415 54.9999V58.9999ZM71 47.5535C71 41.0624 65.2894 36.1071 58.6415 36.1071V40.1071C63.4353 40.1071 67 43.6105 67 47.5535H71ZM58.6415 36.1071C58.5942 36.1071 58.5471 36.1074 58.5 36.1079L58.5415 40.1077C58.5748 40.1073 58.6081 40.1071 58.6415 40.1071V36.1071ZM56.5207 38.1071V38.1078H60.5207V38.1071H56.5207ZM55.8449 40.1071H58.5207V36.1071H55.8449V40.1071ZM57.8229 38.4029C57.9342 37.6589 57.9915 36.9 57.9915 36.1299H53.9915C53.9915 36.7011 53.949 37.2623 53.8669 37.8114L57.8229 38.4029ZM57.9915 36.1299C57.9915 26.8481 49.8003 19.6307 40.0924 19.6307V23.6307C47.9462 23.6307 53.9915 29.3963 53.9915 36.1299H57.9915ZM40.0924 19.6307C30.3844 19.6307 22.1932 26.8481 22.1932 36.1299H26.1932C26.1932 29.3963 32.2386 23.6307 40.0924 23.6307V19.6307ZM22.1932 36.1299C22.1932 36.9976 22.266 37.851 22.4066 38.6847L26.3509 38.0194C26.2472 37.4042 26.1932 36.7734 26.1932 36.1299H22.1932ZM24.7933 36.3955C23.9013 36.2065 22.9745 36.1071 22.0252 36.1071V40.1071C22.6951 40.1071 23.344 40.1772 23.9642 40.3086L24.7933 36.3955ZM22.0252 36.1071C15.3773 36.1071 9.66666 41.0624 9.66666 47.5535H13.6667C13.6667 43.6105 17.2314 40.1071 22.0252 40.1071V36.1071ZM9.66666 47.5535C9.66666 54.0447 15.3773 58.9999 22.0252 58.9999V54.9999C17.2314 54.9999 13.6667 51.4966 13.6667 47.5535H9.66666ZM22.0252 58.9999C22.0725 58.9999 22.1197 58.9997 22.1669 58.9992L22.1251 54.9994C22.0919 54.9998 22.0586 54.9999 22.0252 54.9999V58.9999ZM23.6591 58.3072L23.6596 58.3066L20.6323 55.6921L20.6318 55.6927L23.6591 58.3072ZM58.5207 54.9999H22.1454V58.9999H58.5207V54.9999ZM56.5207 56.9993V56.9999H60.5207V56.9993H56.5207Z" fill="url(#paint4_linear_233_2444)" mask="url(#path-6-inside-1_233_2444)"/>
</g>
<defs>
<filter id="filter0_d_233_2444" x="0.666656" y="0.215942" width="47.3333" height="43.8698" filterUnits="userSpaceOnUse" color-interpolation-filters="sRGB">
<feFlood flood-opacity="0" result="BackgroundImageFix"/>
<feColorMatrix in="SourceAlpha" type="matrix" values="0 0 0 0 0 0 0 0 0 0 0 0 0 0 0 0 0 0 127 0" result="hardAlpha"/>
<feOffset dx="-1" dy="-1"/>
<feGaussianBlur stdDeviation="2"/>
<feComposite in2="hardAlpha" operator="out"/>
<feColorMatrix type="matrix" values="0 0 0 0 0.933333 0 0 0 0 0.745111 0 0 0 0 0.0777777 0 0 0 0.05 0"/>
<feBlend mode="normal" in2="BackgroundImageFix" result="effect1_dropShadow_233_2444"/>
<feBlend mode="normal" in="SourceGraphic" in2="effect1_dropShadow_233_2444" result="shape"/>
</filter>
<filter id="filter1_f_233_2444" x="-38" y="28.9095" width="107.333" height="54.1428" filterUnits="userSpaceOnUse" color-interpolation-filters="sRGB">
<feFlood flood-opacity="0" result="BackgroundImageFix"/>
<feBlend mode="normal" in="SourceGraphic" in2="BackgroundImageFix" result="shape"/>
<feGaussianBlur stdDeviation="7" result="effect1_foregroundBlur_233_2444"/>
</filter>
<filter id="filter2_bd_233_2444" x="1.66666" y="11.6307" width="77.3333" height="55.3693" filterUnits="userSpaceOnUse" color-interpolation-filters="sRGB">
<feFlood flood-opacity="0" result="BackgroundImageFix"/>
<feGaussianBlur in="BackgroundImageFix" stdDeviation="5"/>
<feComposite in2="SourceAlpha" operator="in" result="effect1_backgroundBlur_233_2444"/>
<feColorMatrix in="SourceAlpha" type="matrix" values="0 0 0 0 0 0 0 0 0 0 0 0 0 0 0 0 0 0 127 0" result="hardAlpha"/>
<feOffset dy="3"/>
<feGaussianBlur stdDeviation="2"/>
<feComposite in2="hardAlpha" operator="out"/>
<feColorMatrix type="matrix" values="0 0 0 0 0 0 0 0 0 0 0 0 0 0 0 0 0 0 0.08 0"/>
<feBlend mode="normal" in2="effect1_backgroundBlur_233_2444" result="effect2_dropShadow_233_2444"/>
<feBlend mode="normal" in="SourceGraphic" in2="effect2_dropShadow_233_2444" result="shape"/>
</filter>
<linearGradient id="paint0_linear_233_2444" x1="25.3333" y1="5.21594" x2="25.3333" y2="41.0857" gradientUnits="userSpaceOnUse">
<stop stop-color="#FFE600"/>
<stop offset="1" stop-color="#FF7A00"/>
</linearGradient>
<linearGradient id="paint1_linear_233_2444" x1="25.3333" y1="5.21594" x2="25.3333" y2="41.0857" gradientUnits="userSpaceOnUse">
<stop stop-color="white"/>
<stop offset="1" stop-color="white" stop-opacity="0"/>
</linearGradient>
<linearGradient id="paint2_linear_233_2444" x1="25.3333" y1="5.21591" x2="25.3333" y2="41.0856" gradientUnits="userSpaceOnUse">
<stop stop-color="#FFD600"/>
<stop offset="1" stop-color="#FF7A00"/>
</linearGradient>
<linearGradient id="paint3_linear_233_2444" x1="43" y1="22.6947" x2="43" y2="60.9964" gradientUnits="userSpaceOnUse">
<stop stop-color="white"/>
<stop offset="1" stop-color="white" stop-opacity="0"/>
</linearGradient>
<linearGradient id="paint4_linear_233_2444" x1="40.3333" y1="21.6307" x2="40.3333" y2="56.9999" gradientUnits="userSpaceOnUse">
<stop stop-color="white"/>
<stop offset="1" stop-color="white" stop-opacity="0"/>
</linearGradient>
</defs>
</svg>
