<svg width="79" height="72" viewBox="0 0 79 72" fill="none" xmlns="http://www.w3.org/2000/svg">
<g filter="url(#filter0_dd_208_3661)">
<mask id="path-1-inside-1_208_3661" fill="white">
<path fill-rule="evenodd" clip-rule="evenodd" d="M34.1943 29.3078C34.2184 29.308 34.2426 29.3082 34.2668 29.3082C37.7093 29.3082 40.5 26.5211 40.5 23.083C40.5 19.6449 37.7093 16.8578 34.2668 16.8578C34.2426 16.8578 34.2184 16.858 34.1943 16.8583V16.8578H32.5841C32.6422 16.4318 32.6723 15.9969 32.6723 15.5549C32.6723 10.2779 28.3889 6 23.105 6C17.8212 6 13.5378 10.2779 13.5378 15.5549C13.5378 16.0528 13.576 16.5419 13.6495 17.0192C13.1945 16.9137 12.7204 16.8578 12.2332 16.8578C8.7907 16.8578 6 19.6449 6 23.083C6 26.5211 8.7907 29.3082 12.2332 29.3082C12.2575 29.3082 12.2818 29.308 12.306 29.3078L12.3057 29.3082H34.1943V29.3078Z"/>
</mask>
<path fill-rule="evenodd" clip-rule="evenodd" d="M34.1943 29.3078C34.2184 29.308 34.2426 29.3082 34.2668 29.3082C37.7093 29.3082 40.5 26.5211 40.5 23.083C40.5 19.6449 37.7093 16.8578 34.2668 16.8578C34.2426 16.8578 34.2184 16.858 34.1943 16.8583V16.8578H32.5841C32.6422 16.4318 32.6723 15.9969 32.6723 15.5549C32.6723 10.2779 28.3889 6 23.105 6C17.8212 6 13.5378 10.2779 13.5378 15.5549C13.5378 16.0528 13.576 16.5419 13.6495 17.0192C13.1945 16.9137 12.7204 16.8578 12.2332 16.8578C8.7907 16.8578 6 19.6449 6 23.083C6 26.5211 8.7907 29.3082 12.2332 29.3082C12.2575 29.3082 12.2818 29.308 12.306 29.3078L12.3057 29.3082H34.1943V29.3078Z" fill="url(#paint0_linear_208_3661)" shape-rendering="crispEdges"/>
<path d="M34.1943 29.3078L34.2171 27.3079C33.6827 27.3018 33.1682 27.5098 32.7882 27.8855C32.4082 28.2612 32.1943 28.7734 32.1943 29.3078H34.1943ZM34.1943 16.8583H32.1943C32.1943 17.3926 32.4082 17.9048 32.7882 18.2805C33.1682 18.6562 33.6827 18.8642 34.2171 18.8581L34.1943 16.8583ZM34.1943 16.8578H36.1943C36.1943 15.7533 35.2989 14.8578 34.1943 14.8578V16.8578ZM32.5841 16.8578L30.6024 16.5873C30.5243 17.1596 30.6974 17.7378 31.0772 18.1729C31.457 18.6081 32.0064 18.8578 32.5841 18.8578V16.8578ZM13.6495 17.0192L13.1974 18.9675C13.844 19.1175 14.5229 18.937 15.0095 18.4856C15.4962 18.0343 15.7272 17.3709 15.6262 16.7148L13.6495 17.0192ZM12.306 29.3078L13.8752 30.5477C14.3531 29.9429 14.4409 29.1174 14.101 28.4257C13.761 27.7339 13.0539 27.2991 12.2832 27.3079L12.306 29.3078ZM12.3057 29.3082L10.7364 28.0683C10.2611 28.6698 10.1715 29.49 10.5057 30.18C10.8399 30.87 11.539 31.3082 12.3057 31.3082V29.3082ZM34.1943 29.3082V31.3082C35.2989 31.3082 36.1943 30.4128 36.1943 29.3082H34.1943ZM34.1716 31.3076C34.2033 31.308 34.235 31.3082 34.2668 31.3082V27.3082C34.2502 27.3082 34.2336 27.3081 34.2171 27.3079L34.1716 31.3076ZM34.2668 31.3082C38.8114 31.3082 42.5 27.6281 42.5 23.083H38.5C38.5 25.4141 36.6072 27.3082 34.2668 27.3082V31.3082ZM42.5 23.083C42.5 18.538 38.8114 14.8578 34.2668 14.8578V18.8578C36.6072 18.8578 38.5 20.7519 38.5 23.083H42.5ZM34.2668 14.8578C34.235 14.8578 34.2033 14.858 34.1716 14.8584L34.2171 18.8581C34.2336 18.8579 34.2502 18.8578 34.2668 18.8578V14.8578ZM32.1943 16.8578V16.8583H36.1943V16.8578H32.1943ZM32.5841 18.8578H34.1943V14.8578H32.5841V18.8578ZM34.5657 17.1284C34.6361 16.613 34.6723 16.0876 34.6723 15.5549H30.6723C30.6723 15.9061 30.6484 16.2507 30.6024 16.5873L34.5657 17.1284ZM34.6723 15.5549C34.6723 9.17088 29.491 4 23.105 4V8C27.2867 8 30.6723 11.3849 30.6723 15.5549H34.6723ZM23.105 4C16.7191 4 11.5378 9.17088 11.5378 15.5549H15.5378C15.5378 11.3849 18.9233 8 23.105 8V4ZM11.5378 15.5549C11.5378 16.1551 11.5838 16.7459 11.6728 17.3236L15.6262 16.7148C15.5681 16.3378 15.5378 15.9506 15.5378 15.5549H11.5378ZM14.1015 15.071C13.4994 14.9313 12.8736 14.8578 12.2332 14.8578V18.8578C12.5671 18.8578 12.8896 18.8961 13.1974 18.9675L14.1015 15.071ZM12.2332 14.8578C7.68856 14.8578 4 18.538 4 23.083H8C8 20.7519 9.89283 18.8578 12.2332 18.8578V14.8578ZM4 23.083C4 27.6281 7.68856 31.3082 12.2332 31.3082V27.3082C9.89283 27.3082 8 25.4141 8 23.083H4ZM12.2332 31.3082C12.2651 31.3082 12.297 31.308 12.3288 31.3076L12.2832 27.3079C12.2665 27.3081 12.2498 27.3082 12.2332 27.3082V31.3082ZM13.8749 30.5481L13.8752 30.5477L10.7367 28.0678L10.7364 28.0683L13.8749 30.5481ZM34.1943 27.3082H12.3057V31.3082H34.1943V27.3082ZM32.1943 29.3078V29.3082H36.1943V29.3078H32.1943Z" fill="url(#paint1_linear_208_3661)" mask="url(#path-1-inside-1_208_3661)"/>
</g>
<g filter="url(#filter1_bdd_208_3661)">
<mask id="path-3-inside-2_208_3661" fill="white">
<path fill-rule="evenodd" clip-rule="evenodd" d="M53.0363 45.2628C53.0697 45.2632 53.1032 45.2634 53.1366 45.2634C57.9001 45.2634 61.7616 41.4068 61.7616 36.6495C61.7616 31.8921 57.9001 28.0356 53.1366 28.0356C53.1032 28.0356 53.0697 28.0358 53.0363 28.0361V28.0356H50.8082C50.8887 27.4461 50.9302 26.8442 50.9302 26.2327C50.9302 18.9307 45.0032 13.0114 37.6919 13.0114C30.3805 13.0114 24.4535 18.9307 24.4535 26.2327C24.4535 26.9217 24.5063 27.5983 24.608 28.2589C23.9784 28.1128 23.3223 28.0356 22.6482 28.0356C17.8848 28.0356 14.0232 31.8921 14.0232 36.6495C14.0232 41.4068 17.8848 45.2634 22.6482 45.2634C22.6819 45.2634 22.7154 45.2632 22.749 45.2628L22.7485 45.2634H53.0363V45.2628Z"/>
</mask>
<path fill-rule="evenodd" clip-rule="evenodd" d="M53.0363 45.2628C53.0697 45.2632 53.1032 45.2634 53.1366 45.2634C57.9001 45.2634 61.7616 41.4068 61.7616 36.6495C61.7616 31.8921 57.9001 28.0356 53.1366 28.0356C53.1032 28.0356 53.0697 28.0358 53.0363 28.0361V28.0356H50.8082C50.8887 27.4461 50.9302 26.8442 50.9302 26.2327C50.9302 18.9307 45.0032 13.0114 37.6919 13.0114C30.3805 13.0114 24.4535 18.9307 24.4535 26.2327C24.4535 26.9217 24.5063 27.5983 24.608 28.2589C23.9784 28.1128 23.3223 28.0356 22.6482 28.0356C17.8848 28.0356 14.0232 31.8921 14.0232 36.6495C14.0232 41.4068 17.8848 45.2634 22.6482 45.2634C22.6819 45.2634 22.7154 45.2632 22.749 45.2628L22.7485 45.2634H53.0363V45.2628Z" fill="url(#paint2_linear_208_3661)" shape-rendering="crispEdges"/>
<path d="M53.0363 45.2628L53.0592 43.2629C52.5248 43.2568 52.0102 43.4648 51.6302 43.8405C51.2502 44.2162 51.0363 44.7284 51.0363 45.2628H53.0363ZM53.0363 28.0361H51.0363C51.0363 28.5705 51.2502 29.0827 51.6302 29.4584C52.0102 29.8341 52.5248 30.0421 53.0591 30.036L53.0363 28.0361ZM53.0363 28.0356H55.0363C55.0363 26.931 54.1409 26.0356 53.0363 26.0356V28.0356ZM50.8082 28.0356L48.8266 27.765C48.7484 28.3373 48.9215 28.9155 49.3013 29.3507C49.6812 29.7858 50.2306 30.0356 50.8082 30.0356V28.0356ZM24.608 28.2589L24.1559 30.2071C24.8025 30.3572 25.4814 30.1767 25.968 29.7253C26.4547 29.2739 26.6857 28.6105 26.5847 27.9545L24.608 28.2589ZM22.749 45.2628L24.3185 46.5023C24.7962 45.8975 24.8838 45.0721 24.5439 44.3805C24.2039 43.6889 23.4968 43.2541 22.7262 43.2629L22.749 45.2628ZM22.7485 45.2634L21.179 44.0238C20.7039 44.6254 20.6144 45.4456 20.9486 46.1354C21.2829 46.8252 21.982 47.2634 22.7485 47.2634V45.2634ZM53.0363 45.2634V47.2634C54.1409 47.2634 55.0363 46.3679 55.0363 45.2634H53.0363ZM53.0135 47.2627C53.0545 47.2631 53.0956 47.2634 53.1366 47.2634V43.2634C53.1108 43.2634 53.0849 43.2632 53.0592 43.2629L53.0135 47.2627ZM53.1366 47.2634C59.0022 47.2634 63.7616 42.5138 63.7616 36.6495H59.7616C59.7616 40.2998 56.798 43.2634 53.1366 43.2634V47.2634ZM63.7616 36.6495C63.7616 30.7851 59.0022 26.0356 53.1366 26.0356V30.0356C56.798 30.0356 59.7616 32.9991 59.7616 36.6495H63.7616ZM53.1366 26.0356C53.0956 26.0356 53.0546 26.0358 53.0135 26.0363L53.0591 30.036C53.0849 30.0357 53.1107 30.0356 53.1366 30.0356V26.0356ZM51.0363 28.0356V28.0361H55.0363V28.0356H51.0363ZM50.8082 30.0356H53.0363V26.0356H50.8082V30.0356ZM52.7898 28.3061C52.8825 27.6272 52.9302 26.935 52.9302 26.2327H48.9302C48.9302 26.7535 48.8948 27.2649 48.8266 27.765L52.7898 28.3061ZM52.9302 26.2327C52.9302 17.8237 46.1054 11.0114 37.6919 11.0114V15.0114C43.9011 15.0114 48.9302 20.0377 48.9302 26.2327H52.9302ZM37.6919 11.0114C29.2784 11.0114 22.4535 17.8237 22.4535 26.2327H26.4535C26.4535 20.0377 31.4826 15.0114 37.6919 15.0114V11.0114ZM22.4535 26.2327C22.4535 27.0239 22.5141 27.8024 22.6313 28.5633L26.5847 27.9545C26.4984 27.3943 26.4535 26.8194 26.4535 26.2327H22.4535ZM25.06 26.3107C24.2833 26.1304 23.4756 26.0356 22.6482 26.0356V30.0356C23.1691 30.0356 23.6735 30.0952 24.1559 30.2071L25.06 26.3107ZM22.6482 26.0356C16.7826 26.0356 12.0232 30.7851 12.0232 36.6495H16.0232C16.0232 32.9991 18.9869 30.0356 22.6482 30.0356V26.0356ZM12.0232 36.6495C12.0232 42.5138 16.7826 47.2634 22.6482 47.2634V43.2634C18.9869 43.2634 16.0232 40.2998 16.0232 36.6495H12.0232ZM22.6482 47.2634C22.6896 47.2634 22.7307 47.2631 22.7717 47.2627L22.7262 43.2629C22.7001 43.2632 22.6741 43.2634 22.6482 43.2634V47.2634ZM24.3181 46.5029L24.3185 46.5023L21.1794 44.0232L21.179 44.0238L24.3181 46.5029ZM53.0363 43.2634H22.7485V47.2634H53.0363V43.2634ZM51.0363 45.2628V45.2634H55.0363V45.2628H51.0363Z" fill="url(#paint3_linear_208_3661)" mask="url(#path-3-inside-2_208_3661)"/>
</g>
<g filter="url(#filter2_d_208_3661)">
<path d="M47.9365 46.0093L55.7769 31.6798C56.1278 31.0385 56.8005 30.6398 57.5315 30.6398H63.3685C64.8723 30.6398 65.8382 32.237 65.1397 33.5687L61.5929 40.3312C60.8945 41.6629 61.8603 43.2601 63.3641 43.2601H64.5056C66.235 43.2601 67.1492 45.3066 65.9952 46.5947L53.9006 60.0947C52.4252 61.7416 49.763 60.1302 50.5378 58.0593L52.9284 51.6702C53.4176 50.3629 52.451 48.9693 51.0552 48.9693H49.691C48.1717 48.9693 47.2072 47.3421 47.9365 46.0093Z" fill="url(#paint4_linear_208_3661)"/>
<path d="M48.8137 46.4893L56.6542 32.1598C56.8296 31.8391 57.166 31.6398 57.5315 31.6398H63.3685C64.1204 31.6398 64.6034 32.4384 64.2541 33.1042L60.7073 39.8667C59.6596 41.8643 61.1084 44.2601 63.3641 44.2601H64.5056C65.3703 44.2601 65.8274 45.2834 65.2504 45.9274L53.1558 59.4275C52.4181 60.2509 51.087 59.4452 51.4744 58.4097L53.865 52.0207C54.5987 50.0597 53.1489 47.9693 51.0552 47.9693H49.691C48.9314 47.9693 48.4491 47.1557 48.8137 46.4893Z" stroke="url(#paint5_linear_208_3661)" stroke-width="2"/>
</g>
<g filter="url(#filter3_d_208_3661)">
<mask id="path-7-inside-3_208_3661" fill="white">
<path fill-rule="evenodd" clip-rule="evenodd" d="M68.6944 36.3191C68.7185 36.3194 68.7426 36.3195 68.7668 36.3195C72.2093 36.3195 75 33.5324 75 30.0944C75 26.6563 72.2093 23.8692 68.7668 23.8692C68.7426 23.8692 68.7185 23.8693 68.6944 23.8696V23.8692H67.0841C67.1422 23.4432 67.1723 23.0082 67.1723 22.5663C67.1723 17.2892 62.8889 13.0114 57.605 13.0114C52.3212 13.0114 48.0378 17.2892 48.0378 22.5663C48.0378 23.0642 48.076 23.5532 48.1495 24.0306C47.6945 23.925 47.2204 23.8692 46.7332 23.8692C43.2907 23.8692 40.5 26.6563 40.5 30.0944C40.5 33.5324 43.2907 36.3195 46.7332 36.3195C46.7575 36.3195 46.7818 36.3194 46.806 36.3191L46.8057 36.3195H68.6944V36.3191Z"/>
</mask>
<path fill-rule="evenodd" clip-rule="evenodd" d="M68.6944 36.3191C68.7185 36.3194 68.7426 36.3195 68.7668 36.3195C72.2093 36.3195 75 33.5324 75 30.0944C75 26.6563 72.2093 23.8692 68.7668 23.8692C68.7426 23.8692 68.7185 23.8693 68.6944 23.8696V23.8692H67.0841C67.1422 23.4432 67.1723 23.0082 67.1723 22.5663C67.1723 17.2892 62.8889 13.0114 57.605 13.0114C52.3212 13.0114 48.0378 17.2892 48.0378 22.5663C48.0378 23.0642 48.076 23.5532 48.1495 24.0306C47.6945 23.925 47.2204 23.8692 46.7332 23.8692C43.2907 23.8692 40.5 26.6563 40.5 30.0944C40.5 33.5324 43.2907 36.3195 46.7332 36.3195C46.7575 36.3195 46.7818 36.3194 46.806 36.3191L46.8057 36.3195H68.6944V36.3191Z" fill="url(#paint6_linear_208_3661)" shape-rendering="crispEdges"/>
<path d="M68.6944 36.3191L68.7172 34.3192C68.1828 34.3131 67.6682 34.5212 67.2882 34.8969C66.9082 35.2726 66.6944 35.7847 66.6944 36.3191H68.6944ZM68.6944 23.8696H66.6944C66.6944 24.404 66.9082 24.9161 67.2882 25.2918C67.6682 25.6675 68.1827 25.8755 68.7171 25.8695L68.6944 23.8696ZM68.6944 23.8692H70.6944C70.6944 22.7646 69.7989 21.8692 68.6944 21.8692V23.8692ZM67.0841 23.8692L65.1025 23.5986C65.0243 24.171 65.1974 24.7491 65.5772 25.1843C65.957 25.6195 66.5065 25.8692 67.0841 25.8692V23.8692ZM48.1495 24.0306L47.6974 25.9788C48.344 26.1288 49.0229 25.9483 49.5095 25.497C49.9962 25.0456 50.2272 24.3822 50.1262 23.7262L48.1495 24.0306ZM46.806 36.3191L48.3753 37.559C48.8531 36.9543 48.9409 36.1288 48.601 35.437C48.2611 34.7453 47.5539 34.3104 46.7832 34.3192L46.806 36.3191ZM46.8057 36.3195L45.2364 35.0796C44.7612 35.6811 44.6715 36.5014 45.0057 37.1913C45.3399 37.8813 46.0391 38.3195 46.8057 38.3195V36.3195ZM68.6944 36.3195V38.3195C69.7989 38.3195 70.6944 37.4241 70.6944 36.3195H68.6944ZM68.6716 38.319C68.7033 38.3193 68.735 38.3195 68.7668 38.3195V34.3195C68.7502 34.3195 68.7336 34.3194 68.7172 34.3192L68.6716 38.319ZM68.7668 38.3195C73.3114 38.3195 77 34.6394 77 30.0944H73C73 32.4254 71.1072 34.3195 68.7668 34.3195V38.3195ZM77 30.0944C77 25.5493 73.3114 21.8692 68.7668 21.8692V25.8692C71.1072 25.8692 73 27.7633 73 30.0944H77ZM68.7668 21.8692C68.735 21.8692 68.7033 21.8694 68.6717 21.8697L68.7171 25.8695C68.7337 25.8693 68.7502 25.8692 68.7668 25.8692V21.8692ZM66.6944 23.8692V23.8696H70.6944V23.8692H66.6944ZM67.0841 25.8692H68.6944V21.8692H67.0841V25.8692ZM69.0657 24.1397C69.1361 23.6243 69.1723 23.099 69.1723 22.5663H65.1723C65.1723 22.9175 65.1484 23.262 65.1025 23.5986L69.0657 24.1397ZM69.1723 22.5663C69.1723 16.1822 63.991 11.0114 57.605 11.0114V15.0114C61.7867 15.0114 65.1723 18.3962 65.1723 22.5663H69.1723ZM57.605 11.0114C51.2191 11.0114 46.0378 16.1822 46.0378 22.5663H50.0378C50.0378 18.3962 53.4234 15.0114 57.605 15.0114V11.0114ZM46.0378 22.5663C46.0378 23.1664 46.0838 23.7572 46.1728 24.335L50.1262 23.7262C50.0681 23.3492 50.0378 22.9619 50.0378 22.5663H46.0378ZM48.6015 22.0823C47.9994 21.9426 47.3736 21.8692 46.7332 21.8692V25.8692C47.0671 25.8692 47.3896 25.9074 47.6974 25.9788L48.6015 22.0823ZM46.7332 21.8692C42.1886 21.8692 38.5 25.5493 38.5 30.0944H42.5C42.5 27.7633 44.3928 25.8692 46.7332 25.8692V21.8692ZM38.5 30.0944C38.5 34.6394 42.1886 38.3195 46.7332 38.3195V34.3195C44.3928 34.3195 42.5 32.4254 42.5 30.0944H38.5ZM46.7332 38.3195C46.7651 38.3195 46.797 38.3193 46.8288 38.319L46.7832 34.3192C46.7665 34.3194 46.7499 34.3195 46.7332 34.3195V38.3195ZM48.375 37.5594L48.3753 37.559L45.2368 35.0792L45.2364 35.0796L48.375 37.5594ZM68.6944 34.3195H46.8057V38.3195H68.6944V34.3195ZM66.6944 36.3191V36.3195H70.6944V36.3191H66.6944Z" fill="url(#paint7_linear_208_3661)" mask="url(#path-7-inside-3_208_3661)"/>
</g>
<g filter="url(#filter4_d_208_3661)">
<path d="M16.471 48.62L16.7064 51.9118C16.7886 53.0621 15.691 53.9379 14.5873 53.6026C13.4835 53.2673 13.0601 51.9294 13.7698 51.0197L15.8007 48.4163C16.0122 48.1452 16.4465 48.2772 16.471 48.62Z" fill="url(#paint8_linear_208_3661)" stroke="url(#paint9_linear_208_3661)" stroke-width="2"/>
<path d="M28.006 48.62L28.2413 51.9118C28.3236 53.0621 27.226 53.9379 26.1222 53.6026C25.0185 53.2673 24.5951 51.9294 25.3048 51.0197L27.3356 48.4163C27.5471 48.1452 27.9815 48.2772 28.006 48.62Z" fill="url(#paint10_linear_208_3661)" stroke="url(#paint11_linear_208_3661)" stroke-width="2"/>
<path d="M39.5409 48.62L39.7762 51.9118C39.8585 53.0621 38.7608 53.9379 37.6571 53.6026C36.5534 53.2673 36.13 51.9294 36.8396 51.0197L38.8705 48.4163C39.082 48.1452 39.5163 48.2772 39.5409 48.62Z" fill="url(#paint12_linear_208_3661)" stroke="url(#paint13_linear_208_3661)" stroke-width="2"/>
</g>
<g filter="url(#filter5_d_208_3661)">
<path d="M20.8839 57.7388L21.1192 61.0306C21.2015 62.1809 20.1039 63.0567 19.0001 62.7214C17.8964 62.3861 17.473 61.0482 18.1827 60.1385L20.2135 57.5351C20.425 57.264 20.8594 57.396 20.8839 57.7388Z" fill="url(#paint14_linear_208_3661)" stroke="url(#paint15_linear_208_3661)" stroke-width="2"/>
<path d="M32.5176 57.7388L32.7529 61.0306C32.8352 62.1809 31.7376 63.0567 30.6338 62.7214C29.5301 62.3861 29.1067 61.0482 29.8164 60.1385L31.8472 57.5351C32.0587 57.264 32.4931 57.396 32.5176 57.7388Z" fill="url(#paint16_linear_208_3661)" stroke="url(#paint17_linear_208_3661)" stroke-width="2"/>
</g>
<defs>
<filter id="filter0_dd_208_3661" x="0" y="0" width="44.5" height="37.3082" filterUnits="userSpaceOnUse" color-interpolation-filters="sRGB">
<feFlood flood-opacity="0" result="BackgroundImageFix"/>
<feColorMatrix in="SourceAlpha" type="matrix" values="0 0 0 0 0 0 0 0 0 0 0 0 0 0 0 0 0 0 127 0" result="hardAlpha"/>
<feOffset dx="-2" dy="-2"/>
<feGaussianBlur stdDeviation="2"/>
<feComposite in2="hardAlpha" operator="out"/>
<feColorMatrix type="matrix" values="0 0 0 0 0 0 0 0 0 0 0 0 0 0 0 0 0 0 0.06 0"/>
<feBlend mode="normal" in2="BackgroundImageFix" result="effect1_dropShadow_208_3661"/>
<feColorMatrix in="SourceAlpha" type="matrix" values="0 0 0 0 0 0 0 0 0 0 0 0 0 0 0 0 0 0 127 0" result="hardAlpha"/>
<feOffset dy="4"/>
<feGaussianBlur stdDeviation="2"/>
<feComposite in2="hardAlpha" operator="out"/>
<feColorMatrix type="matrix" values="0 0 0 0 0 0 0 0 0 0 0 0 0 0 0 0 0 0 0.15 0"/>
<feBlend mode="normal" in2="effect1_dropShadow_208_3661" result="effect2_dropShadow_208_3661"/>
<feBlend mode="normal" in="SourceGraphic" in2="effect2_dropShadow_208_3661" result="shape"/>
</filter>
<filter id="filter1_bdd_208_3661" x="4.02322" y="3.01135" width="67.7384" height="52.252" filterUnits="userSpaceOnUse" color-interpolation-filters="sRGB">
<feFlood flood-opacity="0" result="BackgroundImageFix"/>
<feGaussianBlur in="BackgroundImageFix" stdDeviation="5"/>
<feComposite in2="SourceAlpha" operator="in" result="effect1_backgroundBlur_208_3661"/>
<feColorMatrix in="SourceAlpha" type="matrix" values="0 0 0 0 0 0 0 0 0 0 0 0 0 0 0 0 0 0 127 0" result="hardAlpha"/>
<feOffset dy="4"/>
<feGaussianBlur stdDeviation="2"/>
<feComposite in2="hardAlpha" operator="out"/>
<feColorMatrix type="matrix" values="0 0 0 0 0 0 0 0 0 0 0 0 0 0 0 0 0 0 0.15 0"/>
<feBlend mode="normal" in2="effect1_backgroundBlur_208_3661" result="effect2_dropShadow_208_3661"/>
<feColorMatrix in="SourceAlpha" type="matrix" values="0 0 0 0 0 0 0 0 0 0 0 0 0 0 0 0 0 0 127 0" result="hardAlpha"/>
<feOffset dx="-1" dy="-1"/>
<feGaussianBlur stdDeviation="2"/>
<feComposite in2="hardAlpha" operator="out"/>
<feColorMatrix type="matrix" values="0 0 0 0 0 0 0 0 0 0 0 0 0 0 0 0 0 0 0.05 0"/>
<feBlend mode="normal" in2="effect2_dropShadow_208_3661" result="effect3_dropShadow_208_3661"/>
<feBlend mode="normal" in="SourceGraphic" in2="effect3_dropShadow_208_3661" result="shape"/>
</filter>
<filter id="filter2_d_208_3661" x="43.6882" y="30.6398" width="26.8213" height="38.1339" filterUnits="userSpaceOnUse" color-interpolation-filters="sRGB">
<feFlood flood-opacity="0" result="BackgroundImageFix"/>
<feColorMatrix in="SourceAlpha" type="matrix" values="0 0 0 0 0 0 0 0 0 0 0 0 0 0 0 0 0 0 127 0" result="hardAlpha"/>
<feOffset dy="4"/>
<feGaussianBlur stdDeviation="2"/>
<feComposite in2="hardAlpha" operator="out"/>
<feColorMatrix type="matrix" values="0 0 0 0 0 0 0 0 0 0 0 0 0 0 0 0 0 0 0.1 0"/>
<feBlend mode="normal" in2="BackgroundImageFix" result="effect1_dropShadow_208_3661"/>
<feBlend mode="normal" in="SourceGraphic" in2="effect1_dropShadow_208_3661" result="shape"/>
</filter>
<filter id="filter3_d_208_3661" x="36.5" y="13.0114" width="42.5" height="31.3082" filterUnits="userSpaceOnUse" color-interpolation-filters="sRGB">
<feFlood flood-opacity="0" result="BackgroundImageFix"/>
<feColorMatrix in="SourceAlpha" type="matrix" values="0 0 0 0 0 0 0 0 0 0 0 0 0 0 0 0 0 0 127 0" result="hardAlpha"/>
<feOffset dy="4"/>
<feGaussianBlur stdDeviation="2"/>
<feComposite in2="hardAlpha" operator="out"/>
<feColorMatrix type="matrix" values="0 0 0 0 0 0 0 0 0 0 0 0 0 0 0 0 0 0 0.15 0"/>
<feBlend mode="normal" in2="BackgroundImageFix" result="effect1_dropShadow_208_3661"/>
<feBlend mode="normal" in="SourceGraphic" in2="effect1_dropShadow_208_3661" result="shape"/>
</filter>
<filter id="filter4_d_208_3661" x="8.42029" y="47.27" width="36.3606" height="15.4055" filterUnits="userSpaceOnUse" color-interpolation-filters="sRGB">
<feFlood flood-opacity="0" result="BackgroundImageFix"/>
<feColorMatrix in="SourceAlpha" type="matrix" values="0 0 0 0 0 0 0 0 0 0 0 0 0 0 0 0 0 0 127 0" result="hardAlpha"/>
<feOffset dy="4"/>
<feGaussianBlur stdDeviation="2"/>
<feComposite in2="hardAlpha" operator="out"/>
<feColorMatrix type="matrix" values="0 0 0 0 0 0 0 0 0 0 0 0 0 0 0 0 0 0 0.15 0"/>
<feBlend mode="normal" in2="BackgroundImageFix" result="effect1_dropShadow_208_3661"/>
<feBlend mode="normal" in="SourceGraphic" in2="effect1_dropShadow_208_3661" result="shape"/>
</filter>
<filter id="filter5_d_208_3661" x="12.8331" y="56.3888" width="24.9245" height="15.4055" filterUnits="userSpaceOnUse" color-interpolation-filters="sRGB">
<feFlood flood-opacity="0" result="BackgroundImageFix"/>
<feColorMatrix in="SourceAlpha" type="matrix" values="0 0 0 0 0 0 0 0 0 0 0 0 0 0 0 0 0 0 127 0" result="hardAlpha"/>
<feOffset dy="4"/>
<feGaussianBlur stdDeviation="2"/>
<feComposite in2="hardAlpha" operator="out"/>
<feColorMatrix type="matrix" values="0 0 0 0 0 0 0 0 0 0 0 0 0 0 0 0 0 0 0.15 0"/>
<feBlend mode="normal" in2="BackgroundImageFix" result="effect1_dropShadow_208_3661"/>
<feBlend mode="normal" in="SourceGraphic" in2="effect1_dropShadow_208_3661" result="shape"/>
</filter>
<linearGradient id="paint0_linear_208_3661" x1="24.8547" y1="6.70113" x2="24.8547" y2="31.9418" gradientUnits="userSpaceOnUse">
<stop stop-color="white"/>
<stop offset="1" stop-color="white" stop-opacity="0"/>
</linearGradient>
<linearGradient id="paint1_linear_208_3661" x1="23.25" y1="6" x2="23.25" y2="29.3082" gradientUnits="userSpaceOnUse">
<stop stop-color="white"/>
<stop offset="1" stop-color="white" stop-opacity="0"/>
</linearGradient>
<linearGradient id="paint2_linear_208_3661" x1="37.8924" y1="2.69471" x2="37.8924" y2="49.7706" gradientUnits="userSpaceOnUse">
<stop stop-color="white"/>
<stop offset="1" stop-color="white" stop-opacity="0"/>
</linearGradient>
<linearGradient id="paint3_linear_208_3661" x1="37.8924" y1="13.0114" x2="37.8924" y2="45.2634" gradientUnits="userSpaceOnUse">
<stop stop-color="white"/>
<stop offset="1" stop-color="white" stop-opacity="0"/>
</linearGradient>
<linearGradient id="paint4_linear_208_3661" x1="59.8561" y1="32.8433" x2="54.8539" y2="54.5812" gradientUnits="userSpaceOnUse">
<stop stop-color="#FF4D00"/>
<stop offset="1" stop-color="#FFB800"/>
</linearGradient>
<linearGradient id="paint5_linear_208_3661" x1="53.1367" y1="54.2779" x2="62.2438" y2="34.7374" gradientUnits="userSpaceOnUse">
<stop stop-color="white"/>
<stop offset="1" stop-color="white" stop-opacity="0"/>
</linearGradient>
<linearGradient id="paint6_linear_208_3661" x1="59.3547" y1="13.7125" x2="59.3547" y2="38.9532" gradientUnits="userSpaceOnUse">
<stop stop-color="white"/>
<stop offset="1" stop-color="white" stop-opacity="0"/>
</linearGradient>
<linearGradient id="paint7_linear_208_3661" x1="57.75" y1="13.0114" x2="57.75" y2="36.3195" gradientUnits="userSpaceOnUse">
<stop stop-color="white"/>
<stop offset="1" stop-color="white" stop-opacity="0"/>
</linearGradient>
<linearGradient id="paint8_linear_208_3661" x1="17.2136" y1="44.9798" x2="14.3028" y2="54.5613" gradientUnits="userSpaceOnUse">
<stop stop-color="#138EFF"/>
<stop offset="1" stop-color="#00E0FF"/>
</linearGradient>
<linearGradient id="paint9_linear_208_3661" x1="17.2136" y1="44.9798" x2="14.3028" y2="54.5613" gradientUnits="userSpaceOnUse">
<stop stop-color="white"/>
<stop offset="1" stop-color="white" stop-opacity="0"/>
</linearGradient>
<linearGradient id="paint10_linear_208_3661" x1="28.7485" y1="44.9798" x2="25.8377" y2="54.5613" gradientUnits="userSpaceOnUse">
<stop stop-color="#138EFF"/>
<stop offset="1" stop-color="#00E0FF"/>
</linearGradient>
<linearGradient id="paint11_linear_208_3661" x1="28.7485" y1="44.9798" x2="25.8377" y2="54.5613" gradientUnits="userSpaceOnUse">
<stop stop-color="white"/>
<stop offset="1" stop-color="white" stop-opacity="0"/>
</linearGradient>
<linearGradient id="paint12_linear_208_3661" x1="40.2834" y1="44.9798" x2="37.3726" y2="54.5613" gradientUnits="userSpaceOnUse">
<stop stop-color="#138EFF"/>
<stop offset="1" stop-color="#00E0FF"/>
</linearGradient>
<linearGradient id="paint13_linear_208_3661" x1="40.2834" y1="44.9798" x2="37.3726" y2="54.5613" gradientUnits="userSpaceOnUse">
<stop stop-color="white"/>
<stop offset="1" stop-color="white" stop-opacity="0"/>
</linearGradient>
<linearGradient id="paint14_linear_208_3661" x1="21.6264" y1="54.0986" x2="18.7156" y2="63.6801" gradientUnits="userSpaceOnUse">
<stop stop-color="#138EFF"/>
<stop offset="1" stop-color="#00E0FF"/>
</linearGradient>
<linearGradient id="paint15_linear_208_3661" x1="21.6264" y1="54.0986" x2="18.7156" y2="63.6801" gradientUnits="userSpaceOnUse">
<stop stop-color="white"/>
<stop offset="1" stop-color="white" stop-opacity="0"/>
</linearGradient>
<linearGradient id="paint16_linear_208_3661" x1="33.2601" y1="54.0986" x2="30.3493" y2="63.6801" gradientUnits="userSpaceOnUse">
<stop stop-color="#138EFF"/>
<stop offset="1" stop-color="#00E0FF"/>
</linearGradient>
<linearGradient id="paint17_linear_208_3661" x1="33.2601" y1="54.0986" x2="30.3493" y2="63.6801" gradientUnits="userSpaceOnUse">
<stop stop-color="white"/>
<stop offset="1" stop-color="white" stop-opacity="0"/>
</linearGradient>
</defs>
</svg>
