<svg width="148" height="150" viewBox="0 0 148 150" fill="none" xmlns="http://www.w3.org/2000/svg">
<g filter="url(#filter0_bdd_208_3574)">
<path d="M71.9513 73.5175L77.9904 62.4661C78.3411 61.8243 79.0141 61.4251 79.7454 61.4251H83.7242C85.2275 61.4251 86.1934 63.0215 85.4959 64.3531L83.0451 69.0319C82.3887 70.2849 83.2976 71.7869 84.7121 71.7869C86.3388 71.7869 87.1992 73.7114 86.1145 74.9236L77.8281 84.1849C76.3536 85.8329 73.6901 84.2227 74.4642 82.1512L75.5773 79.1726C76.0654 77.8664 75.0996 76.4744 73.7051 76.4744C72.1874 76.4744 71.2235 74.8493 71.9513 73.5175Z" fill="url(#paint0_linear_208_3574)"/>
<path d="M72.8288 73.997L78.8679 62.9456C79.0432 62.6247 79.3798 62.4251 79.7454 62.4251H83.7242C84.4758 62.4251 84.9588 63.2233 84.61 63.8891L82.1592 68.5679C81.1541 70.4867 82.5459 72.7869 84.7121 72.7869C85.4744 72.7869 85.8776 73.6888 85.3693 74.2568L77.0829 83.5181C76.3456 84.3421 75.0139 83.537 75.4009 82.5012L76.514 79.5226C77.2463 77.5629 75.7973 75.4744 73.7051 75.4744C72.9468 75.4744 72.4652 74.6625 72.8288 73.997Z" stroke="url(#paint1_linear_208_3574)" stroke-width="2"/>
</g>
<g filter="url(#filter1_bd_208_3574)">
<mask id="path-3-inside-1_208_3574" fill="white">
<path fill-rule="evenodd" clip-rule="evenodd" d="M89.9901 69.8128C90.0175 69.8131 90.0449 69.8133 90.0724 69.8133C93.9784 69.8133 97.1448 66.6469 97.1448 62.7409C97.1448 58.8349 93.9784 55.6685 90.0724 55.6685C90.0449 55.6685 90.0175 55.6687 89.9901 55.669V55.6685H88.1631C88.2291 55.1845 88.2632 54.6904 88.2632 54.1883C88.2632 48.1931 83.4031 43.333 77.4079 43.333C71.4127 43.333 66.5526 48.1931 66.5526 54.1883C66.5526 54.754 66.5959 55.3095 66.6793 55.8519C66.1631 55.7319 65.6251 55.6685 65.0724 55.6685C61.1664 55.6685 58 58.8349 58 62.7409C58 66.6469 61.1664 69.8133 65.0724 69.8133C65.0999 69.8133 65.1275 69.8131 65.155 69.8128L65.1546 69.8133H89.9901V69.8128Z"/>
</mask>
<path fill-rule="evenodd" clip-rule="evenodd" d="M89.9901 69.8128C90.0175 69.8131 90.0449 69.8133 90.0724 69.8133C93.9784 69.8133 97.1448 66.6469 97.1448 62.7409C97.1448 58.8349 93.9784 55.6685 90.0724 55.6685C90.0449 55.6685 90.0175 55.6687 89.9901 55.669V55.6685H88.1631C88.2291 55.1845 88.2632 54.6904 88.2632 54.1883C88.2632 48.1931 83.4031 43.333 77.4079 43.333C71.4127 43.333 66.5526 48.1931 66.5526 54.1883C66.5526 54.754 66.5959 55.3095 66.6793 55.8519C66.1631 55.7319 65.6251 55.6685 65.0724 55.6685C61.1664 55.6685 58 58.8349 58 62.7409C58 66.6469 61.1664 69.8133 65.0724 69.8133C65.0999 69.8133 65.1275 69.8131 65.155 69.8128L65.1546 69.8133H89.9901V69.8128Z" fill="url(#paint2_linear_208_3574)" shape-rendering="crispEdges"/>
<path d="M89.9901 69.8128L90.013 67.8129C89.4786 67.8068 88.9641 68.0148 88.584 68.3905C88.204 68.7662 87.9901 69.2784 87.9901 69.8128H89.9901ZM89.9901 55.669H87.9901C87.9901 56.2034 88.204 56.7155 88.584 57.0912C88.964 57.4669 89.4786 57.675 90.0129 57.6689L89.9901 55.669ZM89.9901 55.6685H91.9901C91.9901 54.564 91.0947 53.6685 89.9901 53.6685V55.6685ZM88.1631 55.6685L86.1814 55.3983C86.1034 55.9706 86.2766 56.5486 86.6564 56.9837C87.0362 57.4189 87.5855 57.6685 88.1631 57.6685V55.6685ZM66.6793 55.8519L66.2267 57.8C66.8733 57.9502 67.5522 57.7699 68.039 57.3186C68.5258 56.8673 68.757 56.2039 68.6561 55.5479L66.6793 55.8519ZM65.155 69.8128L66.7255 71.0511C67.2025 70.4461 67.2896 69.621 66.9495 68.9298C66.6094 68.2385 65.9025 67.8041 65.1321 67.8129L65.155 69.8128ZM65.1546 69.8133L63.5841 68.5749C63.1097 69.1767 63.0207 69.9966 63.3551 70.686C63.6895 71.3755 64.3884 71.8133 65.1546 71.8133V69.8133ZM89.9901 69.8133V71.8133C91.0947 71.8133 91.9901 70.9178 91.9901 69.8133H89.9901ZM89.9673 71.8127C90.0023 71.8131 90.0373 71.8133 90.0724 71.8133V67.8133C90.0525 67.8133 90.0327 67.8131 90.013 67.8129L89.9673 71.8127ZM90.0724 71.8133C95.0829 71.8133 99.1448 67.7514 99.1448 62.7409H95.1448C95.1448 65.5423 92.8738 67.8133 90.0724 67.8133V71.8133ZM99.1448 62.7409C99.1448 57.7304 95.0829 53.6685 90.0724 53.6685V57.6685C92.8738 57.6685 95.1448 59.9395 95.1448 62.7409H99.1448ZM90.0724 53.6685C90.0373 53.6685 90.0023 53.6687 89.9674 53.6691L90.0129 57.6689C90.0327 57.6686 90.0525 57.6685 90.0724 57.6685V53.6685ZM87.9901 55.6685V55.669H91.9901V55.6685H87.9901ZM88.1631 57.6685H89.9901V53.6685H88.1631V57.6685ZM90.1448 55.9387C90.2229 55.3654 90.2632 54.781 90.2632 54.1883H86.2632C86.2632 54.5998 86.2352 55.0036 86.1814 55.3983L90.1448 55.9387ZM90.2632 54.1883C90.2632 47.0885 84.5077 41.333 77.4079 41.333V45.333C82.2985 45.333 86.2632 49.2976 86.2632 54.1883H90.2632ZM77.4079 41.333C70.3081 41.333 64.5526 47.0885 64.5526 54.1883H68.5526C68.5526 49.2976 72.5173 45.333 77.4079 45.333V41.333ZM64.5526 54.1883C64.5526 54.8561 64.6037 55.5133 64.7026 56.1559L68.6561 55.5479C68.5881 55.1058 68.5526 54.6518 68.5526 54.1883H64.5526ZM67.132 53.9038C66.4683 53.7496 65.7786 53.6685 65.0724 53.6685V57.6685C65.4717 57.6685 65.8578 57.7143 66.2267 57.8L67.132 53.9038ZM65.0724 53.6685C60.0618 53.6685 56 57.7304 56 62.7409H60C60 59.9395 62.271 57.6685 65.0724 57.6685V53.6685ZM56 62.7409C56 67.7514 60.0618 71.8133 65.0724 71.8133V67.8133C62.271 67.8133 60 65.5423 60 62.7409H56ZM65.0724 71.8133C65.1076 71.8133 65.1428 71.8131 65.1779 71.8127L65.1321 67.8129C65.1122 67.8131 65.0923 67.8133 65.0724 67.8133V71.8133ZM66.7252 71.0516L66.7255 71.0511L63.5845 68.5745L63.5841 68.5749L66.7252 71.0516ZM89.9901 67.8133H65.1546V71.8133H89.9901V67.8133ZM87.9901 69.8128V69.8133H91.9901V69.8128H87.9901Z" fill="url(#paint3_linear_208_3574)" mask="url(#path-3-inside-1_208_3574)"/>
</g>
<g filter="url(#filter2_bd_208_3574)">
<mask id="path-5-inside-2_208_3574" fill="white">
<path fill-rule="evenodd" clip-rule="evenodd" d="M102.829 62.4697C102.849 62.4699 102.869 62.47 102.889 62.47C105.712 62.47 108 60.1817 108 57.3589C108 54.5361 105.712 52.2478 102.889 52.2478C102.869 52.2478 102.849 52.2479 102.829 52.2481V52.2478H101.509C101.557 51.898 101.581 51.5409 101.581 51.178C101.581 46.8453 98.0691 43.333 93.7364 43.333C89.4037 43.333 85.8914 46.8453 85.8914 51.178C85.8914 51.5868 85.9227 51.9883 85.983 52.3803C85.6099 52.2936 85.2211 52.2478 84.8216 52.2478C81.9988 52.2478 79.7105 54.5361 79.7105 57.3589C79.7105 60.1817 81.9988 62.47 84.8216 62.47C84.8416 62.47 84.8615 62.4699 84.8813 62.4697L84.8811 62.47H102.829V62.4697Z"/>
</mask>
<path fill-rule="evenodd" clip-rule="evenodd" d="M102.829 62.4697C102.849 62.4699 102.869 62.47 102.889 62.47C105.712 62.47 108 60.1817 108 57.3589C108 54.5361 105.712 52.2478 102.889 52.2478C102.869 52.2478 102.849 52.2479 102.829 52.2481V52.2478H101.509C101.557 51.898 101.581 51.5409 101.581 51.178C101.581 46.8453 98.0691 43.333 93.7364 43.333C89.4037 43.333 85.8914 46.8453 85.8914 51.178C85.8914 51.5868 85.9227 51.9883 85.983 52.3803C85.6099 52.2936 85.2211 52.2478 84.8216 52.2478C81.9988 52.2478 79.7105 54.5361 79.7105 57.3589C79.7105 60.1817 81.9988 62.47 84.8216 62.47C84.8416 62.47 84.8615 62.4699 84.8813 62.4697L84.8811 62.47H102.829V62.4697Z" fill="url(#paint4_linear_208_3574)" shape-rendering="crispEdges"/>
<path d="M102.829 62.4697L102.852 60.4698C102.318 60.4637 101.803 60.6717 101.423 61.0474C101.043 61.4231 100.829 61.9353 100.829 62.4697H102.829ZM102.829 52.2481H100.829C100.829 52.7825 101.043 53.2946 101.423 53.6703C101.803 54.046 102.318 54.254 102.852 54.248L102.829 52.2481ZM102.829 52.2478H104.829C104.829 51.1432 103.934 50.2478 102.829 50.2478V52.2478ZM101.509 52.2478L99.5274 51.9775C99.4494 52.5498 99.6225 53.1279 100.002 53.563C100.382 53.9981 100.931 54.2478 101.509 54.2478V52.2478ZM85.983 52.3803L85.5303 54.3284C86.1769 54.4786 86.8559 54.2983 87.3427 53.847C87.8295 53.3957 88.0606 52.7323 87.9597 52.0762L85.983 52.3803ZM84.8813 62.4697L86.4514 63.7086C86.9287 63.1037 87.0161 62.2784 86.676 61.587C86.336 60.8956 85.629 60.461 84.8585 60.4698L84.8813 62.4697ZM84.8811 62.47L83.311 61.2311C82.8363 61.8327 82.7471 62.6527 83.0814 63.3424C83.4157 64.032 84.1147 64.47 84.8811 64.47V62.47ZM102.829 62.47V64.47C103.934 64.47 104.829 63.5746 104.829 62.47H102.829ZM102.807 64.4695C102.834 64.4698 102.861 64.47 102.889 64.47V60.47C102.877 60.47 102.864 60.4699 102.852 60.4698L102.807 64.4695ZM102.889 64.47C106.816 64.47 110 61.2862 110 57.3589H106C106 59.0771 104.607 60.47 102.889 60.47V64.47ZM110 57.3589C110 53.4315 106.816 50.2478 102.889 50.2478V54.2478C104.607 54.2478 106 55.6406 106 57.3589H110ZM102.889 50.2478C102.861 50.2478 102.834 50.2479 102.807 50.2482L102.852 54.248C102.864 54.2478 102.877 54.2478 102.889 54.2478V50.2478ZM100.829 52.2478V52.2481H104.829V52.2478H100.829ZM101.509 54.2478H102.829V50.2478H101.509V54.2478ZM103.491 52.518C103.551 52.0789 103.581 51.6315 103.581 51.178H99.5814C99.5814 51.4502 99.5629 51.7171 99.5274 51.9775L103.491 52.518ZM103.581 51.178C103.581 45.7408 99.1736 41.333 93.7364 41.333V45.333C96.9645 45.333 99.5814 47.9499 99.5814 51.178H103.581ZM93.7364 41.333C88.2992 41.333 83.8914 45.7408 83.8914 51.178H87.8914C87.8914 47.9499 90.5083 45.333 93.7364 45.333V41.333ZM83.8914 51.178C83.8914 51.6889 83.9305 52.1921 84.0062 52.6843L87.9597 52.0762C87.9149 51.7845 87.8914 51.4847 87.8914 51.178H83.8914ZM86.4356 50.4322C85.9152 50.3112 85.3745 50.2478 84.8216 50.2478V54.2478C85.0677 54.2478 85.3046 54.2759 85.5303 54.3284L86.4356 50.4322ZM84.8216 50.2478C80.8943 50.2478 77.7105 53.4315 77.7105 57.3589H81.7105C81.7105 55.6406 83.1034 54.2478 84.8216 54.2478V50.2478ZM77.7105 57.3589C77.7105 61.2862 80.8943 64.47 84.8216 64.47V60.47C83.1034 60.47 81.7105 59.0771 81.7105 57.3589H77.7105ZM84.8216 64.47C84.8492 64.47 84.8767 64.4698 84.9042 64.4695L84.8585 60.4698C84.8462 60.4699 84.8339 60.47 84.8216 60.47V64.47ZM86.4511 63.7089L86.4514 63.7086L83.3113 61.2307L83.311 61.2311L86.4511 63.7089ZM102.829 60.47H84.8811V64.47H102.829V60.47ZM100.829 62.4697V62.47H104.829V62.4697H100.829Z" fill="url(#paint5_linear_208_3574)" mask="url(#path-5-inside-2_208_3574)"/>
</g>
<defs>
<filter id="filter0_bdd_208_3574" x="0.703735" y="0.42511" width="146.894" height="149.44" filterUnits="userSpaceOnUse" color-interpolation-filters="sRGB">
<feFlood flood-opacity="0" result="BackgroundImageFix"/>
<feGaussianBlur in="BackgroundImageFix" stdDeviation="7"/>
<feComposite in2="SourceAlpha" operator="in" result="effect1_backgroundBlur_208_3574"/>
<feColorMatrix in="SourceAlpha" type="matrix" values="0 0 0 0 0 0 0 0 0 0 0 0 0 0 0 0 0 0 127 0" result="hardAlpha"/>
<feOffset dx="-21" dy="15"/>
<feGaussianBlur stdDeviation="25"/>
<feComposite in2="hardAlpha" operator="out"/>
<feColorMatrix type="matrix" values="0 0 0 0 0.113438 0 0 0 0 0.148981 0 0 0 0 0.275 0 0 0 0.25 0"/>
<feBlend mode="normal" in2="effect1_backgroundBlur_208_3574" result="effect2_dropShadow_208_3574"/>
<feColorMatrix in="SourceAlpha" type="matrix" values="0 0 0 0 0 0 0 0 0 0 0 0 0 0 0 0 0 0 127 0" result="hardAlpha"/>
<feOffset/>
<feGaussianBlur stdDeviation="30.5"/>
<feComposite in2="hardAlpha" operator="out"/>
<feColorMatrix type="matrix" values="0 0 0 0 1 0 0 0 0 0.721569 0 0 0 0 0.00392157 0 0 0 0.49 0"/>
<feBlend mode="normal" in2="effect2_dropShadow_208_3574" result="effect3_dropShadow_208_3574"/>
<feBlend mode="normal" in="SourceGraphic" in2="effect3_dropShadow_208_3574" result="shape"/>
</filter>
<filter id="filter1_bd_208_3574" x="33" y="28.333" width="79.1448" height="66.4802" filterUnits="userSpaceOnUse" color-interpolation-filters="sRGB">
<feFlood flood-opacity="0" result="BackgroundImageFix"/>
<feGaussianBlur in="BackgroundImageFix" stdDeviation="5"/>
<feComposite in2="SourceAlpha" operator="in" result="effect1_backgroundBlur_208_3574"/>
<feColorMatrix in="SourceAlpha" type="matrix" values="0 0 0 0 0 0 0 0 0 0 0 0 0 0 0 0 0 0 127 0" result="hardAlpha"/>
<feOffset dx="-5" dy="5"/>
<feGaussianBlur stdDeviation="10"/>
<feComposite in2="hardAlpha" operator="out"/>
<feColorMatrix type="matrix" values="0 0 0 0 0.113725 0 0 0 0 0.14902 0 0 0 0 0.27451 0 0 0 0.15 0"/>
<feBlend mode="normal" in2="effect1_backgroundBlur_208_3574" result="effect2_dropShadow_208_3574"/>
<feBlend mode="normal" in="SourceGraphic" in2="effect2_dropShadow_208_3574" result="shape"/>
</filter>
<filter id="filter2_bd_208_3574" x="8.71051" y="8.33301" width="128.289" height="119.137" filterUnits="userSpaceOnUse" color-interpolation-filters="sRGB">
<feFlood flood-opacity="0" result="BackgroundImageFix"/>
<feGaussianBlur in="BackgroundImageFix" stdDeviation="7"/>
<feComposite in2="SourceAlpha" operator="in" result="effect1_backgroundBlur_208_3574"/>
<feColorMatrix in="SourceAlpha" type="matrix" values="0 0 0 0 0 0 0 0 0 0 0 0 0 0 0 0 0 0 127 0" result="hardAlpha"/>
<feOffset dx="-21" dy="15"/>
<feGaussianBlur stdDeviation="25"/>
<feComposite in2="hardAlpha" operator="out"/>
<feColorMatrix type="matrix" values="0 0 0 0 0.113438 0 0 0 0 0.148981 0 0 0 0 0.275 0 0 0 0.25 0"/>
<feBlend mode="normal" in2="effect1_backgroundBlur_208_3574" result="effect2_dropShadow_208_3574"/>
<feBlend mode="normal" in="SourceGraphic" in2="effect2_dropShadow_208_3574" result="shape"/>
</filter>
<linearGradient id="paint0_linear_208_3574" x1="81.4375" y1="63.2343" x2="77.3256" y2="81.0797" gradientUnits="userSpaceOnUse">
<stop stop-color="#FF4D00"/>
<stop offset="1" stop-color="#FFB800"/>
</linearGradient>
<linearGradient id="paint1_linear_208_3574" x1="75.9276" y1="80.833" x2="83.4112" y2="64.7968" gradientUnits="userSpaceOnUse">
<stop stop-color="white"/>
<stop offset="1" stop-color="white" stop-opacity="0"/>
</linearGradient>
<linearGradient id="paint2_linear_208_3574" x1="77.5724" y1="34.8626" x2="77.5724" y2="73.5139" gradientUnits="userSpaceOnUse">
<stop stop-color="white"/>
<stop offset="1" stop-color="white" stop-opacity="0"/>
</linearGradient>
<linearGradient id="paint3_linear_208_3574" x1="77.5724" y1="43.333" x2="77.5724" y2="69.8133" gradientUnits="userSpaceOnUse">
<stop stop-color="white"/>
<stop offset="1" stop-color="white" stop-opacity="0"/>
</linearGradient>
<linearGradient id="paint4_linear_208_3574" x1="95.171" y1="43.9087" x2="95.171" y2="64.6323" gradientUnits="userSpaceOnUse">
<stop stop-color="white"/>
<stop offset="1" stop-color="white" stop-opacity="0"/>
</linearGradient>
<linearGradient id="paint5_linear_208_3574" x1="93.8552" y1="43.333" x2="93.8552" y2="62.47" gradientUnits="userSpaceOnUse">
<stop stop-color="white"/>
<stop offset="1" stop-color="white" stop-opacity="0"/>
</linearGradient>
</defs>
</svg>
