<svg width="75" height="81" viewBox="0 0 75 81" fill="none" xmlns="http://www.w3.org/2000/svg">
<g filter="url(#filter0_f_233_2444)">
<ellipse cx="30.8854" cy="30.7439" rx="15.8854" ry="15.7439" fill="#FFC701" fill-opacity="0.5"/>
</g>
<path d="M45.25 31.2601C45.25 39.1094 38.8272 45.4878 30.8854 45.4878C22.9436 45.4878 16.5208 39.1094 16.5208 31.2601C16.5208 23.4107 22.9436 17.0323 30.8854 17.0323C38.8272 17.0323 45.25 23.4107 45.25 31.2601Z" fill="url(#paint0_linear_233_2444)" stroke="url(#paint1_linear_233_2444)" stroke-width="2"/>
<mask id="mask0_233_2444" style="mask-type:alpha" maskUnits="userSpaceOnUse" x="15" y="24" width="32" height="23">
<path d="M46.25 31.2601C46.25 39.6701 39.371 46.4878 30.8854 46.4878C22.3998 46.4878 15.5208 39.6701 15.5208 31.2601C15.5208 22.85 21.2279 24.8076 29.7135 24.8076C38.1992 24.8076 46.25 22.85 46.25 31.2601Z" fill="url(#paint2_linear_233_2444)"/>
</mask>
<g mask="url(#mask0_233_2444)">
<g filter="url(#filter1_f_233_2444)">
<path fill-rule="evenodd" clip-rule="evenodd" d="M54.323 59.1345C54.323 65.2639 49.3095 70.2327 43.1251 70.2327C43.0816 70.2327 43.0383 70.2325 42.9949 70.232V70.2327H3.67198L3.67219 70.2325C3.62874 70.2329 3.58523 70.2332 3.54166 70.2332C-2.64277 70.2332 -7.65625 65.2644 -7.65625 59.135C-7.65625 53.0057 -2.64277 48.0369 3.54166 48.0369C8.87238 48.0369 13.3331 51.7285 14.4631 56.673L18.2553 51.9078L30.1043 48.0364H42.9949V48.0371C43.0383 48.0366 43.0816 48.0364 43.1251 48.0364C49.3095 48.0364 54.323 53.0052 54.323 59.1345Z" fill="#E18700"/>
</g>
</g>
<g filter="url(#filter2_bd_233_2444)">
<mask id="path-5-inside-1_233_2444" fill="white">
<path fill-rule="evenodd" clip-rule="evenodd" d="M56.8131 59.9994C56.8445 59.9998 56.8759 59.9999 56.9074 59.9999C61.3768 59.9999 65 56.409 65 51.9794C65 47.5498 61.3768 43.9589 56.9074 43.9589C56.8759 43.9589 56.8445 43.9591 56.8131 43.9594V43.9589H54.7226C54.7981 43.41 54.8371 42.8495 54.8371 42.2801C54.8371 35.4811 49.276 29.9695 42.4159 29.9695C35.5559 29.9695 29.9947 35.4811 29.9947 42.2801C29.9947 42.9216 30.0442 43.5517 30.1397 44.1668C29.5489 44.0308 28.9334 43.9589 28.3009 43.9589C23.8315 43.9589 20.2083 47.5498 20.2083 51.9794C20.2083 56.409 23.8315 59.9999 28.3009 59.9999C28.3324 59.9999 28.3639 59.9998 28.3953 59.9994L28.3949 59.9999H56.8131V59.9994Z"/>
</mask>
<path fill-rule="evenodd" clip-rule="evenodd" d="M56.8131 59.9994C56.8445 59.9998 56.8759 59.9999 56.9074 59.9999C61.3768 59.9999 65 56.409 65 51.9794C65 47.5498 61.3768 43.9589 56.9074 43.9589C56.8759 43.9589 56.8445 43.9591 56.8131 43.9594V43.9589H54.7226C54.7981 43.41 54.8371 42.8495 54.8371 42.2801C54.8371 35.4811 49.276 29.9695 42.4159 29.9695C35.5559 29.9695 29.9947 35.4811 29.9947 42.2801C29.9947 42.9216 30.0442 43.5517 30.1397 44.1668C29.5489 44.0308 28.9334 43.9589 28.3009 43.9589C23.8315 43.9589 20.2083 47.5498 20.2083 51.9794C20.2083 56.409 23.8315 59.9999 28.3009 59.9999C28.3324 59.9999 28.3639 59.9998 28.3953 59.9994L28.3949 59.9999H56.8131V59.9994Z" fill="url(#paint3_linear_233_2444)" shape-rendering="crispEdges"/>
<path d="M56.8131 59.9994L56.8357 57.9995C56.3014 57.9935 55.7868 58.2015 55.4069 58.5772C55.0269 58.9529 54.8131 59.4651 54.8131 59.9994H56.8131ZM56.8131 43.9594H54.8131C54.8131 44.4938 55.0269 45.0059 55.4069 45.3816C55.7869 45.7573 56.3014 45.9653 56.8357 45.9593L56.8131 43.9594ZM56.8131 43.9589H58.8131C58.8131 42.8543 57.9176 41.9589 56.8131 41.9589V43.9589ZM54.7226 43.9589L52.7413 43.6863C52.6625 44.2589 52.8353 44.8375 53.2151 45.2732C53.5949 45.7088 54.1446 45.9589 54.7226 45.9589V43.9589ZM30.1397 44.1668L29.6909 46.1158C30.3375 46.2647 31.0159 46.0832 31.5018 45.6313C31.9877 45.1793 32.2178 44.5158 32.116 43.8601L30.1397 44.1668ZM28.3953 59.9994L29.9597 61.2454C30.4408 60.6414 30.5312 59.8145 30.192 59.1209C29.8529 58.4273 29.1448 57.9908 28.3727 57.9995L28.3953 59.9994ZM28.3949 59.9999L26.8304 58.754C26.3519 59.3547 26.2597 60.1764 26.5932 60.8683C26.9267 61.5601 27.6268 61.9999 28.3949 61.9999V59.9999ZM56.8131 59.9999V61.9999C57.9176 61.9999 58.8131 61.1045 58.8131 59.9999H56.8131ZM56.7905 61.9993C56.8293 61.9997 56.8683 61.9999 56.9074 61.9999V57.9999C56.8835 57.9999 56.8596 57.9998 56.8357 57.9995L56.7905 61.9993ZM56.9074 61.9999C62.4645 61.9999 67 57.5304 67 51.9794H63C63 55.2876 60.2891 57.9999 56.9074 57.9999V61.9999ZM67 51.9794C67 46.4284 62.4645 41.9589 56.9074 41.9589V45.9589C60.2891 45.9589 63 48.6712 63 51.9794H67ZM56.9074 41.9589C56.8684 41.9589 56.8294 41.9591 56.7904 41.9595L56.8357 45.9593C56.8595 45.959 56.8834 45.9589 56.9074 45.9589V41.9589ZM54.8131 43.9589V43.9594H58.8131V43.9589H54.8131ZM54.7226 45.9589H56.8131V41.9589H54.7226V45.9589ZM56.7039 44.2315C56.7918 43.5925 56.8371 42.941 56.8371 42.2801H52.8371C52.8371 42.7581 52.8044 43.2274 52.7413 43.6863L56.7039 44.2315ZM56.8371 42.2801C56.8371 34.3597 50.3636 27.9695 42.4159 27.9695V31.9695C48.1883 31.9695 52.8371 36.6025 52.8371 42.2801H56.8371ZM42.4159 27.9695C34.4682 27.9695 27.9947 34.3597 27.9947 42.2801H31.9947C31.9947 36.6025 36.6435 31.9695 42.4159 31.9695V27.9695ZM27.9947 42.2801C27.9947 43.0247 28.0522 43.7573 28.1633 44.4735L32.116 43.8601C32.0362 43.3461 31.9947 42.8186 31.9947 42.2801H27.9947ZM30.5884 42.2178C29.8515 42.0481 29.0855 41.9589 28.3009 41.9589V45.9589C28.7814 45.9589 29.2464 46.0135 29.6909 46.1158L30.5884 42.2178ZM28.3009 41.9589C22.7438 41.9589 18.2083 46.4284 18.2083 51.9794H22.2083C22.2083 48.6712 24.9192 45.9589 28.3009 45.9589V41.9589ZM18.2083 51.9794C18.2083 57.5304 22.7438 61.9999 28.3009 61.9999V57.9999C24.9192 57.9999 22.2083 55.2876 22.2083 51.9794H18.2083ZM28.3009 61.9999C28.34 61.9999 28.379 61.9997 28.4179 61.9993L28.3727 57.9995C28.3488 57.9998 28.3248 57.9999 28.3009 57.9999V61.9999ZM29.9593 61.2459L29.9597 61.2454L26.8308 58.7534L26.8304 58.754L29.9593 61.2459ZM56.8131 57.9999H28.3949V61.9999H56.8131V57.9999ZM54.8131 59.9994V59.9999H58.8131V59.9994H54.8131Z" fill="url(#paint4_linear_233_2444)" mask="url(#path-5-inside-1_233_2444)"/>
</g>
<defs>
<filter id="filter0_f_233_2444" x="0" y="0" width="61.7708" height="61.4878" filterUnits="userSpaceOnUse" color-interpolation-filters="sRGB">
<feFlood flood-opacity="0" result="BackgroundImageFix"/>
<feBlend mode="normal" in="SourceGraphic" in2="BackgroundImageFix" result="shape"/>
<feGaussianBlur stdDeviation="7.5" result="effect1_foregroundBlur_233_2444"/>
</filter>
<filter id="filter1_f_233_2444" x="-21.6562" y="34.0364" width="89.9792" height="50.1968" filterUnits="userSpaceOnUse" color-interpolation-filters="sRGB">
<feFlood flood-opacity="0" result="BackgroundImageFix"/>
<feBlend mode="normal" in="SourceGraphic" in2="BackgroundImageFix" result="shape"/>
<feGaussianBlur stdDeviation="7" result="effect1_foregroundBlur_233_2444"/>
</filter>
<filter id="filter2_bd_233_2444" x="0.208313" y="19.9695" width="74.7917" height="61.0305" filterUnits="userSpaceOnUse" color-interpolation-filters="sRGB">
<feFlood flood-opacity="0" result="BackgroundImageFix"/>
<feGaussianBlur in="BackgroundImageFix" stdDeviation="5"/>
<feComposite in2="SourceAlpha" operator="in" result="effect1_backgroundBlur_233_2444"/>
<feColorMatrix in="SourceAlpha" type="matrix" values="0 0 0 0 0 0 0 0 0 0 0 0 0 0 0 0 0 0 127 0" result="hardAlpha"/>
<feOffset dx="-5" dy="6"/>
<feGaussianBlur stdDeviation="7.5"/>
<feComposite in2="hardAlpha" operator="out"/>
<feColorMatrix type="matrix" values="0 0 0 0 0.113438 0 0 0 0 0.148981 0 0 0 0 0.275 0 0 0 0.1 0"/>
<feBlend mode="normal" in2="effect1_backgroundBlur_233_2444" result="effect2_dropShadow_233_2444"/>
<feBlend mode="normal" in="SourceGraphic" in2="effect2_dropShadow_233_2444" result="shape"/>
</filter>
<linearGradient id="paint0_linear_233_2444" x1="30.8854" y1="16.0323" x2="30.8854" y2="46.4878" gradientUnits="userSpaceOnUse">
<stop stop-color="#FFE600"/>
<stop offset="1" stop-color="#FF7A00"/>
</linearGradient>
<linearGradient id="paint1_linear_233_2444" x1="30.8854" y1="16.0323" x2="30.8854" y2="46.4878" gradientUnits="userSpaceOnUse">
<stop stop-color="white"/>
<stop offset="1" stop-color="white" stop-opacity="0"/>
</linearGradient>
<linearGradient id="paint2_linear_233_2444" x1="30.8854" y1="16.0323" x2="30.8854" y2="46.4878" gradientUnits="userSpaceOnUse">
<stop stop-color="#FFD600"/>
<stop offset="1" stop-color="#FF7A00"/>
</linearGradient>
<linearGradient id="paint3_linear_233_2444" x1="44.6875" y1="30.8728" x2="44.6875" y2="63.3931" gradientUnits="userSpaceOnUse">
<stop stop-color="white"/>
<stop offset="1" stop-color="white" stop-opacity="0"/>
</linearGradient>
<linearGradient id="paint4_linear_233_2444" x1="42.6042" y1="29.9695" x2="42.6042" y2="59.9999" gradientUnits="userSpaceOnUse">
<stop stop-color="white"/>
<stop offset="1" stop-color="white" stop-opacity="0"/>
</linearGradient>
</defs>
</svg>
